G04 #@! TF.GenerationSoftware,KiCad,Pcbnew,5.1.5*
G04 #@! TF.CreationDate,2020-02-15T20:36:58-05:00*
G04 #@! TF.ProjectId,mx,6d782e6b-6963-4616-945f-706362585858,B*
G04 #@! TF.SameCoordinates,Original*
G04 #@! TF.FileFunction,Copper,L2,Bot*
G04 #@! TF.FilePolarity,Positive*
%FSLAX46Y46*%
G04 Gerber Fmt 4.6, Leading zero omitted, Abs format (unit mm)*
G04 Created by KiCad (PCBNEW 5.1.5) date 2020-02-15 20:36:58*
%MOMM*%
%LPD*%
G04 APERTURE LIST*
%ADD10R,2.550000X2.500000*%
%ADD11R,1.700000X1.700000*%
%ADD12O,1.700000X1.700000*%
%ADD13C,0.100000*%
%ADD14R,2.500000X1.800000*%
%ADD15C,0.800000*%
%ADD16C,0.254000*%
%ADD17C,0.250000*%
%ADD18C,0.508000*%
G04 APERTURE END LIST*
D10*
X140785001Y-113740001D03*
X127335001Y-116280001D03*
D11*
X129540000Y-132080000D03*
D12*
X127000000Y-132080000D03*
X139700000Y-106680000D03*
D11*
X142240000Y-106680000D03*
X142240000Y-132080000D03*
D12*
X139700000Y-132080000D03*
G04 #@! TA.AperFunction,SMDPad,CuDef*
D13*
G36*
X130960691Y-124176053D02*
G01*
X130981926Y-124179203D01*
X131002750Y-124184419D01*
X131022962Y-124191651D01*
X131042368Y-124200830D01*
X131060781Y-124211866D01*
X131078024Y-124224654D01*
X131093930Y-124239070D01*
X131108346Y-124254976D01*
X131121134Y-124272219D01*
X131132170Y-124290632D01*
X131141349Y-124310038D01*
X131148581Y-124330250D01*
X131153797Y-124351074D01*
X131156947Y-124372309D01*
X131158000Y-124393750D01*
X131158000Y-124831250D01*
X131156947Y-124852691D01*
X131153797Y-124873926D01*
X131148581Y-124894750D01*
X131141349Y-124914962D01*
X131132170Y-124934368D01*
X131121134Y-124952781D01*
X131108346Y-124970024D01*
X131093930Y-124985930D01*
X131078024Y-125000346D01*
X131060781Y-125013134D01*
X131042368Y-125024170D01*
X131022962Y-125033349D01*
X131002750Y-125040581D01*
X130981926Y-125045797D01*
X130960691Y-125048947D01*
X130939250Y-125050000D01*
X130426750Y-125050000D01*
X130405309Y-125048947D01*
X130384074Y-125045797D01*
X130363250Y-125040581D01*
X130343038Y-125033349D01*
X130323632Y-125024170D01*
X130305219Y-125013134D01*
X130287976Y-125000346D01*
X130272070Y-124985930D01*
X130257654Y-124970024D01*
X130244866Y-124952781D01*
X130233830Y-124934368D01*
X130224651Y-124914962D01*
X130217419Y-124894750D01*
X130212203Y-124873926D01*
X130209053Y-124852691D01*
X130208000Y-124831250D01*
X130208000Y-124393750D01*
X130209053Y-124372309D01*
X130212203Y-124351074D01*
X130217419Y-124330250D01*
X130224651Y-124310038D01*
X130233830Y-124290632D01*
X130244866Y-124272219D01*
X130257654Y-124254976D01*
X130272070Y-124239070D01*
X130287976Y-124224654D01*
X130305219Y-124211866D01*
X130323632Y-124200830D01*
X130343038Y-124191651D01*
X130363250Y-124184419D01*
X130384074Y-124179203D01*
X130405309Y-124176053D01*
X130426750Y-124175000D01*
X130939250Y-124175000D01*
X130960691Y-124176053D01*
G37*
G04 #@! TD.AperFunction*
G04 #@! TA.AperFunction,SMDPad,CuDef*
G36*
X130960691Y-122601053D02*
G01*
X130981926Y-122604203D01*
X131002750Y-122609419D01*
X131022962Y-122616651D01*
X131042368Y-122625830D01*
X131060781Y-122636866D01*
X131078024Y-122649654D01*
X131093930Y-122664070D01*
X131108346Y-122679976D01*
X131121134Y-122697219D01*
X131132170Y-122715632D01*
X131141349Y-122735038D01*
X131148581Y-122755250D01*
X131153797Y-122776074D01*
X131156947Y-122797309D01*
X131158000Y-122818750D01*
X131158000Y-123256250D01*
X131156947Y-123277691D01*
X131153797Y-123298926D01*
X131148581Y-123319750D01*
X131141349Y-123339962D01*
X131132170Y-123359368D01*
X131121134Y-123377781D01*
X131108346Y-123395024D01*
X131093930Y-123410930D01*
X131078024Y-123425346D01*
X131060781Y-123438134D01*
X131042368Y-123449170D01*
X131022962Y-123458349D01*
X131002750Y-123465581D01*
X130981926Y-123470797D01*
X130960691Y-123473947D01*
X130939250Y-123475000D01*
X130426750Y-123475000D01*
X130405309Y-123473947D01*
X130384074Y-123470797D01*
X130363250Y-123465581D01*
X130343038Y-123458349D01*
X130323632Y-123449170D01*
X130305219Y-123438134D01*
X130287976Y-123425346D01*
X130272070Y-123410930D01*
X130257654Y-123395024D01*
X130244866Y-123377781D01*
X130233830Y-123359368D01*
X130224651Y-123339962D01*
X130217419Y-123319750D01*
X130212203Y-123298926D01*
X130209053Y-123277691D01*
X130208000Y-123256250D01*
X130208000Y-122818750D01*
X130209053Y-122797309D01*
X130212203Y-122776074D01*
X130217419Y-122755250D01*
X130224651Y-122735038D01*
X130233830Y-122715632D01*
X130244866Y-122697219D01*
X130257654Y-122679976D01*
X130272070Y-122664070D01*
X130287976Y-122649654D01*
X130305219Y-122636866D01*
X130323632Y-122625830D01*
X130343038Y-122616651D01*
X130363250Y-122609419D01*
X130384074Y-122604203D01*
X130405309Y-122601053D01*
X130426750Y-122600000D01*
X130939250Y-122600000D01*
X130960691Y-122601053D01*
G37*
G04 #@! TD.AperFunction*
D14*
X133540000Y-106680000D03*
X129540000Y-106680000D03*
D15*
X128016000Y-125095000D03*
X131064000Y-129540000D03*
X128270000Y-129286000D03*
X133604000Y-128270000D03*
X135890000Y-130556000D03*
X134620000Y-132842000D03*
X139954000Y-122428000D03*
X141224000Y-127000000D03*
X143510000Y-126238000D03*
X141224000Y-129286000D03*
X143764000Y-129286000D03*
X138176000Y-128524000D03*
X128778000Y-113538000D03*
X125730000Y-113538000D03*
X125730000Y-110744000D03*
X128524000Y-110998000D03*
X134620000Y-107950000D03*
X138430000Y-107950000D03*
X137668000Y-110998000D03*
X132588000Y-110998000D03*
X138176000Y-104648000D03*
X144780000Y-104648000D03*
X144780000Y-109220000D03*
X144780000Y-114300000D03*
X144780000Y-119380000D03*
X144780000Y-134620000D03*
X139700000Y-134620000D03*
X132080000Y-134620000D03*
X124460000Y-134620000D03*
X124460000Y-127000000D03*
X124460000Y-119380000D03*
X137795000Y-116840000D03*
X133985000Y-114935000D03*
X142875000Y-122555000D03*
X138239500Y-124777500D03*
X130683000Y-125984000D03*
X142748000Y-109220000D03*
X125476000Y-104648000D03*
X134620000Y-104648000D03*
X131572000Y-120904000D03*
X134620000Y-123952000D03*
X136652000Y-127000000D03*
X131064000Y-121920000D03*
D16*
X130683000Y-124612500D02*
X130683000Y-125984000D01*
D17*
X129540000Y-130980000D02*
X129540000Y-132080000D01*
D16*
X129540000Y-123705500D02*
X129540000Y-130980000D01*
X130208000Y-123037500D02*
X129540000Y-123705500D01*
X130683000Y-123037500D02*
X130208000Y-123037500D01*
X130683000Y-123037500D02*
X130683000Y-122301000D01*
X130683000Y-122301000D02*
X131064000Y-121920000D01*
D18*
X133540000Y-106680000D02*
X139700000Y-106680000D01*
X127782000Y-106680000D02*
X129540000Y-106680000D01*
X127335001Y-107126999D02*
X127782000Y-106680000D01*
X127335001Y-116280001D02*
X127335001Y-107126999D01*
X140785001Y-111982001D02*
X140785001Y-113740001D01*
X140785001Y-109492999D02*
X140785001Y-111982001D01*
X142240000Y-108038000D02*
X140785001Y-109492999D01*
X142240000Y-106680000D02*
X142240000Y-108038000D01*
D16*
G36*
X145390001Y-135230000D02*
G01*
X123850000Y-135230000D01*
X123850000Y-132436891D01*
X125558519Y-132436891D01*
X125655843Y-132711252D01*
X125804822Y-132961355D01*
X125999731Y-133177588D01*
X126233080Y-133351641D01*
X126495901Y-133476825D01*
X126643110Y-133521476D01*
X126873000Y-133400155D01*
X126873000Y-132207000D01*
X125679186Y-132207000D01*
X125558519Y-132436891D01*
X123850000Y-132436891D01*
X123850000Y-131723109D01*
X125558519Y-131723109D01*
X125679186Y-131953000D01*
X126873000Y-131953000D01*
X126873000Y-130759845D01*
X127127000Y-130759845D01*
X127127000Y-131953000D01*
X127147000Y-131953000D01*
X127147000Y-132207000D01*
X127127000Y-132207000D01*
X127127000Y-133400155D01*
X127356890Y-133521476D01*
X127504099Y-133476825D01*
X127766920Y-133351641D01*
X128000269Y-133177588D01*
X128076034Y-133093534D01*
X128100498Y-133174180D01*
X128159463Y-133284494D01*
X128238815Y-133381185D01*
X128335506Y-133460537D01*
X128445820Y-133519502D01*
X128565518Y-133555812D01*
X128690000Y-133568072D01*
X130390000Y-133568072D01*
X130514482Y-133555812D01*
X130634180Y-133519502D01*
X130744494Y-133460537D01*
X130841185Y-133381185D01*
X130920537Y-133284494D01*
X130979502Y-133174180D01*
X131015812Y-133054482D01*
X131028072Y-132930000D01*
X131028072Y-131933740D01*
X138215000Y-131933740D01*
X138215000Y-132226260D01*
X138272068Y-132513158D01*
X138384010Y-132783411D01*
X138546525Y-133026632D01*
X138753368Y-133233475D01*
X138996589Y-133395990D01*
X139266842Y-133507932D01*
X139553740Y-133565000D01*
X139846260Y-133565000D01*
X140133158Y-133507932D01*
X140403411Y-133395990D01*
X140646632Y-133233475D01*
X140778487Y-133101620D01*
X140800498Y-133174180D01*
X140859463Y-133284494D01*
X140938815Y-133381185D01*
X141035506Y-133460537D01*
X141145820Y-133519502D01*
X141265518Y-133555812D01*
X141390000Y-133568072D01*
X143090000Y-133568072D01*
X143214482Y-133555812D01*
X143334180Y-133519502D01*
X143444494Y-133460537D01*
X143541185Y-133381185D01*
X143620537Y-133284494D01*
X143679502Y-133174180D01*
X143715812Y-133054482D01*
X143728072Y-132930000D01*
X143728072Y-131230000D01*
X143715812Y-131105518D01*
X143679502Y-130985820D01*
X143620537Y-130875506D01*
X143541185Y-130778815D01*
X143444494Y-130699463D01*
X143334180Y-130640498D01*
X143214482Y-130604188D01*
X143090000Y-130591928D01*
X141390000Y-130591928D01*
X141265518Y-130604188D01*
X141145820Y-130640498D01*
X141035506Y-130699463D01*
X140938815Y-130778815D01*
X140859463Y-130875506D01*
X140800498Y-130985820D01*
X140778487Y-131058380D01*
X140646632Y-130926525D01*
X140403411Y-130764010D01*
X140133158Y-130652068D01*
X139846260Y-130595000D01*
X139553740Y-130595000D01*
X139266842Y-130652068D01*
X138996589Y-130764010D01*
X138753368Y-130926525D01*
X138546525Y-131133368D01*
X138384010Y-131376589D01*
X138272068Y-131646842D01*
X138215000Y-131933740D01*
X131028072Y-131933740D01*
X131028072Y-131230000D01*
X131015812Y-131105518D01*
X130979502Y-130985820D01*
X130920537Y-130875506D01*
X130841185Y-130778815D01*
X130744494Y-130699463D01*
X130634180Y-130640498D01*
X130514482Y-130604188D01*
X130390000Y-130591928D01*
X130302000Y-130591928D01*
X130302000Y-125686546D01*
X130397250Y-125685000D01*
X130556000Y-125526250D01*
X130556000Y-124739500D01*
X130810000Y-124739500D01*
X130810000Y-125526250D01*
X130968750Y-125685000D01*
X131158000Y-125688072D01*
X131282482Y-125675812D01*
X131402180Y-125639502D01*
X131512494Y-125580537D01*
X131609185Y-125501185D01*
X131688537Y-125404494D01*
X131747502Y-125294180D01*
X131783812Y-125174482D01*
X131796072Y-125050000D01*
X131793000Y-124898250D01*
X131634250Y-124739500D01*
X130810000Y-124739500D01*
X130556000Y-124739500D01*
X130536000Y-124739500D01*
X130536000Y-124485500D01*
X130556000Y-124485500D01*
X130556000Y-124465500D01*
X130810000Y-124465500D01*
X130810000Y-124485500D01*
X131634250Y-124485500D01*
X131793000Y-124326750D01*
X131796072Y-124175000D01*
X131783812Y-124050518D01*
X131747502Y-123930820D01*
X131688537Y-123820506D01*
X131633900Y-123753930D01*
X131651671Y-123732275D01*
X131730850Y-123584142D01*
X131779608Y-123423408D01*
X131796072Y-123256250D01*
X131796072Y-122818750D01*
X131781088Y-122666623D01*
X131867937Y-122579774D01*
X131981205Y-122410256D01*
X132059226Y-122221898D01*
X132099000Y-122021939D01*
X132099000Y-121818061D01*
X132059226Y-121618102D01*
X131981205Y-121429744D01*
X131867937Y-121260226D01*
X131723774Y-121116063D01*
X131554256Y-121002795D01*
X131365898Y-120924774D01*
X131165939Y-120885000D01*
X130962061Y-120885000D01*
X130762102Y-120924774D01*
X130573744Y-121002795D01*
X130404226Y-121116063D01*
X130260063Y-121260226D01*
X130146795Y-121429744D01*
X130068774Y-121618102D01*
X130029000Y-121818061D01*
X130029000Y-121908077D01*
X130022627Y-121920001D01*
X129975599Y-122007985D01*
X129944122Y-122111748D01*
X129820885Y-122212885D01*
X129714329Y-122342725D01*
X129635150Y-122490858D01*
X129616922Y-122550948D01*
X129027654Y-123140216D01*
X128998578Y-123164078D01*
X128942983Y-123231822D01*
X128903355Y-123280108D01*
X128876413Y-123330514D01*
X128832598Y-123412486D01*
X128789026Y-123556123D01*
X128780326Y-123644463D01*
X128774314Y-123705500D01*
X128778000Y-123742923D01*
X128778001Y-130591928D01*
X128690000Y-130591928D01*
X128565518Y-130604188D01*
X128445820Y-130640498D01*
X128335506Y-130699463D01*
X128238815Y-130778815D01*
X128159463Y-130875506D01*
X128100498Y-130985820D01*
X128076034Y-131066466D01*
X128000269Y-130982412D01*
X127766920Y-130808359D01*
X127504099Y-130683175D01*
X127356890Y-130638524D01*
X127127000Y-130759845D01*
X126873000Y-130759845D01*
X126643110Y-130638524D01*
X126495901Y-130683175D01*
X126233080Y-130808359D01*
X125999731Y-130982412D01*
X125804822Y-131198645D01*
X125655843Y-131448748D01*
X125558519Y-131723109D01*
X123850000Y-131723109D01*
X123850000Y-115030001D01*
X125421929Y-115030001D01*
X125421929Y-117530001D01*
X125434189Y-117654483D01*
X125470499Y-117774181D01*
X125529464Y-117884495D01*
X125608816Y-117981186D01*
X125705507Y-118060538D01*
X125815821Y-118119503D01*
X125935519Y-118155813D01*
X126060001Y-118168073D01*
X128277686Y-118168073D01*
X128187069Y-118386843D01*
X128130001Y-118673741D01*
X128130001Y-118966261D01*
X128187069Y-119253159D01*
X128299011Y-119523412D01*
X128461526Y-119766633D01*
X128668369Y-119973476D01*
X128911590Y-120135991D01*
X129181843Y-120247933D01*
X129468741Y-120305001D01*
X129761261Y-120305001D01*
X130048159Y-120247933D01*
X130318412Y-120135991D01*
X130561633Y-119973476D01*
X130768476Y-119766633D01*
X130930991Y-119523412D01*
X131042933Y-119253159D01*
X131100001Y-118966261D01*
X131100001Y-118673741D01*
X131058480Y-118465001D01*
X131100205Y-118465001D01*
X131522342Y-118381032D01*
X131919986Y-118216323D01*
X132160412Y-118055676D01*
X132060001Y-118560476D01*
X132060001Y-119079526D01*
X132161262Y-119588602D01*
X132359894Y-120068142D01*
X132648263Y-120499716D01*
X133015286Y-120866739D01*
X133446860Y-121155108D01*
X133926400Y-121353740D01*
X134435476Y-121455001D01*
X134954526Y-121455001D01*
X135463602Y-121353740D01*
X135943142Y-121155108D01*
X136374716Y-120866739D01*
X136741739Y-120499716D01*
X137030108Y-120068142D01*
X137228740Y-119588602D01*
X137330001Y-119079526D01*
X137330001Y-118673741D01*
X138290001Y-118673741D01*
X138290001Y-118966261D01*
X138347069Y-119253159D01*
X138459011Y-119523412D01*
X138621526Y-119766633D01*
X138828369Y-119973476D01*
X139071590Y-120135991D01*
X139341843Y-120247933D01*
X139628741Y-120305001D01*
X139921261Y-120305001D01*
X140208159Y-120247933D01*
X140478412Y-120135991D01*
X140721633Y-119973476D01*
X140928476Y-119766633D01*
X141090991Y-119523412D01*
X141202933Y-119253159D01*
X141260001Y-118966261D01*
X141260001Y-118673741D01*
X141202933Y-118386843D01*
X141090991Y-118116590D01*
X140928476Y-117873369D01*
X140721633Y-117666526D01*
X140478412Y-117504011D01*
X140208159Y-117392069D01*
X139921261Y-117335001D01*
X139628741Y-117335001D01*
X139341843Y-117392069D01*
X139071590Y-117504011D01*
X138828369Y-117666526D01*
X138621526Y-117873369D01*
X138459011Y-118116590D01*
X138347069Y-118386843D01*
X138290001Y-118673741D01*
X137330001Y-118673741D01*
X137330001Y-118560476D01*
X137228740Y-118051400D01*
X137030108Y-117571860D01*
X136741739Y-117140286D01*
X136374716Y-116773263D01*
X135943142Y-116484894D01*
X135463602Y-116286262D01*
X134954526Y-116185001D01*
X134435476Y-116185001D01*
X133926400Y-116286262D01*
X133446860Y-116484894D01*
X133015286Y-116773263D01*
X133014544Y-116774005D01*
X133070001Y-116495205D01*
X133070001Y-116064797D01*
X132986032Y-115642660D01*
X132821323Y-115245016D01*
X132582201Y-114887145D01*
X132277857Y-114582801D01*
X131919986Y-114343679D01*
X131522342Y-114178970D01*
X131100205Y-114095001D01*
X130669797Y-114095001D01*
X130247660Y-114178970D01*
X129850016Y-114343679D01*
X129492145Y-114582801D01*
X129220362Y-114854584D01*
X129199503Y-114785821D01*
X129140538Y-114675507D01*
X129061186Y-114578816D01*
X128964495Y-114499464D01*
X128854181Y-114440499D01*
X128734483Y-114404189D01*
X128610001Y-114391929D01*
X128224001Y-114391929D01*
X128224001Y-108211572D01*
X128290000Y-108218072D01*
X130790000Y-108218072D01*
X130914482Y-108205812D01*
X131034180Y-108169502D01*
X131144494Y-108110537D01*
X131241185Y-108031185D01*
X131320537Y-107934494D01*
X131379502Y-107824180D01*
X131415812Y-107704482D01*
X131428072Y-107580000D01*
X131428072Y-105780000D01*
X131651928Y-105780000D01*
X131651928Y-107580000D01*
X131664188Y-107704482D01*
X131700498Y-107824180D01*
X131759463Y-107934494D01*
X131838815Y-108031185D01*
X131935506Y-108110537D01*
X132045820Y-108169502D01*
X132165518Y-108205812D01*
X132290000Y-108218072D01*
X134790000Y-108218072D01*
X134914482Y-108205812D01*
X135034180Y-108169502D01*
X135144494Y-108110537D01*
X135241185Y-108031185D01*
X135320537Y-107934494D01*
X135379502Y-107824180D01*
X135415812Y-107704482D01*
X135428072Y-107580000D01*
X135428072Y-107569000D01*
X138508017Y-107569000D01*
X138546525Y-107626632D01*
X138753368Y-107833475D01*
X138996589Y-107995990D01*
X139266842Y-108107932D01*
X139553740Y-108165000D01*
X139846260Y-108165000D01*
X140133158Y-108107932D01*
X140403411Y-107995990D01*
X140646632Y-107833475D01*
X140778487Y-107701620D01*
X140800498Y-107774180D01*
X140859463Y-107884494D01*
X140938815Y-107981185D01*
X140994160Y-108026605D01*
X140187265Y-108833500D01*
X140153342Y-108861340D01*
X140042248Y-108996709D01*
X139959698Y-109151149D01*
X139908865Y-109318726D01*
X139896001Y-109449333D01*
X139896001Y-109449339D01*
X139891701Y-109492999D01*
X139896001Y-109536659D01*
X139896002Y-111851929D01*
X139510001Y-111851929D01*
X139385519Y-111864189D01*
X139265821Y-111900499D01*
X139155507Y-111959464D01*
X139058816Y-112038816D01*
X138979464Y-112135507D01*
X138920499Y-112245821D01*
X138899640Y-112314584D01*
X138627857Y-112042801D01*
X138269986Y-111803679D01*
X137872342Y-111638970D01*
X137450205Y-111555001D01*
X137019797Y-111555001D01*
X136597660Y-111638970D01*
X136200016Y-111803679D01*
X135842145Y-112042801D01*
X135537801Y-112347145D01*
X135298679Y-112705016D01*
X135133970Y-113102660D01*
X135050001Y-113524797D01*
X135050001Y-113955205D01*
X135133970Y-114377342D01*
X135298679Y-114774986D01*
X135537801Y-115132857D01*
X135842145Y-115437201D01*
X136200016Y-115676323D01*
X136597660Y-115841032D01*
X137019797Y-115925001D01*
X137450205Y-115925001D01*
X137872342Y-115841032D01*
X138269986Y-115676323D01*
X138627857Y-115437201D01*
X138899640Y-115165418D01*
X138920499Y-115234181D01*
X138979464Y-115344495D01*
X139058816Y-115441186D01*
X139155507Y-115520538D01*
X139265821Y-115579503D01*
X139385519Y-115615813D01*
X139510001Y-115628073D01*
X142060001Y-115628073D01*
X142184483Y-115615813D01*
X142304181Y-115579503D01*
X142414495Y-115520538D01*
X142511186Y-115441186D01*
X142590538Y-115344495D01*
X142649503Y-115234181D01*
X142685813Y-115114483D01*
X142698073Y-114990001D01*
X142698073Y-112490001D01*
X142685813Y-112365519D01*
X142649503Y-112245821D01*
X142590538Y-112135507D01*
X142511186Y-112038816D01*
X142414495Y-111959464D01*
X142304181Y-111900499D01*
X142184483Y-111864189D01*
X142060001Y-111851929D01*
X141674001Y-111851929D01*
X141674001Y-109861234D01*
X142837736Y-108697499D01*
X142871659Y-108669659D01*
X142982753Y-108534291D01*
X143065303Y-108379851D01*
X143085296Y-108313942D01*
X143116136Y-108212276D01*
X143120788Y-108165040D01*
X143214482Y-108155812D01*
X143334180Y-108119502D01*
X143444494Y-108060537D01*
X143541185Y-107981185D01*
X143620537Y-107884494D01*
X143679502Y-107774180D01*
X143715812Y-107654482D01*
X143728072Y-107530000D01*
X143728072Y-105830000D01*
X143715812Y-105705518D01*
X143679502Y-105585820D01*
X143620537Y-105475506D01*
X143541185Y-105378815D01*
X143444494Y-105299463D01*
X143334180Y-105240498D01*
X143214482Y-105204188D01*
X143090000Y-105191928D01*
X141390000Y-105191928D01*
X141265518Y-105204188D01*
X141145820Y-105240498D01*
X141035506Y-105299463D01*
X140938815Y-105378815D01*
X140859463Y-105475506D01*
X140800498Y-105585820D01*
X140778487Y-105658380D01*
X140646632Y-105526525D01*
X140403411Y-105364010D01*
X140133158Y-105252068D01*
X139846260Y-105195000D01*
X139553740Y-105195000D01*
X139266842Y-105252068D01*
X138996589Y-105364010D01*
X138753368Y-105526525D01*
X138546525Y-105733368D01*
X138508017Y-105791000D01*
X135428072Y-105791000D01*
X135428072Y-105780000D01*
X135415812Y-105655518D01*
X135379502Y-105535820D01*
X135320537Y-105425506D01*
X135241185Y-105328815D01*
X135144494Y-105249463D01*
X135034180Y-105190498D01*
X134914482Y-105154188D01*
X134790000Y-105141928D01*
X132290000Y-105141928D01*
X132165518Y-105154188D01*
X132045820Y-105190498D01*
X131935506Y-105249463D01*
X131838815Y-105328815D01*
X131759463Y-105425506D01*
X131700498Y-105535820D01*
X131664188Y-105655518D01*
X131651928Y-105780000D01*
X131428072Y-105780000D01*
X131415812Y-105655518D01*
X131379502Y-105535820D01*
X131320537Y-105425506D01*
X131241185Y-105328815D01*
X131144494Y-105249463D01*
X131034180Y-105190498D01*
X130914482Y-105154188D01*
X130790000Y-105141928D01*
X128290000Y-105141928D01*
X128165518Y-105154188D01*
X128045820Y-105190498D01*
X127935506Y-105249463D01*
X127838815Y-105328815D01*
X127759463Y-105425506D01*
X127700498Y-105535820D01*
X127664188Y-105655518D01*
X127651928Y-105780000D01*
X127651928Y-105799510D01*
X127626073Y-105802057D01*
X127607725Y-105803864D01*
X127534758Y-105825998D01*
X127440149Y-105854697D01*
X127285709Y-105937247D01*
X127150341Y-106048341D01*
X127122501Y-106082264D01*
X126737260Y-106467505D01*
X126703343Y-106495340D01*
X126675508Y-106529257D01*
X126675506Y-106529259D01*
X126592249Y-106630708D01*
X126509699Y-106785147D01*
X126458865Y-106952725D01*
X126441701Y-107126999D01*
X126446002Y-107170669D01*
X126446001Y-114391929D01*
X126060001Y-114391929D01*
X125935519Y-114404189D01*
X125815821Y-114440499D01*
X125705507Y-114499464D01*
X125608816Y-114578816D01*
X125529464Y-114675507D01*
X125470499Y-114785821D01*
X125434189Y-114905519D01*
X125421929Y-115030001D01*
X123850000Y-115030001D01*
X123850000Y-103530000D01*
X145390000Y-103530000D01*
X145390001Y-135230000D01*
G37*
X145390001Y-135230000D02*
X123850000Y-135230000D01*
X123850000Y-132436891D01*
X125558519Y-132436891D01*
X125655843Y-132711252D01*
X125804822Y-132961355D01*
X125999731Y-133177588D01*
X126233080Y-133351641D01*
X126495901Y-133476825D01*
X126643110Y-133521476D01*
X126873000Y-133400155D01*
X126873000Y-132207000D01*
X125679186Y-132207000D01*
X125558519Y-132436891D01*
X123850000Y-132436891D01*
X123850000Y-131723109D01*
X125558519Y-131723109D01*
X125679186Y-131953000D01*
X126873000Y-131953000D01*
X126873000Y-130759845D01*
X127127000Y-130759845D01*
X127127000Y-131953000D01*
X127147000Y-131953000D01*
X127147000Y-132207000D01*
X127127000Y-132207000D01*
X127127000Y-133400155D01*
X127356890Y-133521476D01*
X127504099Y-133476825D01*
X127766920Y-133351641D01*
X128000269Y-133177588D01*
X128076034Y-133093534D01*
X128100498Y-133174180D01*
X128159463Y-133284494D01*
X128238815Y-133381185D01*
X128335506Y-133460537D01*
X128445820Y-133519502D01*
X128565518Y-133555812D01*
X128690000Y-133568072D01*
X130390000Y-133568072D01*
X130514482Y-133555812D01*
X130634180Y-133519502D01*
X130744494Y-133460537D01*
X130841185Y-133381185D01*
X130920537Y-133284494D01*
X130979502Y-133174180D01*
X131015812Y-133054482D01*
X131028072Y-132930000D01*
X131028072Y-131933740D01*
X138215000Y-131933740D01*
X138215000Y-132226260D01*
X138272068Y-132513158D01*
X138384010Y-132783411D01*
X138546525Y-133026632D01*
X138753368Y-133233475D01*
X138996589Y-133395990D01*
X139266842Y-133507932D01*
X139553740Y-133565000D01*
X139846260Y-133565000D01*
X140133158Y-133507932D01*
X140403411Y-133395990D01*
X140646632Y-133233475D01*
X140778487Y-133101620D01*
X140800498Y-133174180D01*
X140859463Y-133284494D01*
X140938815Y-133381185D01*
X141035506Y-133460537D01*
X141145820Y-133519502D01*
X141265518Y-133555812D01*
X141390000Y-133568072D01*
X143090000Y-133568072D01*
X143214482Y-133555812D01*
X143334180Y-133519502D01*
X143444494Y-133460537D01*
X143541185Y-133381185D01*
X143620537Y-133284494D01*
X143679502Y-133174180D01*
X143715812Y-133054482D01*
X143728072Y-132930000D01*
X143728072Y-131230000D01*
X143715812Y-131105518D01*
X143679502Y-130985820D01*
X143620537Y-130875506D01*
X143541185Y-130778815D01*
X143444494Y-130699463D01*
X143334180Y-130640498D01*
X143214482Y-130604188D01*
X143090000Y-130591928D01*
X141390000Y-130591928D01*
X141265518Y-130604188D01*
X141145820Y-130640498D01*
X141035506Y-130699463D01*
X140938815Y-130778815D01*
X140859463Y-130875506D01*
X140800498Y-130985820D01*
X140778487Y-131058380D01*
X140646632Y-130926525D01*
X140403411Y-130764010D01*
X140133158Y-130652068D01*
X139846260Y-130595000D01*
X139553740Y-130595000D01*
X139266842Y-130652068D01*
X138996589Y-130764010D01*
X138753368Y-130926525D01*
X138546525Y-131133368D01*
X138384010Y-131376589D01*
X138272068Y-131646842D01*
X138215000Y-131933740D01*
X131028072Y-131933740D01*
X131028072Y-131230000D01*
X131015812Y-131105518D01*
X130979502Y-130985820D01*
X130920537Y-130875506D01*
X130841185Y-130778815D01*
X130744494Y-130699463D01*
X130634180Y-130640498D01*
X130514482Y-130604188D01*
X130390000Y-130591928D01*
X130302000Y-130591928D01*
X130302000Y-125686546D01*
X130397250Y-125685000D01*
X130556000Y-125526250D01*
X130556000Y-124739500D01*
X130810000Y-124739500D01*
X130810000Y-125526250D01*
X130968750Y-125685000D01*
X131158000Y-125688072D01*
X131282482Y-125675812D01*
X131402180Y-125639502D01*
X131512494Y-125580537D01*
X131609185Y-125501185D01*
X131688537Y-125404494D01*
X131747502Y-125294180D01*
X131783812Y-125174482D01*
X131796072Y-125050000D01*
X131793000Y-124898250D01*
X131634250Y-124739500D01*
X130810000Y-124739500D01*
X130556000Y-124739500D01*
X130536000Y-124739500D01*
X130536000Y-124485500D01*
X130556000Y-124485500D01*
X130556000Y-124465500D01*
X130810000Y-124465500D01*
X130810000Y-124485500D01*
X131634250Y-124485500D01*
X131793000Y-124326750D01*
X131796072Y-124175000D01*
X131783812Y-124050518D01*
X131747502Y-123930820D01*
X131688537Y-123820506D01*
X131633900Y-123753930D01*
X131651671Y-123732275D01*
X131730850Y-123584142D01*
X131779608Y-123423408D01*
X131796072Y-123256250D01*
X131796072Y-122818750D01*
X131781088Y-122666623D01*
X131867937Y-122579774D01*
X131981205Y-122410256D01*
X132059226Y-122221898D01*
X132099000Y-122021939D01*
X132099000Y-121818061D01*
X132059226Y-121618102D01*
X131981205Y-121429744D01*
X131867937Y-121260226D01*
X131723774Y-121116063D01*
X131554256Y-121002795D01*
X131365898Y-120924774D01*
X131165939Y-120885000D01*
X130962061Y-120885000D01*
X130762102Y-120924774D01*
X130573744Y-121002795D01*
X130404226Y-121116063D01*
X130260063Y-121260226D01*
X130146795Y-121429744D01*
X130068774Y-121618102D01*
X130029000Y-121818061D01*
X130029000Y-121908077D01*
X130022627Y-121920001D01*
X129975599Y-122007985D01*
X129944122Y-122111748D01*
X129820885Y-122212885D01*
X129714329Y-122342725D01*
X129635150Y-122490858D01*
X129616922Y-122550948D01*
X129027654Y-123140216D01*
X128998578Y-123164078D01*
X128942983Y-123231822D01*
X128903355Y-123280108D01*
X128876413Y-123330514D01*
X128832598Y-123412486D01*
X128789026Y-123556123D01*
X128780326Y-123644463D01*
X128774314Y-123705500D01*
X128778000Y-123742923D01*
X128778001Y-130591928D01*
X128690000Y-130591928D01*
X128565518Y-130604188D01*
X128445820Y-130640498D01*
X128335506Y-130699463D01*
X128238815Y-130778815D01*
X128159463Y-130875506D01*
X128100498Y-130985820D01*
X128076034Y-131066466D01*
X128000269Y-130982412D01*
X127766920Y-130808359D01*
X127504099Y-130683175D01*
X127356890Y-130638524D01*
X127127000Y-130759845D01*
X126873000Y-130759845D01*
X126643110Y-130638524D01*
X126495901Y-130683175D01*
X126233080Y-130808359D01*
X125999731Y-130982412D01*
X125804822Y-131198645D01*
X125655843Y-131448748D01*
X125558519Y-131723109D01*
X123850000Y-131723109D01*
X123850000Y-115030001D01*
X125421929Y-115030001D01*
X125421929Y-117530001D01*
X125434189Y-117654483D01*
X125470499Y-117774181D01*
X125529464Y-117884495D01*
X125608816Y-117981186D01*
X125705507Y-118060538D01*
X125815821Y-118119503D01*
X125935519Y-118155813D01*
X126060001Y-118168073D01*
X128277686Y-118168073D01*
X128187069Y-118386843D01*
X128130001Y-118673741D01*
X128130001Y-118966261D01*
X128187069Y-119253159D01*
X128299011Y-119523412D01*
X128461526Y-119766633D01*
X128668369Y-119973476D01*
X128911590Y-120135991D01*
X129181843Y-120247933D01*
X129468741Y-120305001D01*
X129761261Y-120305001D01*
X130048159Y-120247933D01*
X130318412Y-120135991D01*
X130561633Y-119973476D01*
X130768476Y-119766633D01*
X130930991Y-119523412D01*
X131042933Y-119253159D01*
X131100001Y-118966261D01*
X131100001Y-118673741D01*
X131058480Y-118465001D01*
X131100205Y-118465001D01*
X131522342Y-118381032D01*
X131919986Y-118216323D01*
X132160412Y-118055676D01*
X132060001Y-118560476D01*
X132060001Y-119079526D01*
X132161262Y-119588602D01*
X132359894Y-120068142D01*
X132648263Y-120499716D01*
X133015286Y-120866739D01*
X133446860Y-121155108D01*
X133926400Y-121353740D01*
X134435476Y-121455001D01*
X134954526Y-121455001D01*
X135463602Y-121353740D01*
X135943142Y-121155108D01*
X136374716Y-120866739D01*
X136741739Y-120499716D01*
X137030108Y-120068142D01*
X137228740Y-119588602D01*
X137330001Y-119079526D01*
X137330001Y-118673741D01*
X138290001Y-118673741D01*
X138290001Y-118966261D01*
X138347069Y-119253159D01*
X138459011Y-119523412D01*
X138621526Y-119766633D01*
X138828369Y-119973476D01*
X139071590Y-120135991D01*
X139341843Y-120247933D01*
X139628741Y-120305001D01*
X139921261Y-120305001D01*
X140208159Y-120247933D01*
X140478412Y-120135991D01*
X140721633Y-119973476D01*
X140928476Y-119766633D01*
X141090991Y-119523412D01*
X141202933Y-119253159D01*
X141260001Y-118966261D01*
X141260001Y-118673741D01*
X141202933Y-118386843D01*
X141090991Y-118116590D01*
X140928476Y-117873369D01*
X140721633Y-117666526D01*
X140478412Y-117504011D01*
X140208159Y-117392069D01*
X139921261Y-117335001D01*
X139628741Y-117335001D01*
X139341843Y-117392069D01*
X139071590Y-117504011D01*
X138828369Y-117666526D01*
X138621526Y-117873369D01*
X138459011Y-118116590D01*
X138347069Y-118386843D01*
X138290001Y-118673741D01*
X137330001Y-118673741D01*
X137330001Y-118560476D01*
X137228740Y-118051400D01*
X137030108Y-117571860D01*
X136741739Y-117140286D01*
X136374716Y-116773263D01*
X135943142Y-116484894D01*
X135463602Y-116286262D01*
X134954526Y-116185001D01*
X134435476Y-116185001D01*
X133926400Y-116286262D01*
X133446860Y-116484894D01*
X133015286Y-116773263D01*
X133014544Y-116774005D01*
X133070001Y-116495205D01*
X133070001Y-116064797D01*
X132986032Y-115642660D01*
X132821323Y-115245016D01*
X132582201Y-114887145D01*
X132277857Y-114582801D01*
X131919986Y-114343679D01*
X131522342Y-114178970D01*
X131100205Y-114095001D01*
X130669797Y-114095001D01*
X130247660Y-114178970D01*
X129850016Y-114343679D01*
X129492145Y-114582801D01*
X129220362Y-114854584D01*
X129199503Y-114785821D01*
X129140538Y-114675507D01*
X129061186Y-114578816D01*
X128964495Y-114499464D01*
X128854181Y-114440499D01*
X128734483Y-114404189D01*
X128610001Y-114391929D01*
X128224001Y-114391929D01*
X128224001Y-108211572D01*
X128290000Y-108218072D01*
X130790000Y-108218072D01*
X130914482Y-108205812D01*
X131034180Y-108169502D01*
X131144494Y-108110537D01*
X131241185Y-108031185D01*
X131320537Y-107934494D01*
X131379502Y-107824180D01*
X131415812Y-107704482D01*
X131428072Y-107580000D01*
X131428072Y-105780000D01*
X131651928Y-105780000D01*
X131651928Y-107580000D01*
X131664188Y-107704482D01*
X131700498Y-107824180D01*
X131759463Y-107934494D01*
X131838815Y-108031185D01*
X131935506Y-108110537D01*
X132045820Y-108169502D01*
X132165518Y-108205812D01*
X132290000Y-108218072D01*
X134790000Y-108218072D01*
X134914482Y-108205812D01*
X135034180Y-108169502D01*
X135144494Y-108110537D01*
X135241185Y-108031185D01*
X135320537Y-107934494D01*
X135379502Y-107824180D01*
X135415812Y-107704482D01*
X135428072Y-107580000D01*
X135428072Y-107569000D01*
X138508017Y-107569000D01*
X138546525Y-107626632D01*
X138753368Y-107833475D01*
X138996589Y-107995990D01*
X139266842Y-108107932D01*
X139553740Y-108165000D01*
X139846260Y-108165000D01*
X140133158Y-108107932D01*
X140403411Y-107995990D01*
X140646632Y-107833475D01*
X140778487Y-107701620D01*
X140800498Y-107774180D01*
X140859463Y-107884494D01*
X140938815Y-107981185D01*
X140994160Y-108026605D01*
X140187265Y-108833500D01*
X140153342Y-108861340D01*
X140042248Y-108996709D01*
X139959698Y-109151149D01*
X139908865Y-109318726D01*
X139896001Y-109449333D01*
X139896001Y-109449339D01*
X139891701Y-109492999D01*
X139896001Y-109536659D01*
X139896002Y-111851929D01*
X139510001Y-111851929D01*
X139385519Y-111864189D01*
X139265821Y-111900499D01*
X139155507Y-111959464D01*
X139058816Y-112038816D01*
X138979464Y-112135507D01*
X138920499Y-112245821D01*
X138899640Y-112314584D01*
X138627857Y-112042801D01*
X138269986Y-111803679D01*
X137872342Y-111638970D01*
X137450205Y-111555001D01*
X137019797Y-111555001D01*
X136597660Y-111638970D01*
X136200016Y-111803679D01*
X135842145Y-112042801D01*
X135537801Y-112347145D01*
X135298679Y-112705016D01*
X135133970Y-113102660D01*
X135050001Y-113524797D01*
X135050001Y-113955205D01*
X135133970Y-114377342D01*
X135298679Y-114774986D01*
X135537801Y-115132857D01*
X135842145Y-115437201D01*
X136200016Y-115676323D01*
X136597660Y-115841032D01*
X137019797Y-115925001D01*
X137450205Y-115925001D01*
X137872342Y-115841032D01*
X138269986Y-115676323D01*
X138627857Y-115437201D01*
X138899640Y-115165418D01*
X138920499Y-115234181D01*
X138979464Y-115344495D01*
X139058816Y-115441186D01*
X139155507Y-115520538D01*
X139265821Y-115579503D01*
X139385519Y-115615813D01*
X139510001Y-115628073D01*
X142060001Y-115628073D01*
X142184483Y-115615813D01*
X142304181Y-115579503D01*
X142414495Y-115520538D01*
X142511186Y-115441186D01*
X142590538Y-115344495D01*
X142649503Y-115234181D01*
X142685813Y-115114483D01*
X142698073Y-114990001D01*
X142698073Y-112490001D01*
X142685813Y-112365519D01*
X142649503Y-112245821D01*
X142590538Y-112135507D01*
X142511186Y-112038816D01*
X142414495Y-111959464D01*
X142304181Y-111900499D01*
X142184483Y-111864189D01*
X142060001Y-111851929D01*
X141674001Y-111851929D01*
X141674001Y-109861234D01*
X142837736Y-108697499D01*
X142871659Y-108669659D01*
X142982753Y-108534291D01*
X143065303Y-108379851D01*
X143085296Y-108313942D01*
X143116136Y-108212276D01*
X143120788Y-108165040D01*
X143214482Y-108155812D01*
X143334180Y-108119502D01*
X143444494Y-108060537D01*
X143541185Y-107981185D01*
X143620537Y-107884494D01*
X143679502Y-107774180D01*
X143715812Y-107654482D01*
X143728072Y-107530000D01*
X143728072Y-105830000D01*
X143715812Y-105705518D01*
X143679502Y-105585820D01*
X143620537Y-105475506D01*
X143541185Y-105378815D01*
X143444494Y-105299463D01*
X143334180Y-105240498D01*
X143214482Y-105204188D01*
X143090000Y-105191928D01*
X141390000Y-105191928D01*
X141265518Y-105204188D01*
X141145820Y-105240498D01*
X141035506Y-105299463D01*
X140938815Y-105378815D01*
X140859463Y-105475506D01*
X140800498Y-105585820D01*
X140778487Y-105658380D01*
X140646632Y-105526525D01*
X140403411Y-105364010D01*
X140133158Y-105252068D01*
X139846260Y-105195000D01*
X139553740Y-105195000D01*
X139266842Y-105252068D01*
X138996589Y-105364010D01*
X138753368Y-105526525D01*
X138546525Y-105733368D01*
X138508017Y-105791000D01*
X135428072Y-105791000D01*
X135428072Y-105780000D01*
X135415812Y-105655518D01*
X135379502Y-105535820D01*
X135320537Y-105425506D01*
X135241185Y-105328815D01*
X135144494Y-105249463D01*
X135034180Y-105190498D01*
X134914482Y-105154188D01*
X134790000Y-105141928D01*
X132290000Y-105141928D01*
X132165518Y-105154188D01*
X132045820Y-105190498D01*
X131935506Y-105249463D01*
X131838815Y-105328815D01*
X131759463Y-105425506D01*
X131700498Y-105535820D01*
X131664188Y-105655518D01*
X131651928Y-105780000D01*
X131428072Y-105780000D01*
X131415812Y-105655518D01*
X131379502Y-105535820D01*
X131320537Y-105425506D01*
X131241185Y-105328815D01*
X131144494Y-105249463D01*
X131034180Y-105190498D01*
X130914482Y-105154188D01*
X130790000Y-105141928D01*
X128290000Y-105141928D01*
X128165518Y-105154188D01*
X128045820Y-105190498D01*
X127935506Y-105249463D01*
X127838815Y-105328815D01*
X127759463Y-105425506D01*
X127700498Y-105535820D01*
X127664188Y-105655518D01*
X127651928Y-105780000D01*
X127651928Y-105799510D01*
X127626073Y-105802057D01*
X127607725Y-105803864D01*
X127534758Y-105825998D01*
X127440149Y-105854697D01*
X127285709Y-105937247D01*
X127150341Y-106048341D01*
X127122501Y-106082264D01*
X126737260Y-106467505D01*
X126703343Y-106495340D01*
X126675508Y-106529257D01*
X126675506Y-106529259D01*
X126592249Y-106630708D01*
X126509699Y-106785147D01*
X126458865Y-106952725D01*
X126441701Y-107126999D01*
X126446002Y-107170669D01*
X126446001Y-114391929D01*
X126060001Y-114391929D01*
X125935519Y-114404189D01*
X125815821Y-114440499D01*
X125705507Y-114499464D01*
X125608816Y-114578816D01*
X125529464Y-114675507D01*
X125470499Y-114785821D01*
X125434189Y-114905519D01*
X125421929Y-115030001D01*
X123850000Y-115030001D01*
X123850000Y-103530000D01*
X145390000Y-103530000D01*
X145390001Y-135230000D01*
M02*
