G04 #@! TF.GenerationSoftware,KiCad,Pcbnew,5.1.5*
G04 #@! TF.CreationDate,2020-02-15T20:36:58-05:00*
G04 #@! TF.ProjectId,mx,6d782e6b-6963-4616-945f-706362585858,B*
G04 #@! TF.SameCoordinates,Original*
G04 #@! TF.FileFunction,Soldermask,Bot*
G04 #@! TF.FilePolarity,Negative*
%FSLAX46Y46*%
G04 Gerber Fmt 4.6, Leading zero omitted, Abs format (unit mm)*
G04 Created by KiCad (PCBNEW 5.1.5) date 2020-02-15 20:36:58*
%MOMM*%
%LPD*%
G04 APERTURE LIST*
%ADD10C,0.100000*%
G04 APERTURE END LIST*
D10*
G36*
X130441000Y-132981000D02*
G01*
X128639000Y-132981000D01*
X128639000Y-131179000D01*
X130441000Y-131179000D01*
X130441000Y-132981000D01*
G37*
G36*
X127113512Y-131183927D02*
G01*
X127262812Y-131213624D01*
X127426784Y-131281544D01*
X127574354Y-131380147D01*
X127699853Y-131505646D01*
X127798456Y-131653216D01*
X127866376Y-131817188D01*
X127901000Y-131991259D01*
X127901000Y-132168741D01*
X127866376Y-132342812D01*
X127798456Y-132506784D01*
X127699853Y-132654354D01*
X127574354Y-132779853D01*
X127426784Y-132878456D01*
X127262812Y-132946376D01*
X127113512Y-132976073D01*
X127088742Y-132981000D01*
X126911258Y-132981000D01*
X126886488Y-132976073D01*
X126737188Y-132946376D01*
X126573216Y-132878456D01*
X126425646Y-132779853D01*
X126300147Y-132654354D01*
X126201544Y-132506784D01*
X126133624Y-132342812D01*
X126099000Y-132168741D01*
X126099000Y-131991259D01*
X126133624Y-131817188D01*
X126201544Y-131653216D01*
X126300147Y-131505646D01*
X126425646Y-131380147D01*
X126573216Y-131281544D01*
X126737188Y-131213624D01*
X126886488Y-131183927D01*
X126911258Y-131179000D01*
X127088742Y-131179000D01*
X127113512Y-131183927D01*
G37*
G36*
X143141000Y-132981000D02*
G01*
X141339000Y-132981000D01*
X141339000Y-131179000D01*
X143141000Y-131179000D01*
X143141000Y-132981000D01*
G37*
G36*
X139813512Y-131183927D02*
G01*
X139962812Y-131213624D01*
X140126784Y-131281544D01*
X140274354Y-131380147D01*
X140399853Y-131505646D01*
X140498456Y-131653216D01*
X140566376Y-131817188D01*
X140601000Y-131991259D01*
X140601000Y-132168741D01*
X140566376Y-132342812D01*
X140498456Y-132506784D01*
X140399853Y-132654354D01*
X140274354Y-132779853D01*
X140126784Y-132878456D01*
X139962812Y-132946376D01*
X139813512Y-132976073D01*
X139788742Y-132981000D01*
X139611258Y-132981000D01*
X139586488Y-132976073D01*
X139437188Y-132946376D01*
X139273216Y-132878456D01*
X139125646Y-132779853D01*
X139000147Y-132654354D01*
X138901544Y-132506784D01*
X138833624Y-132342812D01*
X138799000Y-132168741D01*
X138799000Y-131991259D01*
X138833624Y-131817188D01*
X138901544Y-131653216D01*
X139000147Y-131505646D01*
X139125646Y-131380147D01*
X139273216Y-131281544D01*
X139437188Y-131213624D01*
X139586488Y-131183927D01*
X139611258Y-131179000D01*
X139788742Y-131179000D01*
X139813512Y-131183927D01*
G37*
G36*
X131062591Y-124128085D02*
G01*
X131096569Y-124138393D01*
X131127890Y-124155134D01*
X131155339Y-124177661D01*
X131177866Y-124205110D01*
X131194607Y-124236431D01*
X131204915Y-124270409D01*
X131209000Y-124311890D01*
X131209000Y-124913110D01*
X131204915Y-124954591D01*
X131194607Y-124988569D01*
X131177866Y-125019890D01*
X131155339Y-125047339D01*
X131127890Y-125069866D01*
X131096569Y-125086607D01*
X131062591Y-125096915D01*
X131021110Y-125101000D01*
X130344890Y-125101000D01*
X130303409Y-125096915D01*
X130269431Y-125086607D01*
X130238110Y-125069866D01*
X130210661Y-125047339D01*
X130188134Y-125019890D01*
X130171393Y-124988569D01*
X130161085Y-124954591D01*
X130157000Y-124913110D01*
X130157000Y-124311890D01*
X130161085Y-124270409D01*
X130171393Y-124236431D01*
X130188134Y-124205110D01*
X130210661Y-124177661D01*
X130238110Y-124155134D01*
X130269431Y-124138393D01*
X130303409Y-124128085D01*
X130344890Y-124124000D01*
X131021110Y-124124000D01*
X131062591Y-124128085D01*
G37*
G36*
X131062591Y-122553085D02*
G01*
X131096569Y-122563393D01*
X131127890Y-122580134D01*
X131155339Y-122602661D01*
X131177866Y-122630110D01*
X131194607Y-122661431D01*
X131204915Y-122695409D01*
X131209000Y-122736890D01*
X131209000Y-123338110D01*
X131204915Y-123379591D01*
X131194607Y-123413569D01*
X131177866Y-123444890D01*
X131155339Y-123472339D01*
X131127890Y-123494866D01*
X131096569Y-123511607D01*
X131062591Y-123521915D01*
X131021110Y-123526000D01*
X130344890Y-123526000D01*
X130303409Y-123521915D01*
X130269431Y-123511607D01*
X130238110Y-123494866D01*
X130210661Y-123472339D01*
X130188134Y-123444890D01*
X130171393Y-123413569D01*
X130161085Y-123379591D01*
X130157000Y-123338110D01*
X130157000Y-122736890D01*
X130161085Y-122695409D01*
X130171393Y-122661431D01*
X130188134Y-122630110D01*
X130210661Y-122602661D01*
X130238110Y-122580134D01*
X130269431Y-122563393D01*
X130303409Y-122553085D01*
X130344890Y-122549000D01*
X131021110Y-122549000D01*
X131062591Y-122553085D01*
G37*
G36*
X135293255Y-116847819D02*
G01*
X135666512Y-117002427D01*
X135666514Y-117002428D01*
X136002437Y-117226885D01*
X136288117Y-117512565D01*
X136493189Y-117819476D01*
X136512575Y-117848490D01*
X136667183Y-118221747D01*
X136746001Y-118617994D01*
X136746001Y-119022008D01*
X136667183Y-119418255D01*
X136512575Y-119791512D01*
X136512574Y-119791514D01*
X136288117Y-120127437D01*
X136002437Y-120413117D01*
X135666514Y-120637574D01*
X135666513Y-120637575D01*
X135666512Y-120637575D01*
X135293255Y-120792183D01*
X134897008Y-120871001D01*
X134492994Y-120871001D01*
X134096747Y-120792183D01*
X133723490Y-120637575D01*
X133723489Y-120637575D01*
X133723488Y-120637574D01*
X133387565Y-120413117D01*
X133101885Y-120127437D01*
X132877428Y-119791514D01*
X132877427Y-119791512D01*
X132722819Y-119418255D01*
X132644001Y-119022008D01*
X132644001Y-118617994D01*
X132722819Y-118221747D01*
X132877427Y-117848490D01*
X132896814Y-117819476D01*
X133101885Y-117512565D01*
X133387565Y-117226885D01*
X133723488Y-117002428D01*
X133723490Y-117002427D01*
X134096747Y-116847819D01*
X134492994Y-116769001D01*
X134897008Y-116769001D01*
X135293255Y-116847819D01*
G37*
G36*
X139888513Y-117923928D02*
G01*
X140037813Y-117953625D01*
X140201785Y-118021545D01*
X140349355Y-118120148D01*
X140474854Y-118245647D01*
X140573457Y-118393217D01*
X140641377Y-118557189D01*
X140676001Y-118731260D01*
X140676001Y-118908742D01*
X140641377Y-119082813D01*
X140573457Y-119246785D01*
X140474854Y-119394355D01*
X140349355Y-119519854D01*
X140201785Y-119618457D01*
X140037813Y-119686377D01*
X139888513Y-119716074D01*
X139863743Y-119721001D01*
X139686259Y-119721001D01*
X139661489Y-119716074D01*
X139512189Y-119686377D01*
X139348217Y-119618457D01*
X139200647Y-119519854D01*
X139075148Y-119394355D01*
X138976545Y-119246785D01*
X138908625Y-119082813D01*
X138874001Y-118908742D01*
X138874001Y-118731260D01*
X138908625Y-118557189D01*
X138976545Y-118393217D01*
X139075148Y-118245647D01*
X139200647Y-118120148D01*
X139348217Y-118021545D01*
X139512189Y-117953625D01*
X139661489Y-117923928D01*
X139686259Y-117919001D01*
X139863743Y-117919001D01*
X139888513Y-117923928D01*
G37*
G36*
X129728513Y-117923928D02*
G01*
X129877813Y-117953625D01*
X130041785Y-118021545D01*
X130189355Y-118120148D01*
X130314854Y-118245647D01*
X130413457Y-118393217D01*
X130481377Y-118557189D01*
X130516001Y-118731260D01*
X130516001Y-118908742D01*
X130481377Y-119082813D01*
X130413457Y-119246785D01*
X130314854Y-119394355D01*
X130189355Y-119519854D01*
X130041785Y-119618457D01*
X129877813Y-119686377D01*
X129728513Y-119716074D01*
X129703743Y-119721001D01*
X129526259Y-119721001D01*
X129501489Y-119716074D01*
X129352189Y-119686377D01*
X129188217Y-119618457D01*
X129040647Y-119519854D01*
X128915148Y-119394355D01*
X128816545Y-119246785D01*
X128748625Y-119082813D01*
X128714001Y-118908742D01*
X128714001Y-118731260D01*
X128748625Y-118557189D01*
X128816545Y-118393217D01*
X128915148Y-118245647D01*
X129040647Y-118120148D01*
X129188217Y-118021545D01*
X129352189Y-117953625D01*
X129501489Y-117923928D01*
X129526259Y-117919001D01*
X129703743Y-117919001D01*
X129728513Y-117923928D01*
G37*
G36*
X131081218Y-114686666D02*
G01*
X131351996Y-114740526D01*
X131643359Y-114861213D01*
X131905579Y-115036423D01*
X132128579Y-115259423D01*
X132303789Y-115521643D01*
X132424476Y-115813006D01*
X132486001Y-116122316D01*
X132486001Y-116437686D01*
X132424476Y-116746996D01*
X132303789Y-117038359D01*
X132128579Y-117300579D01*
X131905579Y-117523579D01*
X131643359Y-117698789D01*
X131351996Y-117819476D01*
X131081218Y-117873336D01*
X131042687Y-117881001D01*
X130727315Y-117881001D01*
X130688784Y-117873336D01*
X130418006Y-117819476D01*
X130126643Y-117698789D01*
X129864423Y-117523579D01*
X129641423Y-117300579D01*
X129466213Y-117038359D01*
X129345526Y-116746996D01*
X129284001Y-116437686D01*
X129284001Y-116122316D01*
X129345526Y-115813006D01*
X129466213Y-115521643D01*
X129641423Y-115259423D01*
X129864423Y-115036423D01*
X130126643Y-114861213D01*
X130418006Y-114740526D01*
X130688784Y-114686666D01*
X130727315Y-114679001D01*
X131042687Y-114679001D01*
X131081218Y-114686666D01*
G37*
G36*
X128661001Y-117581001D02*
G01*
X126009001Y-117581001D01*
X126009001Y-114979001D01*
X128661001Y-114979001D01*
X128661001Y-117581001D01*
G37*
G36*
X137431218Y-112146666D02*
G01*
X137701996Y-112200526D01*
X137993359Y-112321213D01*
X138255579Y-112496423D01*
X138478579Y-112719423D01*
X138653789Y-112981643D01*
X138774476Y-113273006D01*
X138836001Y-113582316D01*
X138836001Y-113897686D01*
X138774476Y-114206996D01*
X138653789Y-114498359D01*
X138478579Y-114760579D01*
X138255579Y-114983579D01*
X137993359Y-115158789D01*
X137701996Y-115279476D01*
X137431218Y-115333336D01*
X137392687Y-115341001D01*
X137077315Y-115341001D01*
X137038784Y-115333336D01*
X136768006Y-115279476D01*
X136476643Y-115158789D01*
X136214423Y-114983579D01*
X135991423Y-114760579D01*
X135816213Y-114498359D01*
X135695526Y-114206996D01*
X135634001Y-113897686D01*
X135634001Y-113582316D01*
X135695526Y-113273006D01*
X135816213Y-112981643D01*
X135991423Y-112719423D01*
X136214423Y-112496423D01*
X136476643Y-112321213D01*
X136768006Y-112200526D01*
X137038784Y-112146666D01*
X137077315Y-112139001D01*
X137392687Y-112139001D01*
X137431218Y-112146666D01*
G37*
G36*
X142111001Y-115041001D02*
G01*
X139459001Y-115041001D01*
X139459001Y-112439001D01*
X142111001Y-112439001D01*
X142111001Y-115041001D01*
G37*
G36*
X130841000Y-107631000D02*
G01*
X128239000Y-107631000D01*
X128239000Y-105729000D01*
X130841000Y-105729000D01*
X130841000Y-107631000D01*
G37*
G36*
X134841000Y-107631000D02*
G01*
X132239000Y-107631000D01*
X132239000Y-105729000D01*
X134841000Y-105729000D01*
X134841000Y-107631000D01*
G37*
G36*
X143141000Y-107581000D02*
G01*
X141339000Y-107581000D01*
X141339000Y-105779000D01*
X143141000Y-105779000D01*
X143141000Y-107581000D01*
G37*
G36*
X139813512Y-105783927D02*
G01*
X139962812Y-105813624D01*
X140126784Y-105881544D01*
X140274354Y-105980147D01*
X140399853Y-106105646D01*
X140498456Y-106253216D01*
X140566376Y-106417188D01*
X140601000Y-106591259D01*
X140601000Y-106768741D01*
X140566376Y-106942812D01*
X140498456Y-107106784D01*
X140399853Y-107254354D01*
X140274354Y-107379853D01*
X140126784Y-107478456D01*
X139962812Y-107546376D01*
X139813512Y-107576073D01*
X139788742Y-107581000D01*
X139611258Y-107581000D01*
X139586488Y-107576073D01*
X139437188Y-107546376D01*
X139273216Y-107478456D01*
X139125646Y-107379853D01*
X139000147Y-107254354D01*
X138901544Y-107106784D01*
X138833624Y-106942812D01*
X138799000Y-106768741D01*
X138799000Y-106591259D01*
X138833624Y-106417188D01*
X138901544Y-106253216D01*
X139000147Y-106105646D01*
X139125646Y-105980147D01*
X139273216Y-105881544D01*
X139437188Y-105813624D01*
X139586488Y-105783927D01*
X139611258Y-105779000D01*
X139788742Y-105779000D01*
X139813512Y-105783927D01*
G37*
M02*
