G04 #@! TF.GenerationSoftware,KiCad,Pcbnew,5.1.5*
G04 #@! TF.CreationDate,2020-02-15T20:36:58-05:00*
G04 #@! TF.ProjectId,mx,6d782e6b-6963-4616-945f-706362585858,B*
G04 #@! TF.SameCoordinates,Original*
G04 #@! TF.FileFunction,Legend,Bot*
G04 #@! TF.FilePolarity,Positive*
%FSLAX46Y46*%
G04 Gerber Fmt 4.6, Leading zero omitted, Abs format (unit mm)*
G04 Created by KiCad (PCBNEW 5.1.5) date 2020-02-15 20:36:58*
%MOMM*%
%LPD*%
G04 APERTURE LIST*
%ADD10C,0.120000*%
%ADD11C,0.150000*%
G04 APERTURE END LIST*
D10*
X131193000Y-123987779D02*
X131193000Y-123662221D01*
X130173000Y-123987779D02*
X130173000Y-123662221D01*
X134940000Y-105030000D02*
X134940000Y-108330000D01*
X134940000Y-108330000D02*
X129540000Y-108330000D01*
X134940000Y-105030000D02*
X129540000Y-105030000D01*
D11*
X134948905Y-110652381D02*
X134948905Y-111461905D01*
X134901286Y-111557143D01*
X134853667Y-111604762D01*
X134758429Y-111652381D01*
X134567953Y-111652381D01*
X134472715Y-111604762D01*
X134425096Y-111557143D01*
X134377477Y-111461905D01*
X134377477Y-110652381D01*
X133377477Y-111652381D02*
X133948905Y-111652381D01*
X133663191Y-111652381D02*
X133663191Y-110652381D01*
X133758429Y-110795239D01*
X133853667Y-110890477D01*
X133948905Y-110938096D01*
X138948905Y-127908381D02*
X138948905Y-126908381D01*
X138853667Y-127527429D02*
X138567953Y-127908381D01*
X138567953Y-127241715D02*
X138948905Y-127622667D01*
X137758429Y-127860762D02*
X137853667Y-127908381D01*
X138044143Y-127908381D01*
X138139381Y-127860762D01*
X138187001Y-127765524D01*
X138187001Y-127384572D01*
X138139381Y-127289334D01*
X138044143Y-127241715D01*
X137853667Y-127241715D01*
X137758429Y-127289334D01*
X137710810Y-127384572D01*
X137710810Y-127479810D01*
X138187001Y-127575048D01*
X137377477Y-127241715D02*
X137139381Y-127908381D01*
X136901286Y-127241715D02*
X137139381Y-127908381D01*
X137234620Y-128146477D01*
X137282239Y-128194096D01*
X137377477Y-128241715D01*
X136567953Y-127860762D02*
X136472715Y-127908381D01*
X136282239Y-127908381D01*
X136187001Y-127860762D01*
X136139381Y-127765524D01*
X136139381Y-127717905D01*
X136187001Y-127622667D01*
X136282239Y-127575048D01*
X136425096Y-127575048D01*
X136520334Y-127527429D01*
X136567953Y-127432191D01*
X136567953Y-127384572D01*
X136520334Y-127289334D01*
X136425096Y-127241715D01*
X136282239Y-127241715D01*
X136187001Y-127289334D01*
X135806048Y-127241715D02*
X135615572Y-127908381D01*
X135425096Y-127432191D01*
X135234620Y-127908381D01*
X135044143Y-127241715D01*
X134663191Y-127908381D02*
X134663191Y-127241715D01*
X134663191Y-126908381D02*
X134710810Y-126956001D01*
X134663191Y-127003620D01*
X134615572Y-126956001D01*
X134663191Y-126908381D01*
X134663191Y-127003620D01*
X134329858Y-127241715D02*
X133948905Y-127241715D01*
X134187001Y-126908381D02*
X134187001Y-127765524D01*
X134139381Y-127860762D01*
X134044143Y-127908381D01*
X133948905Y-127908381D01*
X133187001Y-127860762D02*
X133282239Y-127908381D01*
X133472715Y-127908381D01*
X133567953Y-127860762D01*
X133615572Y-127813143D01*
X133663191Y-127717905D01*
X133663191Y-127432191D01*
X133615572Y-127336953D01*
X133567953Y-127289334D01*
X133472715Y-127241715D01*
X133282239Y-127241715D01*
X133187001Y-127289334D01*
X132758429Y-127908381D02*
X132758429Y-126908381D01*
X132329858Y-127908381D02*
X132329858Y-127384572D01*
X132377477Y-127289334D01*
X132472715Y-127241715D01*
X132615572Y-127241715D01*
X132710810Y-127289334D01*
X132758429Y-127336953D01*
X132091762Y-128003620D02*
X131329858Y-128003620D01*
X131091762Y-127908381D02*
X131091762Y-127241715D01*
X131091762Y-127336953D02*
X131044143Y-127289334D01*
X130948905Y-127241715D01*
X130806048Y-127241715D01*
X130710810Y-127289334D01*
X130663191Y-127384572D01*
X130663191Y-127908381D01*
X130663191Y-127384572D02*
X130615572Y-127289334D01*
X130520334Y-127241715D01*
X130377477Y-127241715D01*
X130282239Y-127289334D01*
X130234620Y-127384572D01*
X130234620Y-127908381D01*
X129853667Y-127908381D02*
X129329858Y-127241715D01*
X129853667Y-127241715D02*
X129329858Y-127908381D01*
X136091762Y-126944380D02*
X136091762Y-125944380D01*
X135520334Y-126944380D02*
X135948905Y-126372952D01*
X135520334Y-125944380D02*
X136091762Y-126515809D01*
X135091762Y-126420571D02*
X134758429Y-126420571D01*
X134615572Y-126944380D02*
X135091762Y-126944380D01*
X135091762Y-125944380D01*
X134615572Y-125944380D01*
X133996524Y-126468190D02*
X133996524Y-126944380D01*
X134329858Y-125944380D02*
X133996524Y-126468190D01*
X133663191Y-125944380D01*
X133187001Y-125944380D02*
X133187001Y-126182476D01*
X133425096Y-126087238D02*
X133187001Y-126182476D01*
X132948905Y-126087238D01*
X133329858Y-126372952D02*
X133187001Y-126182476D01*
X133044143Y-126372952D01*
X132425096Y-125944380D02*
X132425096Y-126182476D01*
X132663191Y-126087238D02*
X132425096Y-126182476D01*
X132187001Y-126087238D01*
X132567953Y-126372952D02*
X132425096Y-126182476D01*
X132282239Y-126372952D01*
X132470142Y-123658333D02*
X132517761Y-123610714D01*
X132565380Y-123467857D01*
X132565380Y-123372619D01*
X132517761Y-123229761D01*
X132422523Y-123134523D01*
X132327285Y-123086904D01*
X132136809Y-123039285D01*
X131993952Y-123039285D01*
X131803476Y-123086904D01*
X131708238Y-123134523D01*
X131613000Y-123229761D01*
X131565380Y-123372619D01*
X131565380Y-123467857D01*
X131613000Y-123610714D01*
X131660619Y-123658333D01*
X132565380Y-124610714D02*
X132565380Y-124039285D01*
X132565380Y-124325000D02*
X131565380Y-124325000D01*
X131708238Y-124229761D01*
X131803476Y-124134523D01*
X131851095Y-124039285D01*
X132278095Y-104632380D02*
X132278095Y-103632380D01*
X132040000Y-103632380D01*
X131897142Y-103680000D01*
X131801904Y-103775238D01*
X131754285Y-103870476D01*
X131706666Y-104060952D01*
X131706666Y-104203809D01*
X131754285Y-104394285D01*
X131801904Y-104489523D01*
X131897142Y-104584761D01*
X132040000Y-104632380D01*
X132278095Y-104632380D01*
X130754285Y-104632380D02*
X131325714Y-104632380D01*
X131040000Y-104632380D02*
X131040000Y-103632380D01*
X131135238Y-103775238D01*
X131230476Y-103870476D01*
X131325714Y-103918095D01*
M02*
