G04 #@! TF.GenerationSoftware,KiCad,Pcbnew,5.1.5*
G04 #@! TF.CreationDate,2020-02-15T20:36:58-05:00*
G04 #@! TF.ProjectId,mx,6d782e6b-6963-4616-945f-706362585858,B*
G04 #@! TF.SameCoordinates,Original*
G04 #@! TF.FileFunction,Copper,L1,Top*
G04 #@! TF.FilePolarity,Positive*
%FSLAX46Y46*%
G04 Gerber Fmt 4.6, Leading zero omitted, Abs format (unit mm)*
G04 Created by KiCad (PCBNEW 5.1.5) date 2020-02-15 20:36:58*
%MOMM*%
%LPD*%
G04 APERTURE LIST*
%ADD10R,1.600000X0.850000*%
%ADD11R,1.700000X1.700000*%
%ADD12O,1.700000X1.700000*%
%ADD13C,0.800000*%
%ADD14C,0.152400*%
%ADD15C,0.254000*%
G04 APERTURE END LIST*
D10*
X132945001Y-124775001D03*
X132945001Y-123025001D03*
X136445001Y-123025001D03*
X136445001Y-124775001D03*
D11*
X129540000Y-132080000D03*
D12*
X127000000Y-132080000D03*
X139700000Y-106680000D03*
D11*
X142240000Y-106680000D03*
X142240000Y-132080000D03*
D12*
X139700000Y-132080000D03*
D13*
X128016000Y-125095000D03*
X131064000Y-129540000D03*
X128270000Y-129286000D03*
X133604000Y-128270000D03*
X135890000Y-130556000D03*
X134620000Y-132842000D03*
X139954000Y-122428000D03*
X141224000Y-127000000D03*
X143510000Y-126238000D03*
X141224000Y-129286000D03*
X143764000Y-129286000D03*
X138176000Y-128524000D03*
X128778000Y-113538000D03*
X125730000Y-113538000D03*
X125730000Y-110744000D03*
X128524000Y-110998000D03*
X134620000Y-107950000D03*
X138430000Y-107950000D03*
X137668000Y-110998000D03*
X132588000Y-110998000D03*
X138176000Y-104648000D03*
X144780000Y-104648000D03*
X144780000Y-109220000D03*
X144780000Y-114300000D03*
X144780000Y-119380000D03*
X144780000Y-134620000D03*
X139700000Y-134620000D03*
X132080000Y-134620000D03*
X124460000Y-134620000D03*
X124460000Y-127000000D03*
X124460000Y-119380000D03*
X137795000Y-116840000D03*
X133985000Y-114935000D03*
X142875000Y-122555000D03*
X138239500Y-124777500D03*
X130683000Y-125984000D03*
X142748000Y-109220000D03*
X125476000Y-104648000D03*
X134620000Y-104648000D03*
X131572000Y-120904000D03*
X134620000Y-123952000D03*
X136652000Y-127000000D03*
X131064000Y-121920000D03*
D14*
X136447500Y-124777500D02*
X136445001Y-124775001D01*
X138239500Y-124777500D02*
X136447500Y-124777500D01*
D15*
X132945001Y-122346001D02*
X132945001Y-123025001D01*
X132519000Y-121920000D02*
X132945001Y-122346001D01*
X131064000Y-121920000D02*
X132519000Y-121920000D01*
X137397401Y-123025001D02*
X136445001Y-123025001D01*
X142240000Y-127015222D02*
X138249779Y-123025001D01*
X138249779Y-123025001D02*
X137397401Y-123025001D01*
X142240000Y-132080000D02*
X142240000Y-127015222D01*
X132945001Y-125325001D02*
X132945001Y-124775001D01*
X139700000Y-132080000D02*
X132945001Y-125325001D01*
G36*
X145390001Y-135230000D02*
G01*
X123850000Y-135230000D01*
X123850000Y-132436891D01*
X125558519Y-132436891D01*
X125655843Y-132711252D01*
X125804822Y-132961355D01*
X125999731Y-133177588D01*
X126233080Y-133351641D01*
X126495901Y-133476825D01*
X126643110Y-133521476D01*
X126873000Y-133400155D01*
X126873000Y-132207000D01*
X125679186Y-132207000D01*
X125558519Y-132436891D01*
X123850000Y-132436891D01*
X123850000Y-131723109D01*
X125558519Y-131723109D01*
X125679186Y-131953000D01*
X126873000Y-131953000D01*
X126873000Y-130759845D01*
X127127000Y-130759845D01*
X127127000Y-131953000D01*
X127147000Y-131953000D01*
X127147000Y-132207000D01*
X127127000Y-132207000D01*
X127127000Y-133400155D01*
X127356890Y-133521476D01*
X127504099Y-133476825D01*
X127766920Y-133351641D01*
X128000269Y-133177588D01*
X128076034Y-133093534D01*
X128100498Y-133174180D01*
X128159463Y-133284494D01*
X128238815Y-133381185D01*
X128335506Y-133460537D01*
X128445820Y-133519502D01*
X128565518Y-133555812D01*
X128690000Y-133568072D01*
X130390000Y-133568072D01*
X130514482Y-133555812D01*
X130634180Y-133519502D01*
X130744494Y-133460537D01*
X130841185Y-133381185D01*
X130920537Y-133284494D01*
X130979502Y-133174180D01*
X131015812Y-133054482D01*
X131028072Y-132930000D01*
X131028072Y-131230000D01*
X131015812Y-131105518D01*
X130979502Y-130985820D01*
X130920537Y-130875506D01*
X130841185Y-130778815D01*
X130744494Y-130699463D01*
X130634180Y-130640498D01*
X130514482Y-130604188D01*
X130390000Y-130591928D01*
X128690000Y-130591928D01*
X128565518Y-130604188D01*
X128445820Y-130640498D01*
X128335506Y-130699463D01*
X128238815Y-130778815D01*
X128159463Y-130875506D01*
X128100498Y-130985820D01*
X128076034Y-131066466D01*
X128000269Y-130982412D01*
X127766920Y-130808359D01*
X127504099Y-130683175D01*
X127356890Y-130638524D01*
X127127000Y-130759845D01*
X126873000Y-130759845D01*
X126643110Y-130638524D01*
X126495901Y-130683175D01*
X126233080Y-130808359D01*
X125999731Y-130982412D01*
X125804822Y-131198645D01*
X125655843Y-131448748D01*
X125558519Y-131723109D01*
X123850000Y-131723109D01*
X123850000Y-121818061D01*
X130029000Y-121818061D01*
X130029000Y-122021939D01*
X130068774Y-122221898D01*
X130146795Y-122410256D01*
X130260063Y-122579774D01*
X130404226Y-122723937D01*
X130573744Y-122837205D01*
X130762102Y-122915226D01*
X130962061Y-122955000D01*
X131165939Y-122955000D01*
X131365898Y-122915226D01*
X131506929Y-122856809D01*
X131506929Y-123450001D01*
X131519189Y-123574483D01*
X131555499Y-123694181D01*
X131614464Y-123804495D01*
X131692843Y-123900001D01*
X131614464Y-123995507D01*
X131555499Y-124105821D01*
X131519189Y-124225519D01*
X131506929Y-124350001D01*
X131506929Y-125200001D01*
X131519189Y-125324483D01*
X131555499Y-125444181D01*
X131614464Y-125554495D01*
X131693816Y-125651186D01*
X131790507Y-125730538D01*
X131900821Y-125789503D01*
X132020519Y-125825813D01*
X132145001Y-125838073D01*
X132380313Y-125838073D01*
X132403579Y-125866423D01*
X132432655Y-125890285D01*
X138258321Y-131715952D01*
X138215000Y-131933740D01*
X138215000Y-132226260D01*
X138272068Y-132513158D01*
X138384010Y-132783411D01*
X138546525Y-133026632D01*
X138753368Y-133233475D01*
X138996589Y-133395990D01*
X139266842Y-133507932D01*
X139553740Y-133565000D01*
X139846260Y-133565000D01*
X140133158Y-133507932D01*
X140403411Y-133395990D01*
X140646632Y-133233475D01*
X140778487Y-133101620D01*
X140800498Y-133174180D01*
X140859463Y-133284494D01*
X140938815Y-133381185D01*
X141035506Y-133460537D01*
X141145820Y-133519502D01*
X141265518Y-133555812D01*
X141390000Y-133568072D01*
X143090000Y-133568072D01*
X143214482Y-133555812D01*
X143334180Y-133519502D01*
X143444494Y-133460537D01*
X143541185Y-133381185D01*
X143620537Y-133284494D01*
X143679502Y-133174180D01*
X143715812Y-133054482D01*
X143728072Y-132930000D01*
X143728072Y-131230000D01*
X143715812Y-131105518D01*
X143679502Y-130985820D01*
X143620537Y-130875506D01*
X143541185Y-130778815D01*
X143444494Y-130699463D01*
X143334180Y-130640498D01*
X143214482Y-130604188D01*
X143090000Y-130591928D01*
X143002000Y-130591928D01*
X143002000Y-127052645D01*
X143005686Y-127015222D01*
X143002000Y-126977796D01*
X142990974Y-126865844D01*
X142947402Y-126722207D01*
X142914465Y-126660586D01*
X142876645Y-126589829D01*
X142841857Y-126547441D01*
X142781422Y-126473800D01*
X142752346Y-126449938D01*
X138815063Y-122512655D01*
X138791201Y-122483579D01*
X138675171Y-122388356D01*
X138542794Y-122317599D01*
X138399157Y-122274027D01*
X138287205Y-122263001D01*
X138287202Y-122263001D01*
X138249779Y-122259315D01*
X138212356Y-122263001D01*
X137784889Y-122263001D01*
X137775538Y-122245507D01*
X137696186Y-122148816D01*
X137599495Y-122069464D01*
X137489181Y-122010499D01*
X137369483Y-121974189D01*
X137245001Y-121961929D01*
X135645001Y-121961929D01*
X135520519Y-121974189D01*
X135400821Y-122010499D01*
X135290507Y-122069464D01*
X135193816Y-122148816D01*
X135114464Y-122245507D01*
X135055499Y-122355821D01*
X135019189Y-122475519D01*
X135006929Y-122600001D01*
X135006929Y-123450001D01*
X135019189Y-123574483D01*
X135055499Y-123694181D01*
X135114464Y-123804495D01*
X135192843Y-123900001D01*
X135114464Y-123995507D01*
X135055499Y-124105821D01*
X135019189Y-124225519D01*
X135006929Y-124350001D01*
X135010001Y-124489251D01*
X135168751Y-124648001D01*
X136318001Y-124648001D01*
X136318001Y-124628001D01*
X136572001Y-124628001D01*
X136572001Y-124648001D01*
X137721251Y-124648001D01*
X137880001Y-124489251D01*
X137883073Y-124350001D01*
X137870813Y-124225519D01*
X137834503Y-124105821D01*
X137775538Y-123995507D01*
X137697159Y-123900001D01*
X137775538Y-123804495D01*
X137784889Y-123787001D01*
X137934149Y-123787001D01*
X141478001Y-127330853D01*
X141478000Y-130591928D01*
X141390000Y-130591928D01*
X141265518Y-130604188D01*
X141145820Y-130640498D01*
X141035506Y-130699463D01*
X140938815Y-130778815D01*
X140859463Y-130875506D01*
X140800498Y-130985820D01*
X140778487Y-131058380D01*
X140646632Y-130926525D01*
X140403411Y-130764010D01*
X140133158Y-130652068D01*
X139846260Y-130595000D01*
X139553740Y-130595000D01*
X139335952Y-130638321D01*
X134264985Y-125567354D01*
X134275538Y-125554495D01*
X134334503Y-125444181D01*
X134370813Y-125324483D01*
X134383073Y-125200001D01*
X135006929Y-125200001D01*
X135019189Y-125324483D01*
X135055499Y-125444181D01*
X135114464Y-125554495D01*
X135193816Y-125651186D01*
X135290507Y-125730538D01*
X135400821Y-125789503D01*
X135520519Y-125825813D01*
X135645001Y-125838073D01*
X136159251Y-125835001D01*
X136318001Y-125676251D01*
X136318001Y-124902001D01*
X136572001Y-124902001D01*
X136572001Y-125676251D01*
X136730751Y-125835001D01*
X137245001Y-125838073D01*
X137369483Y-125825813D01*
X137489181Y-125789503D01*
X137599495Y-125730538D01*
X137696186Y-125651186D01*
X137775538Y-125554495D01*
X137834503Y-125444181D01*
X137870813Y-125324483D01*
X137883073Y-125200001D01*
X137880001Y-125060751D01*
X137721251Y-124902001D01*
X136572001Y-124902001D01*
X136318001Y-124902001D01*
X135168751Y-124902001D01*
X135010001Y-125060751D01*
X135006929Y-125200001D01*
X134383073Y-125200001D01*
X134383073Y-124350001D01*
X134370813Y-124225519D01*
X134334503Y-124105821D01*
X134275538Y-123995507D01*
X134197159Y-123900001D01*
X134275538Y-123804495D01*
X134334503Y-123694181D01*
X134370813Y-123574483D01*
X134383073Y-123450001D01*
X134383073Y-122600001D01*
X134370813Y-122475519D01*
X134334503Y-122355821D01*
X134275538Y-122245507D01*
X134196186Y-122148816D01*
X134099495Y-122069464D01*
X133989181Y-122010499D01*
X133869483Y-121974189D01*
X133745001Y-121961929D01*
X133603732Y-121961929D01*
X133581646Y-121920609D01*
X133486423Y-121804579D01*
X133457348Y-121780718D01*
X133084284Y-121407654D01*
X133060422Y-121378578D01*
X132944392Y-121283355D01*
X132812015Y-121212598D01*
X132668378Y-121169026D01*
X132556426Y-121158000D01*
X132556423Y-121158000D01*
X132519000Y-121154314D01*
X132481577Y-121158000D01*
X131765711Y-121158000D01*
X131723774Y-121116063D01*
X131554256Y-121002795D01*
X131365898Y-120924774D01*
X131165939Y-120885000D01*
X130962061Y-120885000D01*
X130762102Y-120924774D01*
X130573744Y-121002795D01*
X130404226Y-121116063D01*
X130260063Y-121260226D01*
X130146795Y-121429744D01*
X130068774Y-121618102D01*
X130029000Y-121818061D01*
X123850000Y-121818061D01*
X123850000Y-118673741D01*
X128130001Y-118673741D01*
X128130001Y-118966261D01*
X128187069Y-119253159D01*
X128299011Y-119523412D01*
X128461526Y-119766633D01*
X128668369Y-119973476D01*
X128911590Y-120135991D01*
X129181843Y-120247933D01*
X129468741Y-120305001D01*
X129761261Y-120305001D01*
X130048159Y-120247933D01*
X130318412Y-120135991D01*
X130561633Y-119973476D01*
X130768476Y-119766633D01*
X130930991Y-119523412D01*
X131042933Y-119253159D01*
X131100001Y-118966261D01*
X131100001Y-118673741D01*
X131058480Y-118465001D01*
X131100205Y-118465001D01*
X131522342Y-118381032D01*
X131919986Y-118216323D01*
X132160412Y-118055676D01*
X132060001Y-118560476D01*
X132060001Y-119079526D01*
X132161262Y-119588602D01*
X132359894Y-120068142D01*
X132648263Y-120499716D01*
X133015286Y-120866739D01*
X133446860Y-121155108D01*
X133926400Y-121353740D01*
X134435476Y-121455001D01*
X134954526Y-121455001D01*
X135463602Y-121353740D01*
X135943142Y-121155108D01*
X136374716Y-120866739D01*
X136741739Y-120499716D01*
X137030108Y-120068142D01*
X137228740Y-119588602D01*
X137330001Y-119079526D01*
X137330001Y-118673741D01*
X138290001Y-118673741D01*
X138290001Y-118966261D01*
X138347069Y-119253159D01*
X138459011Y-119523412D01*
X138621526Y-119766633D01*
X138828369Y-119973476D01*
X139071590Y-120135991D01*
X139341843Y-120247933D01*
X139628741Y-120305001D01*
X139921261Y-120305001D01*
X140208159Y-120247933D01*
X140478412Y-120135991D01*
X140721633Y-119973476D01*
X140928476Y-119766633D01*
X141090991Y-119523412D01*
X141202933Y-119253159D01*
X141260001Y-118966261D01*
X141260001Y-118673741D01*
X141202933Y-118386843D01*
X141090991Y-118116590D01*
X140928476Y-117873369D01*
X140721633Y-117666526D01*
X140478412Y-117504011D01*
X140208159Y-117392069D01*
X139921261Y-117335001D01*
X139628741Y-117335001D01*
X139341843Y-117392069D01*
X139071590Y-117504011D01*
X138828369Y-117666526D01*
X138621526Y-117873369D01*
X138459011Y-118116590D01*
X138347069Y-118386843D01*
X138290001Y-118673741D01*
X137330001Y-118673741D01*
X137330001Y-118560476D01*
X137228740Y-118051400D01*
X137030108Y-117571860D01*
X136741739Y-117140286D01*
X136374716Y-116773263D01*
X135943142Y-116484894D01*
X135463602Y-116286262D01*
X134954526Y-116185001D01*
X134435476Y-116185001D01*
X133926400Y-116286262D01*
X133446860Y-116484894D01*
X133015286Y-116773263D01*
X133014544Y-116774005D01*
X133070001Y-116495205D01*
X133070001Y-116064797D01*
X132986032Y-115642660D01*
X132821323Y-115245016D01*
X132582201Y-114887145D01*
X132277857Y-114582801D01*
X131919986Y-114343679D01*
X131522342Y-114178970D01*
X131100205Y-114095001D01*
X130669797Y-114095001D01*
X130247660Y-114178970D01*
X129850016Y-114343679D01*
X129492145Y-114582801D01*
X129187801Y-114887145D01*
X128948679Y-115245016D01*
X128783970Y-115642660D01*
X128700001Y-116064797D01*
X128700001Y-116495205D01*
X128783970Y-116917342D01*
X128948679Y-117314986D01*
X129039563Y-117451003D01*
X128911590Y-117504011D01*
X128668369Y-117666526D01*
X128461526Y-117873369D01*
X128299011Y-118116590D01*
X128187069Y-118386843D01*
X128130001Y-118673741D01*
X123850000Y-118673741D01*
X123850000Y-113524797D01*
X135050001Y-113524797D01*
X135050001Y-113955205D01*
X135133970Y-114377342D01*
X135298679Y-114774986D01*
X135537801Y-115132857D01*
X135842145Y-115437201D01*
X136200016Y-115676323D01*
X136597660Y-115841032D01*
X137019797Y-115925001D01*
X137450205Y-115925001D01*
X137872342Y-115841032D01*
X138269986Y-115676323D01*
X138627857Y-115437201D01*
X138932201Y-115132857D01*
X139171323Y-114774986D01*
X139336032Y-114377342D01*
X139420001Y-113955205D01*
X139420001Y-113524797D01*
X139336032Y-113102660D01*
X139171323Y-112705016D01*
X138932201Y-112347145D01*
X138627857Y-112042801D01*
X138269986Y-111803679D01*
X137872342Y-111638970D01*
X137450205Y-111555001D01*
X137019797Y-111555001D01*
X136597660Y-111638970D01*
X136200016Y-111803679D01*
X135842145Y-112042801D01*
X135537801Y-112347145D01*
X135298679Y-112705016D01*
X135133970Y-113102660D01*
X135050001Y-113524797D01*
X123850000Y-113524797D01*
X123850000Y-106533740D01*
X138215000Y-106533740D01*
X138215000Y-106826260D01*
X138272068Y-107113158D01*
X138384010Y-107383411D01*
X138546525Y-107626632D01*
X138753368Y-107833475D01*
X138996589Y-107995990D01*
X139266842Y-108107932D01*
X139553740Y-108165000D01*
X139846260Y-108165000D01*
X140133158Y-108107932D01*
X140403411Y-107995990D01*
X140646632Y-107833475D01*
X140778487Y-107701620D01*
X140800498Y-107774180D01*
X140859463Y-107884494D01*
X140938815Y-107981185D01*
X141035506Y-108060537D01*
X141145820Y-108119502D01*
X141265518Y-108155812D01*
X141390000Y-108168072D01*
X143090000Y-108168072D01*
X143214482Y-108155812D01*
X143334180Y-108119502D01*
X143444494Y-108060537D01*
X143541185Y-107981185D01*
X143620537Y-107884494D01*
X143679502Y-107774180D01*
X143715812Y-107654482D01*
X143728072Y-107530000D01*
X143728072Y-105830000D01*
X143715812Y-105705518D01*
X143679502Y-105585820D01*
X143620537Y-105475506D01*
X143541185Y-105378815D01*
X143444494Y-105299463D01*
X143334180Y-105240498D01*
X143214482Y-105204188D01*
X143090000Y-105191928D01*
X141390000Y-105191928D01*
X141265518Y-105204188D01*
X141145820Y-105240498D01*
X141035506Y-105299463D01*
X140938815Y-105378815D01*
X140859463Y-105475506D01*
X140800498Y-105585820D01*
X140778487Y-105658380D01*
X140646632Y-105526525D01*
X140403411Y-105364010D01*
X140133158Y-105252068D01*
X139846260Y-105195000D01*
X139553740Y-105195000D01*
X139266842Y-105252068D01*
X138996589Y-105364010D01*
X138753368Y-105526525D01*
X138546525Y-105733368D01*
X138384010Y-105976589D01*
X138272068Y-106246842D01*
X138215000Y-106533740D01*
X123850000Y-106533740D01*
X123850000Y-103530000D01*
X145390000Y-103530000D01*
X145390001Y-135230000D01*
G37*
X145390001Y-135230000D02*
X123850000Y-135230000D01*
X123850000Y-132436891D01*
X125558519Y-132436891D01*
X125655843Y-132711252D01*
X125804822Y-132961355D01*
X125999731Y-133177588D01*
X126233080Y-133351641D01*
X126495901Y-133476825D01*
X126643110Y-133521476D01*
X126873000Y-133400155D01*
X126873000Y-132207000D01*
X125679186Y-132207000D01*
X125558519Y-132436891D01*
X123850000Y-132436891D01*
X123850000Y-131723109D01*
X125558519Y-131723109D01*
X125679186Y-131953000D01*
X126873000Y-131953000D01*
X126873000Y-130759845D01*
X127127000Y-130759845D01*
X127127000Y-131953000D01*
X127147000Y-131953000D01*
X127147000Y-132207000D01*
X127127000Y-132207000D01*
X127127000Y-133400155D01*
X127356890Y-133521476D01*
X127504099Y-133476825D01*
X127766920Y-133351641D01*
X128000269Y-133177588D01*
X128076034Y-133093534D01*
X128100498Y-133174180D01*
X128159463Y-133284494D01*
X128238815Y-133381185D01*
X128335506Y-133460537D01*
X128445820Y-133519502D01*
X128565518Y-133555812D01*
X128690000Y-133568072D01*
X130390000Y-133568072D01*
X130514482Y-133555812D01*
X130634180Y-133519502D01*
X130744494Y-133460537D01*
X130841185Y-133381185D01*
X130920537Y-133284494D01*
X130979502Y-133174180D01*
X131015812Y-133054482D01*
X131028072Y-132930000D01*
X131028072Y-131230000D01*
X131015812Y-131105518D01*
X130979502Y-130985820D01*
X130920537Y-130875506D01*
X130841185Y-130778815D01*
X130744494Y-130699463D01*
X130634180Y-130640498D01*
X130514482Y-130604188D01*
X130390000Y-130591928D01*
X128690000Y-130591928D01*
X128565518Y-130604188D01*
X128445820Y-130640498D01*
X128335506Y-130699463D01*
X128238815Y-130778815D01*
X128159463Y-130875506D01*
X128100498Y-130985820D01*
X128076034Y-131066466D01*
X128000269Y-130982412D01*
X127766920Y-130808359D01*
X127504099Y-130683175D01*
X127356890Y-130638524D01*
X127127000Y-130759845D01*
X126873000Y-130759845D01*
X126643110Y-130638524D01*
X126495901Y-130683175D01*
X126233080Y-130808359D01*
X125999731Y-130982412D01*
X125804822Y-131198645D01*
X125655843Y-131448748D01*
X125558519Y-131723109D01*
X123850000Y-131723109D01*
X123850000Y-121818061D01*
X130029000Y-121818061D01*
X130029000Y-122021939D01*
X130068774Y-122221898D01*
X130146795Y-122410256D01*
X130260063Y-122579774D01*
X130404226Y-122723937D01*
X130573744Y-122837205D01*
X130762102Y-122915226D01*
X130962061Y-122955000D01*
X131165939Y-122955000D01*
X131365898Y-122915226D01*
X131506929Y-122856809D01*
X131506929Y-123450001D01*
X131519189Y-123574483D01*
X131555499Y-123694181D01*
X131614464Y-123804495D01*
X131692843Y-123900001D01*
X131614464Y-123995507D01*
X131555499Y-124105821D01*
X131519189Y-124225519D01*
X131506929Y-124350001D01*
X131506929Y-125200001D01*
X131519189Y-125324483D01*
X131555499Y-125444181D01*
X131614464Y-125554495D01*
X131693816Y-125651186D01*
X131790507Y-125730538D01*
X131900821Y-125789503D01*
X132020519Y-125825813D01*
X132145001Y-125838073D01*
X132380313Y-125838073D01*
X132403579Y-125866423D01*
X132432655Y-125890285D01*
X138258321Y-131715952D01*
X138215000Y-131933740D01*
X138215000Y-132226260D01*
X138272068Y-132513158D01*
X138384010Y-132783411D01*
X138546525Y-133026632D01*
X138753368Y-133233475D01*
X138996589Y-133395990D01*
X139266842Y-133507932D01*
X139553740Y-133565000D01*
X139846260Y-133565000D01*
X140133158Y-133507932D01*
X140403411Y-133395990D01*
X140646632Y-133233475D01*
X140778487Y-133101620D01*
X140800498Y-133174180D01*
X140859463Y-133284494D01*
X140938815Y-133381185D01*
X141035506Y-133460537D01*
X141145820Y-133519502D01*
X141265518Y-133555812D01*
X141390000Y-133568072D01*
X143090000Y-133568072D01*
X143214482Y-133555812D01*
X143334180Y-133519502D01*
X143444494Y-133460537D01*
X143541185Y-133381185D01*
X143620537Y-133284494D01*
X143679502Y-133174180D01*
X143715812Y-133054482D01*
X143728072Y-132930000D01*
X143728072Y-131230000D01*
X143715812Y-131105518D01*
X143679502Y-130985820D01*
X143620537Y-130875506D01*
X143541185Y-130778815D01*
X143444494Y-130699463D01*
X143334180Y-130640498D01*
X143214482Y-130604188D01*
X143090000Y-130591928D01*
X143002000Y-130591928D01*
X143002000Y-127052645D01*
X143005686Y-127015222D01*
X143002000Y-126977796D01*
X142990974Y-126865844D01*
X142947402Y-126722207D01*
X142914465Y-126660586D01*
X142876645Y-126589829D01*
X142841857Y-126547441D01*
X142781422Y-126473800D01*
X142752346Y-126449938D01*
X138815063Y-122512655D01*
X138791201Y-122483579D01*
X138675171Y-122388356D01*
X138542794Y-122317599D01*
X138399157Y-122274027D01*
X138287205Y-122263001D01*
X138287202Y-122263001D01*
X138249779Y-122259315D01*
X138212356Y-122263001D01*
X137784889Y-122263001D01*
X137775538Y-122245507D01*
X137696186Y-122148816D01*
X137599495Y-122069464D01*
X137489181Y-122010499D01*
X137369483Y-121974189D01*
X137245001Y-121961929D01*
X135645001Y-121961929D01*
X135520519Y-121974189D01*
X135400821Y-122010499D01*
X135290507Y-122069464D01*
X135193816Y-122148816D01*
X135114464Y-122245507D01*
X135055499Y-122355821D01*
X135019189Y-122475519D01*
X135006929Y-122600001D01*
X135006929Y-123450001D01*
X135019189Y-123574483D01*
X135055499Y-123694181D01*
X135114464Y-123804495D01*
X135192843Y-123900001D01*
X135114464Y-123995507D01*
X135055499Y-124105821D01*
X135019189Y-124225519D01*
X135006929Y-124350001D01*
X135010001Y-124489251D01*
X135168751Y-124648001D01*
X136318001Y-124648001D01*
X136318001Y-124628001D01*
X136572001Y-124628001D01*
X136572001Y-124648001D01*
X137721251Y-124648001D01*
X137880001Y-124489251D01*
X137883073Y-124350001D01*
X137870813Y-124225519D01*
X137834503Y-124105821D01*
X137775538Y-123995507D01*
X137697159Y-123900001D01*
X137775538Y-123804495D01*
X137784889Y-123787001D01*
X137934149Y-123787001D01*
X141478001Y-127330853D01*
X141478000Y-130591928D01*
X141390000Y-130591928D01*
X141265518Y-130604188D01*
X141145820Y-130640498D01*
X141035506Y-130699463D01*
X140938815Y-130778815D01*
X140859463Y-130875506D01*
X140800498Y-130985820D01*
X140778487Y-131058380D01*
X140646632Y-130926525D01*
X140403411Y-130764010D01*
X140133158Y-130652068D01*
X139846260Y-130595000D01*
X139553740Y-130595000D01*
X139335952Y-130638321D01*
X134264985Y-125567354D01*
X134275538Y-125554495D01*
X134334503Y-125444181D01*
X134370813Y-125324483D01*
X134383073Y-125200001D01*
X135006929Y-125200001D01*
X135019189Y-125324483D01*
X135055499Y-125444181D01*
X135114464Y-125554495D01*
X135193816Y-125651186D01*
X135290507Y-125730538D01*
X135400821Y-125789503D01*
X135520519Y-125825813D01*
X135645001Y-125838073D01*
X136159251Y-125835001D01*
X136318001Y-125676251D01*
X136318001Y-124902001D01*
X136572001Y-124902001D01*
X136572001Y-125676251D01*
X136730751Y-125835001D01*
X137245001Y-125838073D01*
X137369483Y-125825813D01*
X137489181Y-125789503D01*
X137599495Y-125730538D01*
X137696186Y-125651186D01*
X137775538Y-125554495D01*
X137834503Y-125444181D01*
X137870813Y-125324483D01*
X137883073Y-125200001D01*
X137880001Y-125060751D01*
X137721251Y-124902001D01*
X136572001Y-124902001D01*
X136318001Y-124902001D01*
X135168751Y-124902001D01*
X135010001Y-125060751D01*
X135006929Y-125200001D01*
X134383073Y-125200001D01*
X134383073Y-124350001D01*
X134370813Y-124225519D01*
X134334503Y-124105821D01*
X134275538Y-123995507D01*
X134197159Y-123900001D01*
X134275538Y-123804495D01*
X134334503Y-123694181D01*
X134370813Y-123574483D01*
X134383073Y-123450001D01*
X134383073Y-122600001D01*
X134370813Y-122475519D01*
X134334503Y-122355821D01*
X134275538Y-122245507D01*
X134196186Y-122148816D01*
X134099495Y-122069464D01*
X133989181Y-122010499D01*
X133869483Y-121974189D01*
X133745001Y-121961929D01*
X133603732Y-121961929D01*
X133581646Y-121920609D01*
X133486423Y-121804579D01*
X133457348Y-121780718D01*
X133084284Y-121407654D01*
X133060422Y-121378578D01*
X132944392Y-121283355D01*
X132812015Y-121212598D01*
X132668378Y-121169026D01*
X132556426Y-121158000D01*
X132556423Y-121158000D01*
X132519000Y-121154314D01*
X132481577Y-121158000D01*
X131765711Y-121158000D01*
X131723774Y-121116063D01*
X131554256Y-121002795D01*
X131365898Y-120924774D01*
X131165939Y-120885000D01*
X130962061Y-120885000D01*
X130762102Y-120924774D01*
X130573744Y-121002795D01*
X130404226Y-121116063D01*
X130260063Y-121260226D01*
X130146795Y-121429744D01*
X130068774Y-121618102D01*
X130029000Y-121818061D01*
X123850000Y-121818061D01*
X123850000Y-118673741D01*
X128130001Y-118673741D01*
X128130001Y-118966261D01*
X128187069Y-119253159D01*
X128299011Y-119523412D01*
X128461526Y-119766633D01*
X128668369Y-119973476D01*
X128911590Y-120135991D01*
X129181843Y-120247933D01*
X129468741Y-120305001D01*
X129761261Y-120305001D01*
X130048159Y-120247933D01*
X130318412Y-120135991D01*
X130561633Y-119973476D01*
X130768476Y-119766633D01*
X130930991Y-119523412D01*
X131042933Y-119253159D01*
X131100001Y-118966261D01*
X131100001Y-118673741D01*
X131058480Y-118465001D01*
X131100205Y-118465001D01*
X131522342Y-118381032D01*
X131919986Y-118216323D01*
X132160412Y-118055676D01*
X132060001Y-118560476D01*
X132060001Y-119079526D01*
X132161262Y-119588602D01*
X132359894Y-120068142D01*
X132648263Y-120499716D01*
X133015286Y-120866739D01*
X133446860Y-121155108D01*
X133926400Y-121353740D01*
X134435476Y-121455001D01*
X134954526Y-121455001D01*
X135463602Y-121353740D01*
X135943142Y-121155108D01*
X136374716Y-120866739D01*
X136741739Y-120499716D01*
X137030108Y-120068142D01*
X137228740Y-119588602D01*
X137330001Y-119079526D01*
X137330001Y-118673741D01*
X138290001Y-118673741D01*
X138290001Y-118966261D01*
X138347069Y-119253159D01*
X138459011Y-119523412D01*
X138621526Y-119766633D01*
X138828369Y-119973476D01*
X139071590Y-120135991D01*
X139341843Y-120247933D01*
X139628741Y-120305001D01*
X139921261Y-120305001D01*
X140208159Y-120247933D01*
X140478412Y-120135991D01*
X140721633Y-119973476D01*
X140928476Y-119766633D01*
X141090991Y-119523412D01*
X141202933Y-119253159D01*
X141260001Y-118966261D01*
X141260001Y-118673741D01*
X141202933Y-118386843D01*
X141090991Y-118116590D01*
X140928476Y-117873369D01*
X140721633Y-117666526D01*
X140478412Y-117504011D01*
X140208159Y-117392069D01*
X139921261Y-117335001D01*
X139628741Y-117335001D01*
X139341843Y-117392069D01*
X139071590Y-117504011D01*
X138828369Y-117666526D01*
X138621526Y-117873369D01*
X138459011Y-118116590D01*
X138347069Y-118386843D01*
X138290001Y-118673741D01*
X137330001Y-118673741D01*
X137330001Y-118560476D01*
X137228740Y-118051400D01*
X137030108Y-117571860D01*
X136741739Y-117140286D01*
X136374716Y-116773263D01*
X135943142Y-116484894D01*
X135463602Y-116286262D01*
X134954526Y-116185001D01*
X134435476Y-116185001D01*
X133926400Y-116286262D01*
X133446860Y-116484894D01*
X133015286Y-116773263D01*
X133014544Y-116774005D01*
X133070001Y-116495205D01*
X133070001Y-116064797D01*
X132986032Y-115642660D01*
X132821323Y-115245016D01*
X132582201Y-114887145D01*
X132277857Y-114582801D01*
X131919986Y-114343679D01*
X131522342Y-114178970D01*
X131100205Y-114095001D01*
X130669797Y-114095001D01*
X130247660Y-114178970D01*
X129850016Y-114343679D01*
X129492145Y-114582801D01*
X129187801Y-114887145D01*
X128948679Y-115245016D01*
X128783970Y-115642660D01*
X128700001Y-116064797D01*
X128700001Y-116495205D01*
X128783970Y-116917342D01*
X128948679Y-117314986D01*
X129039563Y-117451003D01*
X128911590Y-117504011D01*
X128668369Y-117666526D01*
X128461526Y-117873369D01*
X128299011Y-118116590D01*
X128187069Y-118386843D01*
X128130001Y-118673741D01*
X123850000Y-118673741D01*
X123850000Y-113524797D01*
X135050001Y-113524797D01*
X135050001Y-113955205D01*
X135133970Y-114377342D01*
X135298679Y-114774986D01*
X135537801Y-115132857D01*
X135842145Y-115437201D01*
X136200016Y-115676323D01*
X136597660Y-115841032D01*
X137019797Y-115925001D01*
X137450205Y-115925001D01*
X137872342Y-115841032D01*
X138269986Y-115676323D01*
X138627857Y-115437201D01*
X138932201Y-115132857D01*
X139171323Y-114774986D01*
X139336032Y-114377342D01*
X139420001Y-113955205D01*
X139420001Y-113524797D01*
X139336032Y-113102660D01*
X139171323Y-112705016D01*
X138932201Y-112347145D01*
X138627857Y-112042801D01*
X138269986Y-111803679D01*
X137872342Y-111638970D01*
X137450205Y-111555001D01*
X137019797Y-111555001D01*
X136597660Y-111638970D01*
X136200016Y-111803679D01*
X135842145Y-112042801D01*
X135537801Y-112347145D01*
X135298679Y-112705016D01*
X135133970Y-113102660D01*
X135050001Y-113524797D01*
X123850000Y-113524797D01*
X123850000Y-106533740D01*
X138215000Y-106533740D01*
X138215000Y-106826260D01*
X138272068Y-107113158D01*
X138384010Y-107383411D01*
X138546525Y-107626632D01*
X138753368Y-107833475D01*
X138996589Y-107995990D01*
X139266842Y-108107932D01*
X139553740Y-108165000D01*
X139846260Y-108165000D01*
X140133158Y-108107932D01*
X140403411Y-107995990D01*
X140646632Y-107833475D01*
X140778487Y-107701620D01*
X140800498Y-107774180D01*
X140859463Y-107884494D01*
X140938815Y-107981185D01*
X141035506Y-108060537D01*
X141145820Y-108119502D01*
X141265518Y-108155812D01*
X141390000Y-108168072D01*
X143090000Y-108168072D01*
X143214482Y-108155812D01*
X143334180Y-108119502D01*
X143444494Y-108060537D01*
X143541185Y-107981185D01*
X143620537Y-107884494D01*
X143679502Y-107774180D01*
X143715812Y-107654482D01*
X143728072Y-107530000D01*
X143728072Y-105830000D01*
X143715812Y-105705518D01*
X143679502Y-105585820D01*
X143620537Y-105475506D01*
X143541185Y-105378815D01*
X143444494Y-105299463D01*
X143334180Y-105240498D01*
X143214482Y-105204188D01*
X143090000Y-105191928D01*
X141390000Y-105191928D01*
X141265518Y-105204188D01*
X141145820Y-105240498D01*
X141035506Y-105299463D01*
X140938815Y-105378815D01*
X140859463Y-105475506D01*
X140800498Y-105585820D01*
X140778487Y-105658380D01*
X140646632Y-105526525D01*
X140403411Y-105364010D01*
X140133158Y-105252068D01*
X139846260Y-105195000D01*
X139553740Y-105195000D01*
X139266842Y-105252068D01*
X138996589Y-105364010D01*
X138753368Y-105526525D01*
X138546525Y-105733368D01*
X138384010Y-105976589D01*
X138272068Y-106246842D01*
X138215000Y-106533740D01*
X123850000Y-106533740D01*
X123850000Y-103530000D01*
X145390000Y-103530000D01*
X145390001Y-135230000D01*
M02*
