M48
; DRILL file {KiCad 5.1.5} date Sat 15 Feb 2020 08:29:01 PM EST
; FORMAT={-:-/ absolute / inch / decimal}
; #@! TF.CreationDate,2020-02-15T20:29:01-05:00
; #@! TF.GenerationSoftware,Kicad,Pcbnew,5.1.5
FMAT,2
INCH
T1C0.0157
T2C0.0394
T3C0.0669
T4C0.1220
T5C0.1575
%
G90
G05
T1
X4.9Y-4.7
X4.9Y-5.0
X4.9Y-5.3
X4.94Y-4.12
X4.95Y-4.36
X4.95Y-4.47
X5.04Y-4.2
X5.04Y-4.925
X5.05Y-5.09
X5.06Y-4.37
X5.07Y-4.47
X5.145Y-4.96
X5.16Y-4.8
X5.16Y-5.1
X5.18Y-4.76
X5.2Y-5.3
X5.22Y-4.37
X5.26Y-5.05
X5.275Y-4.525
X5.3Y-4.12
X5.3Y-4.25
X5.3Y-4.88
X5.3Y-5.23
X5.35Y-5.14
X5.38Y-5.0
X5.42Y-4.37
X5.425Y-4.6
X5.44Y-4.12
X5.44Y-5.06
X5.4425Y-4.9125
X5.45Y-4.25
X5.5Y-5.3
X5.51Y-4.82
X5.56Y-5.0
X5.56Y-5.09
X5.62Y-4.3
X5.625Y-4.825
X5.65Y-4.97
X5.66Y-5.09
X5.7Y-4.12
X5.7Y-4.3
X5.7Y-4.5
X5.7Y-4.7
X5.7Y-5.3
T2
X5.5Y-5.2
X5.6Y-5.2
X5.0Y-5.2
X5.1Y-5.2
X5.56Y-4.2
X5.66Y-4.2
T3
X5.103Y-4.678
X5.503Y-4.678
T4
X5.153Y-4.578
X5.403Y-4.478
T5
X5.303Y-4.678
T0
M30
