G04 #@! TF.GenerationSoftware,KiCad,Pcbnew,5.1.5*
G04 #@! TF.CreationDate,2020-02-17T14:33:41-05:00*
G04 #@! TF.ProjectId,stm32,73746d33-322e-46b6-9963-61645f706362,B*
G04 #@! TF.SameCoordinates,Original*
G04 #@! TF.FileFunction,Legend,Top*
G04 #@! TF.FilePolarity,Positive*
%FSLAX46Y46*%
G04 Gerber Fmt 4.6, Leading zero omitted, Abs format (unit mm)*
G04 Created by KiCad (PCBNEW 5.1.5) date 2020-02-17 14:33:41*
%MOMM*%
%LPD*%
G04 APERTURE LIST*
%ADD10C,0.127000*%
%ADD11C,0.152400*%
%ADD12C,0.120000*%
%ADD13C,0.100000*%
%ADD14C,0.200000*%
%ADD15C,0.150000*%
%ADD16C,0.101600*%
G04 APERTURE END LIST*
D10*
X130507619Y-66868523D02*
X130507619Y-66239571D01*
X130894666Y-66578238D01*
X130894666Y-66433095D01*
X130943047Y-66336333D01*
X130991428Y-66287952D01*
X131088190Y-66239571D01*
X131330095Y-66239571D01*
X131426857Y-66287952D01*
X131475238Y-66336333D01*
X131523619Y-66433095D01*
X131523619Y-66723380D01*
X131475238Y-66820142D01*
X131426857Y-66868523D01*
X130507619Y-65949285D02*
X131523619Y-65610619D01*
X130507619Y-65271952D01*
X130507619Y-65030047D02*
X130507619Y-64401095D01*
X130894666Y-64739761D01*
X130894666Y-64594619D01*
X130943047Y-64497857D01*
X130991428Y-64449476D01*
X131088190Y-64401095D01*
X131330095Y-64401095D01*
X131426857Y-64449476D01*
X131475238Y-64497857D01*
X131523619Y-64594619D01*
X131523619Y-64884904D01*
X131475238Y-64981666D01*
X131426857Y-65030047D01*
X131523619Y-63191571D02*
X130507619Y-63191571D01*
X130507619Y-62804523D01*
X130556000Y-62707761D01*
X130604380Y-62659380D01*
X130701142Y-62611000D01*
X130846285Y-62611000D01*
X130943047Y-62659380D01*
X130991428Y-62707761D01*
X131039809Y-62804523D01*
X131039809Y-63191571D01*
X130507619Y-62272333D02*
X131523619Y-62030428D01*
X130797904Y-61836904D01*
X131523619Y-61643380D01*
X130507619Y-61401476D01*
X131523619Y-60433857D02*
X131039809Y-60772523D01*
X131523619Y-61014428D02*
X130507619Y-61014428D01*
X130507619Y-60627380D01*
X130556000Y-60530619D01*
X130604380Y-60482238D01*
X130701142Y-60433857D01*
X130846285Y-60433857D01*
X130943047Y-60482238D01*
X130991428Y-60530619D01*
X131039809Y-60627380D01*
X131039809Y-61014428D01*
X125427619Y-66312142D02*
X125427619Y-66795952D01*
X125911428Y-66844333D01*
X125863047Y-66795952D01*
X125814666Y-66699190D01*
X125814666Y-66457285D01*
X125863047Y-66360523D01*
X125911428Y-66312142D01*
X126008190Y-66263761D01*
X126250095Y-66263761D01*
X126346857Y-66312142D01*
X126395238Y-66360523D01*
X126443619Y-66457285D01*
X126443619Y-66699190D01*
X126395238Y-66795952D01*
X126346857Y-66844333D01*
X125427619Y-65973476D02*
X126443619Y-65634809D01*
X125427619Y-65296142D01*
X126443619Y-64183380D02*
X125427619Y-64183380D01*
X125427619Y-63796333D01*
X125476000Y-63699571D01*
X125524380Y-63651190D01*
X125621142Y-63602809D01*
X125766285Y-63602809D01*
X125863047Y-63651190D01*
X125911428Y-63699571D01*
X125959809Y-63796333D01*
X125959809Y-64183380D01*
X125427619Y-63264142D02*
X126443619Y-63022238D01*
X125717904Y-62828714D01*
X126443619Y-62635190D01*
X125427619Y-62393285D01*
X126443619Y-61425666D02*
X125959809Y-61764333D01*
X126443619Y-62006238D02*
X125427619Y-62006238D01*
X125427619Y-61619190D01*
X125476000Y-61522428D01*
X125524380Y-61474047D01*
X125621142Y-61425666D01*
X125766285Y-61425666D01*
X125863047Y-61474047D01*
X125911428Y-61522428D01*
X125959809Y-61619190D01*
X125959809Y-62006238D01*
D11*
X127997857Y-107194047D02*
X128179285Y-107254523D01*
X128481666Y-107254523D01*
X128602619Y-107194047D01*
X128663095Y-107133571D01*
X128723571Y-107012619D01*
X128723571Y-106891666D01*
X128663095Y-106770714D01*
X128602619Y-106710238D01*
X128481666Y-106649761D01*
X128239761Y-106589285D01*
X128118809Y-106528809D01*
X128058333Y-106468333D01*
X127997857Y-106347380D01*
X127997857Y-106226428D01*
X128058333Y-106105476D01*
X128118809Y-106045000D01*
X128239761Y-105984523D01*
X128542142Y-105984523D01*
X128723571Y-106045000D01*
X129267857Y-107254523D02*
X129267857Y-105984523D01*
X129570238Y-105984523D01*
X129751666Y-106045000D01*
X129872619Y-106165952D01*
X129933095Y-106286904D01*
X129993571Y-106528809D01*
X129993571Y-106710238D01*
X129933095Y-106952142D01*
X129872619Y-107073095D01*
X129751666Y-107194047D01*
X129570238Y-107254523D01*
X129267857Y-107254523D01*
X130477380Y-106891666D02*
X131082142Y-106891666D01*
X130356428Y-107254523D02*
X130779761Y-105984523D01*
X131203095Y-107254523D01*
X128028095Y-109734047D02*
X128209523Y-109794523D01*
X128511904Y-109794523D01*
X128632857Y-109734047D01*
X128693333Y-109673571D01*
X128753809Y-109552619D01*
X128753809Y-109431666D01*
X128693333Y-109310714D01*
X128632857Y-109250238D01*
X128511904Y-109189761D01*
X128270000Y-109129285D01*
X128149047Y-109068809D01*
X128088571Y-109008333D01*
X128028095Y-108887380D01*
X128028095Y-108766428D01*
X128088571Y-108645476D01*
X128149047Y-108585000D01*
X128270000Y-108524523D01*
X128572380Y-108524523D01*
X128753809Y-108585000D01*
X130023809Y-109673571D02*
X129963333Y-109734047D01*
X129781904Y-109794523D01*
X129660952Y-109794523D01*
X129479523Y-109734047D01*
X129358571Y-109613095D01*
X129298095Y-109492142D01*
X129237619Y-109250238D01*
X129237619Y-109068809D01*
X129298095Y-108826904D01*
X129358571Y-108705952D01*
X129479523Y-108585000D01*
X129660952Y-108524523D01*
X129781904Y-108524523D01*
X129963333Y-108585000D01*
X130023809Y-108645476D01*
X131172857Y-109794523D02*
X130568095Y-109794523D01*
X130568095Y-108524523D01*
X124157619Y-130114523D02*
X124157619Y-128844523D01*
X124641428Y-128844523D01*
X124762380Y-128905000D01*
X124822857Y-128965476D01*
X124883333Y-129086428D01*
X124883333Y-129267857D01*
X124822857Y-129388809D01*
X124762380Y-129449285D01*
X124641428Y-129509761D01*
X124157619Y-129509761D01*
X125850952Y-129449285D02*
X126032380Y-129509761D01*
X126092857Y-129570238D01*
X126153333Y-129691190D01*
X126153333Y-129872619D01*
X126092857Y-129993571D01*
X126032380Y-130054047D01*
X125911428Y-130114523D01*
X125427619Y-130114523D01*
X125427619Y-128844523D01*
X125850952Y-128844523D01*
X125971904Y-128905000D01*
X126032380Y-128965476D01*
X126092857Y-129086428D01*
X126092857Y-129207380D01*
X126032380Y-129328333D01*
X125971904Y-129388809D01*
X125850952Y-129449285D01*
X125427619Y-129449285D01*
X127362857Y-130114523D02*
X126637142Y-130114523D01*
X127000000Y-130114523D02*
X127000000Y-128844523D01*
X126879047Y-129025952D01*
X126758095Y-129146904D01*
X126637142Y-129207380D01*
X127967619Y-112334523D02*
X127967619Y-111064523D01*
X128451428Y-111064523D01*
X128572380Y-111125000D01*
X128632857Y-111185476D01*
X128693333Y-111306428D01*
X128693333Y-111487857D01*
X128632857Y-111608809D01*
X128572380Y-111669285D01*
X128451428Y-111729761D01*
X127967619Y-111729761D01*
X129660952Y-111669285D02*
X129842380Y-111729761D01*
X129902857Y-111790238D01*
X129963333Y-111911190D01*
X129963333Y-112092619D01*
X129902857Y-112213571D01*
X129842380Y-112274047D01*
X129721428Y-112334523D01*
X129237619Y-112334523D01*
X129237619Y-111064523D01*
X129660952Y-111064523D01*
X129781904Y-111125000D01*
X129842380Y-111185476D01*
X129902857Y-111306428D01*
X129902857Y-111427380D01*
X129842380Y-111548333D01*
X129781904Y-111608809D01*
X129660952Y-111669285D01*
X129237619Y-111669285D01*
X130689047Y-111608809D02*
X130568095Y-111548333D01*
X130507619Y-111487857D01*
X130447142Y-111366904D01*
X130447142Y-111306428D01*
X130507619Y-111185476D01*
X130568095Y-111125000D01*
X130689047Y-111064523D01*
X130930952Y-111064523D01*
X131051904Y-111125000D01*
X131112380Y-111185476D01*
X131172857Y-111306428D01*
X131172857Y-111366904D01*
X131112380Y-111487857D01*
X131051904Y-111548333D01*
X130930952Y-111608809D01*
X130689047Y-111608809D01*
X130568095Y-111669285D01*
X130507619Y-111729761D01*
X130447142Y-111850714D01*
X130447142Y-112092619D01*
X130507619Y-112213571D01*
X130568095Y-112274047D01*
X130689047Y-112334523D01*
X130930952Y-112334523D01*
X131051904Y-112274047D01*
X131112380Y-112213571D01*
X131172857Y-112092619D01*
X131172857Y-111850714D01*
X131112380Y-111729761D01*
X131051904Y-111669285D01*
X130930952Y-111608809D01*
X127967619Y-114874523D02*
X127967619Y-113604523D01*
X128451428Y-113604523D01*
X128572380Y-113665000D01*
X128632857Y-113725476D01*
X128693333Y-113846428D01*
X128693333Y-114027857D01*
X128632857Y-114148809D01*
X128572380Y-114209285D01*
X128451428Y-114269761D01*
X127967619Y-114269761D01*
X129660952Y-114209285D02*
X129842380Y-114269761D01*
X129902857Y-114330238D01*
X129963333Y-114451190D01*
X129963333Y-114632619D01*
X129902857Y-114753571D01*
X129842380Y-114814047D01*
X129721428Y-114874523D01*
X129237619Y-114874523D01*
X129237619Y-113604523D01*
X129660952Y-113604523D01*
X129781904Y-113665000D01*
X129842380Y-113725476D01*
X129902857Y-113846428D01*
X129902857Y-113967380D01*
X129842380Y-114088333D01*
X129781904Y-114148809D01*
X129660952Y-114209285D01*
X129237619Y-114209285D01*
X130386666Y-113604523D02*
X131233333Y-113604523D01*
X130689047Y-114874523D01*
X127967619Y-117414523D02*
X127967619Y-116144523D01*
X128451428Y-116144523D01*
X128572380Y-116205000D01*
X128632857Y-116265476D01*
X128693333Y-116386428D01*
X128693333Y-116567857D01*
X128632857Y-116688809D01*
X128572380Y-116749285D01*
X128451428Y-116809761D01*
X127967619Y-116809761D01*
X129660952Y-116749285D02*
X129842380Y-116809761D01*
X129902857Y-116870238D01*
X129963333Y-116991190D01*
X129963333Y-117172619D01*
X129902857Y-117293571D01*
X129842380Y-117354047D01*
X129721428Y-117414523D01*
X129237619Y-117414523D01*
X129237619Y-116144523D01*
X129660952Y-116144523D01*
X129781904Y-116205000D01*
X129842380Y-116265476D01*
X129902857Y-116386428D01*
X129902857Y-116507380D01*
X129842380Y-116628333D01*
X129781904Y-116688809D01*
X129660952Y-116749285D01*
X129237619Y-116749285D01*
X131051904Y-116144523D02*
X130810000Y-116144523D01*
X130689047Y-116205000D01*
X130628571Y-116265476D01*
X130507619Y-116446904D01*
X130447142Y-116688809D01*
X130447142Y-117172619D01*
X130507619Y-117293571D01*
X130568095Y-117354047D01*
X130689047Y-117414523D01*
X130930952Y-117414523D01*
X131051904Y-117354047D01*
X131112380Y-117293571D01*
X131172857Y-117172619D01*
X131172857Y-116870238D01*
X131112380Y-116749285D01*
X131051904Y-116688809D01*
X130930952Y-116628333D01*
X130689047Y-116628333D01*
X130568095Y-116688809D01*
X130507619Y-116749285D01*
X130447142Y-116870238D01*
X127967619Y-119954523D02*
X127967619Y-118684523D01*
X128451428Y-118684523D01*
X128572380Y-118745000D01*
X128632857Y-118805476D01*
X128693333Y-118926428D01*
X128693333Y-119107857D01*
X128632857Y-119228809D01*
X128572380Y-119289285D01*
X128451428Y-119349761D01*
X127967619Y-119349761D01*
X129660952Y-119289285D02*
X129842380Y-119349761D01*
X129902857Y-119410238D01*
X129963333Y-119531190D01*
X129963333Y-119712619D01*
X129902857Y-119833571D01*
X129842380Y-119894047D01*
X129721428Y-119954523D01*
X129237619Y-119954523D01*
X129237619Y-118684523D01*
X129660952Y-118684523D01*
X129781904Y-118745000D01*
X129842380Y-118805476D01*
X129902857Y-118926428D01*
X129902857Y-119047380D01*
X129842380Y-119168333D01*
X129781904Y-119228809D01*
X129660952Y-119289285D01*
X129237619Y-119289285D01*
X131112380Y-118684523D02*
X130507619Y-118684523D01*
X130447142Y-119289285D01*
X130507619Y-119228809D01*
X130628571Y-119168333D01*
X130930952Y-119168333D01*
X131051904Y-119228809D01*
X131112380Y-119289285D01*
X131172857Y-119410238D01*
X131172857Y-119712619D01*
X131112380Y-119833571D01*
X131051904Y-119894047D01*
X130930952Y-119954523D01*
X130628571Y-119954523D01*
X130507619Y-119894047D01*
X130447142Y-119833571D01*
X127967619Y-122494523D02*
X127967619Y-121224523D01*
X128451428Y-121224523D01*
X128572380Y-121285000D01*
X128632857Y-121345476D01*
X128693333Y-121466428D01*
X128693333Y-121647857D01*
X128632857Y-121768809D01*
X128572380Y-121829285D01*
X128451428Y-121889761D01*
X127967619Y-121889761D01*
X129660952Y-121829285D02*
X129842380Y-121889761D01*
X129902857Y-121950238D01*
X129963333Y-122071190D01*
X129963333Y-122252619D01*
X129902857Y-122373571D01*
X129842380Y-122434047D01*
X129721428Y-122494523D01*
X129237619Y-122494523D01*
X129237619Y-121224523D01*
X129660952Y-121224523D01*
X129781904Y-121285000D01*
X129842380Y-121345476D01*
X129902857Y-121466428D01*
X129902857Y-121587380D01*
X129842380Y-121708333D01*
X129781904Y-121768809D01*
X129660952Y-121829285D01*
X129237619Y-121829285D01*
X131051904Y-121647857D02*
X131051904Y-122494523D01*
X130749523Y-121164047D02*
X130447142Y-122071190D01*
X131233333Y-122071190D01*
X127967619Y-125034523D02*
X127967619Y-123764523D01*
X128451428Y-123764523D01*
X128572380Y-123825000D01*
X128632857Y-123885476D01*
X128693333Y-124006428D01*
X128693333Y-124187857D01*
X128632857Y-124308809D01*
X128572380Y-124369285D01*
X128451428Y-124429761D01*
X127967619Y-124429761D01*
X129660952Y-124369285D02*
X129842380Y-124429761D01*
X129902857Y-124490238D01*
X129963333Y-124611190D01*
X129963333Y-124792619D01*
X129902857Y-124913571D01*
X129842380Y-124974047D01*
X129721428Y-125034523D01*
X129237619Y-125034523D01*
X129237619Y-123764523D01*
X129660952Y-123764523D01*
X129781904Y-123825000D01*
X129842380Y-123885476D01*
X129902857Y-124006428D01*
X129902857Y-124127380D01*
X129842380Y-124248333D01*
X129781904Y-124308809D01*
X129660952Y-124369285D01*
X129237619Y-124369285D01*
X130386666Y-123764523D02*
X131172857Y-123764523D01*
X130749523Y-124248333D01*
X130930952Y-124248333D01*
X131051904Y-124308809D01*
X131112380Y-124369285D01*
X131172857Y-124490238D01*
X131172857Y-124792619D01*
X131112380Y-124913571D01*
X131051904Y-124974047D01*
X130930952Y-125034523D01*
X130568095Y-125034523D01*
X130447142Y-124974047D01*
X130386666Y-124913571D01*
X127870857Y-127574523D02*
X127870857Y-126304523D01*
X128257904Y-126304523D01*
X128354666Y-126365000D01*
X128403047Y-126425476D01*
X128451428Y-126546428D01*
X128451428Y-126727857D01*
X128403047Y-126848809D01*
X128354666Y-126909285D01*
X128257904Y-126969761D01*
X127870857Y-126969761D01*
X128838476Y-127211666D02*
X129322285Y-127211666D01*
X128741714Y-127574523D02*
X129080380Y-126304523D01*
X129419047Y-127574523D01*
X130289904Y-127574523D02*
X129709333Y-127574523D01*
X129999619Y-127574523D02*
X129999619Y-126304523D01*
X129902857Y-126485952D01*
X129806095Y-126606904D01*
X129709333Y-126667380D01*
X131209142Y-126304523D02*
X130725333Y-126304523D01*
X130676952Y-126909285D01*
X130725333Y-126848809D01*
X130822095Y-126788333D01*
X131064000Y-126788333D01*
X131160761Y-126848809D01*
X131209142Y-126909285D01*
X131257523Y-127030238D01*
X131257523Y-127332619D01*
X131209142Y-127453571D01*
X131160761Y-127514047D01*
X131064000Y-127574523D01*
X130822095Y-127574523D01*
X130725333Y-127514047D01*
X130676952Y-127453571D01*
X128058333Y-130114523D02*
X128058333Y-128844523D01*
X128542142Y-128844523D01*
X128663095Y-128905000D01*
X128723571Y-128965476D01*
X128784047Y-129086428D01*
X128784047Y-129267857D01*
X128723571Y-129388809D01*
X128663095Y-129449285D01*
X128542142Y-129509761D01*
X128058333Y-129509761D01*
X129267857Y-129751666D02*
X129872619Y-129751666D01*
X129146904Y-130114523D02*
X129570238Y-128844523D01*
X129993571Y-130114523D01*
X130598333Y-129388809D02*
X130477380Y-129328333D01*
X130416904Y-129267857D01*
X130356428Y-129146904D01*
X130356428Y-129086428D01*
X130416904Y-128965476D01*
X130477380Y-128905000D01*
X130598333Y-128844523D01*
X130840238Y-128844523D01*
X130961190Y-128905000D01*
X131021666Y-128965476D01*
X131082142Y-129086428D01*
X131082142Y-129146904D01*
X131021666Y-129267857D01*
X130961190Y-129328333D01*
X130840238Y-129388809D01*
X130598333Y-129388809D01*
X130477380Y-129449285D01*
X130416904Y-129509761D01*
X130356428Y-129630714D01*
X130356428Y-129872619D01*
X130416904Y-129993571D01*
X130477380Y-130054047D01*
X130598333Y-130114523D01*
X130840238Y-130114523D01*
X130961190Y-130054047D01*
X131021666Y-129993571D01*
X131082142Y-129872619D01*
X131082142Y-129630714D01*
X131021666Y-129509761D01*
X130961190Y-129449285D01*
X130840238Y-129388809D01*
X124157619Y-127574523D02*
X124157619Y-126304523D01*
X124641428Y-126304523D01*
X124762380Y-126365000D01*
X124822857Y-126425476D01*
X124883333Y-126546428D01*
X124883333Y-126727857D01*
X124822857Y-126848809D01*
X124762380Y-126909285D01*
X124641428Y-126969761D01*
X124157619Y-126969761D01*
X125850952Y-126909285D02*
X126032380Y-126969761D01*
X126092857Y-127030238D01*
X126153333Y-127151190D01*
X126153333Y-127332619D01*
X126092857Y-127453571D01*
X126032380Y-127514047D01*
X125911428Y-127574523D01*
X125427619Y-127574523D01*
X125427619Y-126304523D01*
X125850952Y-126304523D01*
X125971904Y-126365000D01*
X126032380Y-126425476D01*
X126092857Y-126546428D01*
X126092857Y-126667380D01*
X126032380Y-126788333D01*
X125971904Y-126848809D01*
X125850952Y-126909285D01*
X125427619Y-126909285D01*
X126939523Y-126304523D02*
X127060476Y-126304523D01*
X127181428Y-126365000D01*
X127241904Y-126425476D01*
X127302380Y-126546428D01*
X127362857Y-126788333D01*
X127362857Y-127090714D01*
X127302380Y-127332619D01*
X127241904Y-127453571D01*
X127181428Y-127514047D01*
X127060476Y-127574523D01*
X126939523Y-127574523D01*
X126818571Y-127514047D01*
X126758095Y-127453571D01*
X126697619Y-127332619D01*
X126637142Y-127090714D01*
X126637142Y-126788333D01*
X126697619Y-126546428D01*
X126758095Y-126425476D01*
X126818571Y-126365000D01*
X126939523Y-126304523D01*
X124248333Y-125034523D02*
X124248333Y-123764523D01*
X124732142Y-123764523D01*
X124853095Y-123825000D01*
X124913571Y-123885476D01*
X124974047Y-124006428D01*
X124974047Y-124187857D01*
X124913571Y-124308809D01*
X124853095Y-124369285D01*
X124732142Y-124429761D01*
X124248333Y-124429761D01*
X125457857Y-124671666D02*
X126062619Y-124671666D01*
X125336904Y-125034523D02*
X125760238Y-123764523D01*
X126183571Y-125034523D01*
X126485952Y-123764523D02*
X127332619Y-123764523D01*
X126788333Y-125034523D01*
X124248333Y-122494523D02*
X124248333Y-121224523D01*
X124732142Y-121224523D01*
X124853095Y-121285000D01*
X124913571Y-121345476D01*
X124974047Y-121466428D01*
X124974047Y-121647857D01*
X124913571Y-121768809D01*
X124853095Y-121829285D01*
X124732142Y-121889761D01*
X124248333Y-121889761D01*
X125457857Y-122131666D02*
X126062619Y-122131666D01*
X125336904Y-122494523D02*
X125760238Y-121224523D01*
X126183571Y-122494523D01*
X127151190Y-121224523D02*
X126909285Y-121224523D01*
X126788333Y-121285000D01*
X126727857Y-121345476D01*
X126606904Y-121526904D01*
X126546428Y-121768809D01*
X126546428Y-122252619D01*
X126606904Y-122373571D01*
X126667380Y-122434047D01*
X126788333Y-122494523D01*
X127030238Y-122494523D01*
X127151190Y-122434047D01*
X127211666Y-122373571D01*
X127272142Y-122252619D01*
X127272142Y-121950238D01*
X127211666Y-121829285D01*
X127151190Y-121768809D01*
X127030238Y-121708333D01*
X126788333Y-121708333D01*
X126667380Y-121768809D01*
X126606904Y-121829285D01*
X126546428Y-121950238D01*
X124248333Y-119954523D02*
X124248333Y-118684523D01*
X124732142Y-118684523D01*
X124853095Y-118745000D01*
X124913571Y-118805476D01*
X124974047Y-118926428D01*
X124974047Y-119107857D01*
X124913571Y-119228809D01*
X124853095Y-119289285D01*
X124732142Y-119349761D01*
X124248333Y-119349761D01*
X125457857Y-119591666D02*
X126062619Y-119591666D01*
X125336904Y-119954523D02*
X125760238Y-118684523D01*
X126183571Y-119954523D01*
X127211666Y-118684523D02*
X126606904Y-118684523D01*
X126546428Y-119289285D01*
X126606904Y-119228809D01*
X126727857Y-119168333D01*
X127030238Y-119168333D01*
X127151190Y-119228809D01*
X127211666Y-119289285D01*
X127272142Y-119410238D01*
X127272142Y-119712619D01*
X127211666Y-119833571D01*
X127151190Y-119894047D01*
X127030238Y-119954523D01*
X126727857Y-119954523D01*
X126606904Y-119894047D01*
X126546428Y-119833571D01*
X124248333Y-117414523D02*
X124248333Y-116144523D01*
X124732142Y-116144523D01*
X124853095Y-116205000D01*
X124913571Y-116265476D01*
X124974047Y-116386428D01*
X124974047Y-116567857D01*
X124913571Y-116688809D01*
X124853095Y-116749285D01*
X124732142Y-116809761D01*
X124248333Y-116809761D01*
X125457857Y-117051666D02*
X126062619Y-117051666D01*
X125336904Y-117414523D02*
X125760238Y-116144523D01*
X126183571Y-117414523D01*
X127151190Y-116567857D02*
X127151190Y-117414523D01*
X126848809Y-116084047D02*
X126546428Y-116991190D01*
X127332619Y-116991190D01*
X124248333Y-114874523D02*
X124248333Y-113604523D01*
X124732142Y-113604523D01*
X124853095Y-113665000D01*
X124913571Y-113725476D01*
X124974047Y-113846428D01*
X124974047Y-114027857D01*
X124913571Y-114148809D01*
X124853095Y-114209285D01*
X124732142Y-114269761D01*
X124248333Y-114269761D01*
X125457857Y-114511666D02*
X126062619Y-114511666D01*
X125336904Y-114874523D02*
X125760238Y-113604523D01*
X126183571Y-114874523D01*
X126485952Y-113604523D02*
X127272142Y-113604523D01*
X126848809Y-114088333D01*
X127030238Y-114088333D01*
X127151190Y-114148809D01*
X127211666Y-114209285D01*
X127272142Y-114330238D01*
X127272142Y-114632619D01*
X127211666Y-114753571D01*
X127151190Y-114814047D01*
X127030238Y-114874523D01*
X126667380Y-114874523D01*
X126546428Y-114814047D01*
X126485952Y-114753571D01*
X124248333Y-112334523D02*
X124248333Y-111064523D01*
X124732142Y-111064523D01*
X124853095Y-111125000D01*
X124913571Y-111185476D01*
X124974047Y-111306428D01*
X124974047Y-111487857D01*
X124913571Y-111608809D01*
X124853095Y-111669285D01*
X124732142Y-111729761D01*
X124248333Y-111729761D01*
X125457857Y-111971666D02*
X126062619Y-111971666D01*
X125336904Y-112334523D02*
X125760238Y-111064523D01*
X126183571Y-112334523D01*
X126546428Y-111185476D02*
X126606904Y-111125000D01*
X126727857Y-111064523D01*
X127030238Y-111064523D01*
X127151190Y-111125000D01*
X127211666Y-111185476D01*
X127272142Y-111306428D01*
X127272142Y-111427380D01*
X127211666Y-111608809D01*
X126485952Y-112334523D01*
X127272142Y-112334523D01*
X124248333Y-109794523D02*
X124248333Y-108524523D01*
X124732142Y-108524523D01*
X124853095Y-108585000D01*
X124913571Y-108645476D01*
X124974047Y-108766428D01*
X124974047Y-108947857D01*
X124913571Y-109068809D01*
X124853095Y-109129285D01*
X124732142Y-109189761D01*
X124248333Y-109189761D01*
X125457857Y-109431666D02*
X126062619Y-109431666D01*
X125336904Y-109794523D02*
X125760238Y-108524523D01*
X126183571Y-109794523D01*
X127272142Y-109794523D02*
X126546428Y-109794523D01*
X126909285Y-109794523D02*
X126909285Y-108524523D01*
X126788333Y-108705952D01*
X126667380Y-108826904D01*
X126546428Y-108887380D01*
X124248333Y-107254523D02*
X124248333Y-105984523D01*
X124732142Y-105984523D01*
X124853095Y-106045000D01*
X124913571Y-106105476D01*
X124974047Y-106226428D01*
X124974047Y-106407857D01*
X124913571Y-106528809D01*
X124853095Y-106589285D01*
X124732142Y-106649761D01*
X124248333Y-106649761D01*
X125457857Y-106891666D02*
X126062619Y-106891666D01*
X125336904Y-107254523D02*
X125760238Y-105984523D01*
X126183571Y-107254523D01*
X126848809Y-105984523D02*
X126969761Y-105984523D01*
X127090714Y-106045000D01*
X127151190Y-106105476D01*
X127211666Y-106226428D01*
X127272142Y-106468333D01*
X127272142Y-106770714D01*
X127211666Y-107012619D01*
X127151190Y-107133571D01*
X127090714Y-107194047D01*
X126969761Y-107254523D01*
X126848809Y-107254523D01*
X126727857Y-107194047D01*
X126667380Y-107133571D01*
X126606904Y-107012619D01*
X126546428Y-106770714D01*
X126546428Y-106468333D01*
X126606904Y-106226428D01*
X126667380Y-106105476D01*
X126727857Y-106045000D01*
X126848809Y-105984523D01*
X129298095Y-103444523D02*
X128693333Y-103444523D01*
X128632857Y-104049285D01*
X128693333Y-103988809D01*
X128814285Y-103928333D01*
X129116666Y-103928333D01*
X129237619Y-103988809D01*
X129298095Y-104049285D01*
X129358571Y-104170238D01*
X129358571Y-104472619D01*
X129298095Y-104593571D01*
X129237619Y-104654047D01*
X129116666Y-104714523D01*
X128814285Y-104714523D01*
X128693333Y-104654047D01*
X128632857Y-104593571D01*
X129721428Y-103444523D02*
X130144761Y-104714523D01*
X130568095Y-103444523D01*
X125488095Y-103444523D02*
X124883333Y-103444523D01*
X124822857Y-104049285D01*
X124883333Y-103988809D01*
X125004285Y-103928333D01*
X125306666Y-103928333D01*
X125427619Y-103988809D01*
X125488095Y-104049285D01*
X125548571Y-104170238D01*
X125548571Y-104472619D01*
X125488095Y-104593571D01*
X125427619Y-104654047D01*
X125306666Y-104714523D01*
X125004285Y-104714523D01*
X124883333Y-104654047D01*
X124822857Y-104593571D01*
X125911428Y-103444523D02*
X126334761Y-104714523D01*
X126758095Y-103444523D01*
X128572380Y-100965000D02*
X128451428Y-100904523D01*
X128270000Y-100904523D01*
X128088571Y-100965000D01*
X127967619Y-101085952D01*
X127907142Y-101206904D01*
X127846666Y-101448809D01*
X127846666Y-101630238D01*
X127907142Y-101872142D01*
X127967619Y-101993095D01*
X128088571Y-102114047D01*
X128270000Y-102174523D01*
X128390952Y-102174523D01*
X128572380Y-102114047D01*
X128632857Y-102053571D01*
X128632857Y-101630238D01*
X128390952Y-101630238D01*
X129177142Y-102174523D02*
X129177142Y-100904523D01*
X129902857Y-102174523D01*
X129902857Y-100904523D01*
X130507619Y-102174523D02*
X130507619Y-100904523D01*
X130810000Y-100904523D01*
X130991428Y-100965000D01*
X131112380Y-101085952D01*
X131172857Y-101206904D01*
X131233333Y-101448809D01*
X131233333Y-101630238D01*
X131172857Y-101872142D01*
X131112380Y-101993095D01*
X130991428Y-102114047D01*
X130810000Y-102174523D01*
X130507619Y-102174523D01*
X124762380Y-100965000D02*
X124641428Y-100904523D01*
X124460000Y-100904523D01*
X124278571Y-100965000D01*
X124157619Y-101085952D01*
X124097142Y-101206904D01*
X124036666Y-101448809D01*
X124036666Y-101630238D01*
X124097142Y-101872142D01*
X124157619Y-101993095D01*
X124278571Y-102114047D01*
X124460000Y-102174523D01*
X124580952Y-102174523D01*
X124762380Y-102114047D01*
X124822857Y-102053571D01*
X124822857Y-101630238D01*
X124580952Y-101630238D01*
X125367142Y-102174523D02*
X125367142Y-100904523D01*
X126092857Y-102174523D01*
X126092857Y-100904523D01*
X126697619Y-102174523D02*
X126697619Y-100904523D01*
X127000000Y-100904523D01*
X127181428Y-100965000D01*
X127302380Y-101085952D01*
X127362857Y-101206904D01*
X127423333Y-101448809D01*
X127423333Y-101630238D01*
X127362857Y-101872142D01*
X127302380Y-101993095D01*
X127181428Y-102114047D01*
X127000000Y-102174523D01*
X126697619Y-102174523D01*
D12*
X131385000Y-130870000D02*
X134045000Y-130870000D01*
X131385000Y-102870000D02*
X131385000Y-130870000D01*
X134045000Y-102870000D02*
X134045000Y-130870000D01*
X131385000Y-102870000D02*
X134045000Y-102870000D01*
X131385000Y-101600000D02*
X131385000Y-100270000D01*
X131385000Y-100270000D02*
X132715000Y-100270000D01*
X129232000Y-92718000D02*
X129232000Y-93018000D01*
X129232000Y-93018000D02*
X129532000Y-93018000D01*
X129232000Y-86098000D02*
X129232000Y-85798000D01*
X129232000Y-85798000D02*
X129532000Y-85798000D01*
X136452000Y-92718000D02*
X136452000Y-93018000D01*
X136452000Y-93018000D02*
X136152000Y-93018000D01*
X136452000Y-86098000D02*
X136452000Y-85798000D01*
X136452000Y-85798000D02*
X136152000Y-85798000D01*
X136152000Y-85798000D02*
X136152000Y-84483000D01*
X121225000Y-100270000D02*
X122555000Y-100270000D01*
X121225000Y-101600000D02*
X121225000Y-100270000D01*
X121225000Y-102870000D02*
X123885000Y-102870000D01*
X123885000Y-102870000D02*
X123885000Y-130870000D01*
X121225000Y-102870000D02*
X121225000Y-130870000D01*
X121225000Y-130870000D02*
X123885000Y-130870000D01*
X126871000Y-69987279D02*
X126871000Y-69661721D01*
X127891000Y-69987279D02*
X127891000Y-69661721D01*
X129923000Y-69987279D02*
X129923000Y-69661721D01*
X128903000Y-69987279D02*
X128903000Y-69661721D01*
X131955000Y-70038279D02*
X131955000Y-69712721D01*
X130935000Y-70038279D02*
X130935000Y-69712721D01*
X137729279Y-76202000D02*
X137403721Y-76202000D01*
X137729279Y-75182000D02*
X137403721Y-75182000D01*
X114437279Y-86362000D02*
X114111721Y-86362000D01*
X114437279Y-85342000D02*
X114111721Y-85342000D01*
X134749000Y-78166279D02*
X134749000Y-77840721D01*
X133729000Y-78166279D02*
X133729000Y-77840721D01*
X138775221Y-83183000D02*
X139100779Y-83183000D01*
X138775221Y-84203000D02*
X139100779Y-84203000D01*
X128915279Y-97290999D02*
X128589721Y-97290999D01*
X128915279Y-96270999D02*
X128589721Y-96270999D01*
X131760279Y-81532000D02*
X131434721Y-81532000D01*
X131760279Y-82552000D02*
X131434721Y-82552000D01*
X138749721Y-82679000D02*
X139075279Y-82679000D01*
X138749721Y-81659000D02*
X139075279Y-81659000D01*
X128902779Y-94740000D02*
X128577221Y-94740000D01*
X128902779Y-95760000D02*
X128577221Y-95760000D01*
X131734779Y-80774000D02*
X131409221Y-80774000D01*
X131734779Y-79754000D02*
X131409221Y-79754000D01*
X138800721Y-80008000D02*
X139126279Y-80008000D01*
X138800721Y-81028000D02*
X139126279Y-81028000D01*
X120184000Y-70992000D02*
X120184000Y-67692000D01*
X120184000Y-67692000D02*
X113284000Y-67692000D01*
X120184000Y-70992000D02*
X113284000Y-70992000D01*
X125039000Y-66405000D02*
X125039000Y-63720000D01*
X125039000Y-63720000D02*
X123119000Y-63720000D01*
X123119000Y-63720000D02*
X123119000Y-66405000D01*
X128199000Y-63671500D02*
X128199000Y-66356500D01*
X130119000Y-63671500D02*
X128199000Y-63671500D01*
X130119000Y-66356500D02*
X130119000Y-63671500D01*
X115665000Y-89221000D02*
X119195000Y-89221000D01*
X115665000Y-95691000D02*
X119195000Y-95691000D01*
X114340000Y-89286000D02*
X115665000Y-89286000D01*
X115665000Y-89221000D02*
X115665000Y-89286000D01*
X119195000Y-89221000D02*
X119195000Y-89286000D01*
X115665000Y-95626000D02*
X115665000Y-95691000D01*
X119195000Y-95626000D02*
X119195000Y-95691000D01*
X140768000Y-69852000D02*
X142168000Y-69852000D01*
X140768000Y-71402000D02*
X142168000Y-71402000D01*
X134568000Y-70952000D02*
X134568000Y-60427000D01*
X140768000Y-71402000D02*
X140768000Y-72527000D01*
X140768000Y-67452000D02*
X140768000Y-69852000D01*
X140768000Y-64452000D02*
X140768000Y-65802000D01*
X140768000Y-60427000D02*
X140768000Y-62802000D01*
X134568000Y-72527000D02*
X140768000Y-72527000D01*
X140768000Y-60427000D02*
X140168000Y-60427000D01*
X135168000Y-60427000D02*
X134568000Y-60427000D01*
X140168000Y-58427000D02*
X135168000Y-58427000D01*
X140168000Y-60427000D02*
X140168000Y-58427000D01*
X135168000Y-60427000D02*
X135168000Y-58427000D01*
X111319000Y-71822000D02*
X111319000Y-74482000D01*
X113919000Y-71822000D02*
X111319000Y-71822000D01*
X113919000Y-74482000D02*
X111319000Y-74482000D01*
X113919000Y-71822000D02*
X113919000Y-74482000D01*
X115189000Y-71822000D02*
X116519000Y-71822000D01*
X116519000Y-71822000D02*
X116519000Y-73152000D01*
X121127000Y-57564000D02*
X111937000Y-57564000D01*
X121007000Y-66974000D02*
X112057000Y-66974000D01*
X111937000Y-60294000D02*
X111937000Y-57564000D01*
X121127000Y-60294000D02*
X121127000Y-57564000D01*
X111937000Y-63894000D02*
X111937000Y-62994000D01*
X121127000Y-63894000D02*
X121127000Y-62994000D01*
X141431001Y-96641999D02*
X140501001Y-96641999D01*
X138271001Y-96641999D02*
X139201001Y-96641999D01*
X138271001Y-96641999D02*
X138271001Y-98801999D01*
X141431001Y-96641999D02*
X141431001Y-98101999D01*
X141792999Y-90772999D02*
X143252999Y-90772999D01*
X141792999Y-93932999D02*
X143952999Y-93932999D01*
X141792999Y-93932999D02*
X141792999Y-93002999D01*
X141792999Y-90772999D02*
X141792999Y-91702999D01*
X143004000Y-97419279D02*
X143004000Y-97093721D01*
X141984000Y-97419279D02*
X141984000Y-97093721D01*
X142529779Y-90172000D02*
X142204221Y-90172000D01*
X142529779Y-89152000D02*
X142204221Y-89152000D01*
X114869279Y-76202000D02*
X114543721Y-76202000D01*
X114869279Y-75182000D02*
X114543721Y-75182000D01*
X123814721Y-62228000D02*
X124140279Y-62228000D01*
X123814721Y-63248000D02*
X124140279Y-63248000D01*
X129169279Y-62253500D02*
X128843721Y-62253500D01*
X129169279Y-63273500D02*
X128843721Y-63273500D01*
X115300000Y-84494000D02*
X119800000Y-84494000D01*
X114050000Y-80494000D02*
X114050000Y-81994000D01*
X119800000Y-77994000D02*
X115300000Y-77994000D01*
X121050000Y-81994000D02*
X121050000Y-80494000D01*
X129977000Y-72392000D02*
X129047000Y-72392000D01*
X126817000Y-72392000D02*
X127747000Y-72392000D01*
X126817000Y-72392000D02*
X126817000Y-74552000D01*
X129977000Y-72392000D02*
X129977000Y-73852000D01*
D13*
X139076000Y-79667000D02*
X139076000Y-78067000D01*
X139076000Y-79667000D02*
X137076000Y-79667000D01*
D14*
X122139000Y-75422000D02*
X121039000Y-74522000D01*
X122139000Y-73722000D02*
X122139000Y-75422000D01*
X121039000Y-74522000D02*
X122139000Y-73722000D01*
X121039000Y-73722000D02*
X121039000Y-75422000D01*
D12*
X118364000Y-73088500D02*
X118364000Y-75755500D01*
X118364000Y-75755500D02*
X121539000Y-75755500D01*
X118364000Y-73088500D02*
X121539000Y-73088500D01*
X122971936Y-68432000D02*
X124176064Y-68432000D01*
X122971936Y-70252000D02*
X124176064Y-70252000D01*
X114137221Y-88140000D02*
X114462779Y-88140000D01*
X114137221Y-87120000D02*
X114462779Y-87120000D01*
X117536279Y-86362000D02*
X117210721Y-86362000D01*
X117536279Y-85342000D02*
X117210721Y-85342000D01*
D15*
X132381666Y-98722380D02*
X132381666Y-99436666D01*
X132334047Y-99579523D01*
X132238809Y-99674761D01*
X132095952Y-99722380D01*
X132000714Y-99722380D01*
X133286428Y-99055714D02*
X133286428Y-99722380D01*
X133048333Y-98674761D02*
X132810238Y-99389047D01*
X133429285Y-99389047D01*
X127508095Y-84415380D02*
X127508095Y-85224904D01*
X127555714Y-85320142D01*
X127603333Y-85367761D01*
X127698571Y-85415380D01*
X127889047Y-85415380D01*
X127984285Y-85367761D01*
X128031904Y-85320142D01*
X128079523Y-85224904D01*
X128079523Y-84415380D01*
X128508095Y-84510619D02*
X128555714Y-84463000D01*
X128650952Y-84415380D01*
X128889047Y-84415380D01*
X128984285Y-84463000D01*
X129031904Y-84510619D01*
X129079523Y-84605857D01*
X129079523Y-84701095D01*
X129031904Y-84843952D01*
X128460476Y-85415380D01*
X129079523Y-85415380D01*
X122221666Y-98722380D02*
X122221666Y-99436666D01*
X122174047Y-99579523D01*
X122078809Y-99674761D01*
X121935952Y-99722380D01*
X121840714Y-99722380D01*
X122602619Y-98722380D02*
X123221666Y-98722380D01*
X122888333Y-99103333D01*
X123031190Y-99103333D01*
X123126428Y-99150952D01*
X123174047Y-99198571D01*
X123221666Y-99293809D01*
X123221666Y-99531904D01*
X123174047Y-99627142D01*
X123126428Y-99674761D01*
X123031190Y-99722380D01*
X122745476Y-99722380D01*
X122650238Y-99674761D01*
X122602619Y-99627142D01*
X127214333Y-68149642D02*
X127166714Y-68197261D01*
X127023857Y-68244880D01*
X126928619Y-68244880D01*
X126785761Y-68197261D01*
X126690523Y-68102023D01*
X126642904Y-68006785D01*
X126595285Y-67816309D01*
X126595285Y-67673452D01*
X126642904Y-67482976D01*
X126690523Y-67387738D01*
X126785761Y-67292500D01*
X126928619Y-67244880D01*
X127023857Y-67244880D01*
X127166714Y-67292500D01*
X127214333Y-67340119D01*
X128166714Y-68244880D02*
X127595285Y-68244880D01*
X127881000Y-68244880D02*
X127881000Y-67244880D01*
X127785761Y-67387738D01*
X127690523Y-67482976D01*
X127595285Y-67530595D01*
X129246333Y-68149642D02*
X129198714Y-68197261D01*
X129055857Y-68244880D01*
X128960619Y-68244880D01*
X128817761Y-68197261D01*
X128722523Y-68102023D01*
X128674904Y-68006785D01*
X128627285Y-67816309D01*
X128627285Y-67673452D01*
X128674904Y-67482976D01*
X128722523Y-67387738D01*
X128817761Y-67292500D01*
X128960619Y-67244880D01*
X129055857Y-67244880D01*
X129198714Y-67292500D01*
X129246333Y-67340119D01*
X129627285Y-67340119D02*
X129674904Y-67292500D01*
X129770142Y-67244880D01*
X130008238Y-67244880D01*
X130103476Y-67292500D01*
X130151095Y-67340119D01*
X130198714Y-67435357D01*
X130198714Y-67530595D01*
X130151095Y-67673452D01*
X129579666Y-68244880D01*
X130198714Y-68244880D01*
X131278333Y-68175142D02*
X131230714Y-68222761D01*
X131087857Y-68270380D01*
X130992619Y-68270380D01*
X130849761Y-68222761D01*
X130754523Y-68127523D01*
X130706904Y-68032285D01*
X130659285Y-67841809D01*
X130659285Y-67698952D01*
X130706904Y-67508476D01*
X130754523Y-67413238D01*
X130849761Y-67318000D01*
X130992619Y-67270380D01*
X131087857Y-67270380D01*
X131230714Y-67318000D01*
X131278333Y-67365619D01*
X131611666Y-67270380D02*
X132230714Y-67270380D01*
X131897380Y-67651333D01*
X132040238Y-67651333D01*
X132135476Y-67698952D01*
X132183095Y-67746571D01*
X132230714Y-67841809D01*
X132230714Y-68079904D01*
X132183095Y-68175142D01*
X132135476Y-68222761D01*
X132040238Y-68270380D01*
X131754523Y-68270380D01*
X131659285Y-68222761D01*
X131611666Y-68175142D01*
X135612142Y-75858666D02*
X135659761Y-75906285D01*
X135707380Y-76049142D01*
X135707380Y-76144380D01*
X135659761Y-76287238D01*
X135564523Y-76382476D01*
X135469285Y-76430095D01*
X135278809Y-76477714D01*
X135135952Y-76477714D01*
X134945476Y-76430095D01*
X134850238Y-76382476D01*
X134755000Y-76287238D01*
X134707380Y-76144380D01*
X134707380Y-76049142D01*
X134755000Y-75906285D01*
X134802619Y-75858666D01*
X135040714Y-75001523D02*
X135707380Y-75001523D01*
X134659761Y-75239619D02*
X135374047Y-75477714D01*
X135374047Y-74858666D01*
X112371142Y-86018666D02*
X112418761Y-86066285D01*
X112466380Y-86209142D01*
X112466380Y-86304380D01*
X112418761Y-86447238D01*
X112323523Y-86542476D01*
X112228285Y-86590095D01*
X112037809Y-86637714D01*
X111894952Y-86637714D01*
X111704476Y-86590095D01*
X111609238Y-86542476D01*
X111514000Y-86447238D01*
X111466380Y-86304380D01*
X111466380Y-86209142D01*
X111514000Y-86066285D01*
X111561619Y-86018666D01*
X111466380Y-85113904D02*
X111466380Y-85590095D01*
X111942571Y-85637714D01*
X111894952Y-85590095D01*
X111847333Y-85494857D01*
X111847333Y-85256761D01*
X111894952Y-85161523D01*
X111942571Y-85113904D01*
X112037809Y-85066285D01*
X112275904Y-85066285D01*
X112371142Y-85113904D01*
X112418761Y-85161523D01*
X112466380Y-85256761D01*
X112466380Y-85494857D01*
X112418761Y-85590095D01*
X112371142Y-85637714D01*
X134072333Y-80621142D02*
X134024714Y-80668761D01*
X133881857Y-80716380D01*
X133786619Y-80716380D01*
X133643761Y-80668761D01*
X133548523Y-80573523D01*
X133500904Y-80478285D01*
X133453285Y-80287809D01*
X133453285Y-80144952D01*
X133500904Y-79954476D01*
X133548523Y-79859238D01*
X133643761Y-79764000D01*
X133786619Y-79716380D01*
X133881857Y-79716380D01*
X134024714Y-79764000D01*
X134072333Y-79811619D01*
X134929476Y-79716380D02*
X134739000Y-79716380D01*
X134643761Y-79764000D01*
X134596142Y-79811619D01*
X134500904Y-79954476D01*
X134453285Y-80144952D01*
X134453285Y-80525904D01*
X134500904Y-80621142D01*
X134548523Y-80668761D01*
X134643761Y-80716380D01*
X134834238Y-80716380D01*
X134929476Y-80668761D01*
X134977095Y-80621142D01*
X135024714Y-80525904D01*
X135024714Y-80287809D01*
X134977095Y-80192571D01*
X134929476Y-80144952D01*
X134834238Y-80097333D01*
X134643761Y-80097333D01*
X134548523Y-80144952D01*
X134500904Y-80192571D01*
X134453285Y-80287809D01*
D16*
X137178142Y-83820000D02*
X137214428Y-83856285D01*
X137250714Y-83965142D01*
X137250714Y-84037714D01*
X137214428Y-84146571D01*
X137141857Y-84219142D01*
X137069285Y-84255428D01*
X136924142Y-84291714D01*
X136815285Y-84291714D01*
X136670142Y-84255428D01*
X136597571Y-84219142D01*
X136525000Y-84146571D01*
X136488714Y-84037714D01*
X136488714Y-83965142D01*
X136525000Y-83856285D01*
X136561285Y-83820000D01*
X136488714Y-83566000D02*
X136488714Y-83058000D01*
X137250714Y-83384571D01*
X131082142Y-96901000D02*
X131118428Y-96937285D01*
X131154714Y-97046142D01*
X131154714Y-97118714D01*
X131118428Y-97227571D01*
X131045857Y-97300142D01*
X130973285Y-97336428D01*
X130828142Y-97372714D01*
X130719285Y-97372714D01*
X130574142Y-97336428D01*
X130501571Y-97300142D01*
X130429000Y-97227571D01*
X130392714Y-97118714D01*
X130392714Y-97046142D01*
X130429000Y-96937285D01*
X130465285Y-96901000D01*
X130719285Y-96465571D02*
X130683000Y-96538142D01*
X130646714Y-96574428D01*
X130574142Y-96610714D01*
X130537857Y-96610714D01*
X130465285Y-96574428D01*
X130429000Y-96538142D01*
X130392714Y-96465571D01*
X130392714Y-96320428D01*
X130429000Y-96247857D01*
X130465285Y-96211571D01*
X130537857Y-96175285D01*
X130574142Y-96175285D01*
X130646714Y-96211571D01*
X130683000Y-96247857D01*
X130719285Y-96320428D01*
X130719285Y-96465571D01*
X130755571Y-96538142D01*
X130791857Y-96574428D01*
X130864428Y-96610714D01*
X131009571Y-96610714D01*
X131082142Y-96574428D01*
X131118428Y-96538142D01*
X131154714Y-96465571D01*
X131154714Y-96320428D01*
X131118428Y-96247857D01*
X131082142Y-96211571D01*
X131009571Y-96175285D01*
X130864428Y-96175285D01*
X130791857Y-96211571D01*
X130755571Y-96247857D01*
X130719285Y-96320428D01*
D15*
X129897142Y-82208666D02*
X129944761Y-82256285D01*
X129992380Y-82399142D01*
X129992380Y-82494380D01*
X129944761Y-82637238D01*
X129849523Y-82732476D01*
X129754285Y-82780095D01*
X129563809Y-82827714D01*
X129420952Y-82827714D01*
X129230476Y-82780095D01*
X129135238Y-82732476D01*
X129040000Y-82637238D01*
X128992380Y-82494380D01*
X128992380Y-82399142D01*
X129040000Y-82256285D01*
X129087619Y-82208666D01*
X129992380Y-81732476D02*
X129992380Y-81542000D01*
X129944761Y-81446761D01*
X129897142Y-81399142D01*
X129754285Y-81303904D01*
X129563809Y-81256285D01*
X129182857Y-81256285D01*
X129087619Y-81303904D01*
X129040000Y-81351523D01*
X128992380Y-81446761D01*
X128992380Y-81637238D01*
X129040000Y-81732476D01*
X129087619Y-81780095D01*
X129182857Y-81827714D01*
X129420952Y-81827714D01*
X129516190Y-81780095D01*
X129563809Y-81732476D01*
X129611428Y-81637238D01*
X129611428Y-81446761D01*
X129563809Y-81351523D01*
X129516190Y-81303904D01*
X129420952Y-81256285D01*
D16*
X137152642Y-82577214D02*
X137188928Y-82607452D01*
X137225214Y-82698166D01*
X137225214Y-82758642D01*
X137188928Y-82849357D01*
X137116357Y-82909833D01*
X137043785Y-82940071D01*
X136898642Y-82970309D01*
X136789785Y-82970309D01*
X136644642Y-82940071D01*
X136572071Y-82909833D01*
X136499500Y-82849357D01*
X136463214Y-82758642D01*
X136463214Y-82698166D01*
X136499500Y-82607452D01*
X136535785Y-82577214D01*
X137225214Y-81972452D02*
X137225214Y-82335309D01*
X137225214Y-82153880D02*
X136463214Y-82153880D01*
X136572071Y-82214357D01*
X136644642Y-82274833D01*
X136680928Y-82335309D01*
X136463214Y-81579357D02*
X136463214Y-81518880D01*
X136499500Y-81458404D01*
X136535785Y-81428166D01*
X136608357Y-81397928D01*
X136753500Y-81367690D01*
X136934928Y-81367690D01*
X137080071Y-81397928D01*
X137152642Y-81428166D01*
X137188928Y-81458404D01*
X137225214Y-81518880D01*
X137225214Y-81579357D01*
X137188928Y-81639833D01*
X137152642Y-81670071D01*
X137080071Y-81700309D01*
X136934928Y-81730547D01*
X136753500Y-81730547D01*
X136608357Y-81700309D01*
X136535785Y-81670071D01*
X136499500Y-81639833D01*
X136463214Y-81579357D01*
X131082142Y-95658214D02*
X131118428Y-95688452D01*
X131154714Y-95779166D01*
X131154714Y-95839642D01*
X131118428Y-95930357D01*
X131045857Y-95990833D01*
X130973285Y-96021071D01*
X130828142Y-96051309D01*
X130719285Y-96051309D01*
X130574142Y-96021071D01*
X130501571Y-95990833D01*
X130429000Y-95930357D01*
X130392714Y-95839642D01*
X130392714Y-95779166D01*
X130429000Y-95688452D01*
X130465285Y-95658214D01*
X131154714Y-95053452D02*
X131154714Y-95416309D01*
X131154714Y-95234880D02*
X130392714Y-95234880D01*
X130501571Y-95295357D01*
X130574142Y-95355833D01*
X130610428Y-95416309D01*
X131154714Y-94448690D02*
X131154714Y-94811547D01*
X131154714Y-94630119D02*
X130392714Y-94630119D01*
X130501571Y-94690595D01*
X130574142Y-94751071D01*
X130610428Y-94811547D01*
D15*
X129897142Y-80398857D02*
X129944761Y-80446476D01*
X129992380Y-80589333D01*
X129992380Y-80684571D01*
X129944761Y-80827428D01*
X129849523Y-80922666D01*
X129754285Y-80970285D01*
X129563809Y-81017904D01*
X129420952Y-81017904D01*
X129230476Y-80970285D01*
X129135238Y-80922666D01*
X129040000Y-80827428D01*
X128992380Y-80684571D01*
X128992380Y-80589333D01*
X129040000Y-80446476D01*
X129087619Y-80398857D01*
X129992380Y-79446476D02*
X129992380Y-80017904D01*
X129992380Y-79732190D02*
X128992380Y-79732190D01*
X129135238Y-79827428D01*
X129230476Y-79922666D01*
X129278095Y-80017904D01*
X129087619Y-79065523D02*
X129040000Y-79017904D01*
X128992380Y-78922666D01*
X128992380Y-78684571D01*
X129040000Y-78589333D01*
X129087619Y-78541714D01*
X129182857Y-78494095D01*
X129278095Y-78494095D01*
X129420952Y-78541714D01*
X129992380Y-79113142D01*
X129992380Y-78494095D01*
D16*
X137229142Y-80926214D02*
X137265428Y-80956452D01*
X137301714Y-81047166D01*
X137301714Y-81107642D01*
X137265428Y-81198357D01*
X137192857Y-81258833D01*
X137120285Y-81289071D01*
X136975142Y-81319309D01*
X136866285Y-81319309D01*
X136721142Y-81289071D01*
X136648571Y-81258833D01*
X136576000Y-81198357D01*
X136539714Y-81107642D01*
X136539714Y-81047166D01*
X136576000Y-80956452D01*
X136612285Y-80926214D01*
X137301714Y-80321452D02*
X137301714Y-80684309D01*
X137301714Y-80502880D02*
X136539714Y-80502880D01*
X136648571Y-80563357D01*
X136721142Y-80623833D01*
X136757428Y-80684309D01*
X136539714Y-80109785D02*
X136539714Y-79716690D01*
X136830000Y-79928357D01*
X136830000Y-79837642D01*
X136866285Y-79777166D01*
X136902571Y-79746928D01*
X136975142Y-79716690D01*
X137156571Y-79716690D01*
X137229142Y-79746928D01*
X137265428Y-79777166D01*
X137301714Y-79837642D01*
X137301714Y-80019071D01*
X137265428Y-80079547D01*
X137229142Y-80109785D01*
D15*
X118895904Y-72294380D02*
X118895904Y-71294380D01*
X119134000Y-71294380D01*
X119276857Y-71342000D01*
X119372095Y-71437238D01*
X119419714Y-71532476D01*
X119467333Y-71722952D01*
X119467333Y-71865809D01*
X119419714Y-72056285D01*
X119372095Y-72151523D01*
X119276857Y-72246761D01*
X119134000Y-72294380D01*
X118895904Y-72294380D01*
X120419714Y-72294380D02*
X119848285Y-72294380D01*
X120134000Y-72294380D02*
X120134000Y-71294380D01*
X120038761Y-71437238D01*
X119943523Y-71532476D01*
X119848285Y-71580095D01*
X122626380Y-65508095D02*
X121626380Y-65508095D01*
X121626380Y-65270000D01*
X121674000Y-65127142D01*
X121769238Y-65031904D01*
X121864476Y-64984285D01*
X122054952Y-64936666D01*
X122197809Y-64936666D01*
X122388285Y-64984285D01*
X122483523Y-65031904D01*
X122578761Y-65127142D01*
X122626380Y-65270000D01*
X122626380Y-65508095D01*
X121721619Y-64555714D02*
X121674000Y-64508095D01*
X121626380Y-64412857D01*
X121626380Y-64174761D01*
X121674000Y-64079523D01*
X121721619Y-64031904D01*
X121816857Y-63984285D01*
X121912095Y-63984285D01*
X122054952Y-64031904D01*
X122626380Y-64603333D01*
X122626380Y-63984285D01*
X127706380Y-66094595D02*
X126706380Y-66094595D01*
X126706380Y-65856500D01*
X126754000Y-65713642D01*
X126849238Y-65618404D01*
X126944476Y-65570785D01*
X127134952Y-65523166D01*
X127277809Y-65523166D01*
X127468285Y-65570785D01*
X127563523Y-65618404D01*
X127658761Y-65713642D01*
X127706380Y-65856500D01*
X127706380Y-66094595D01*
X126706380Y-65189833D02*
X126706380Y-64570785D01*
X127087333Y-64904119D01*
X127087333Y-64761261D01*
X127134952Y-64666023D01*
X127182571Y-64618404D01*
X127277809Y-64570785D01*
X127515904Y-64570785D01*
X127611142Y-64618404D01*
X127658761Y-64666023D01*
X127706380Y-64761261D01*
X127706380Y-65046976D01*
X127658761Y-65142214D01*
X127611142Y-65189833D01*
X119300666Y-87907880D02*
X119300666Y-88622166D01*
X119253047Y-88765023D01*
X119157809Y-88860261D01*
X119014952Y-88907880D01*
X118919714Y-88907880D01*
X120300666Y-88907880D02*
X119729238Y-88907880D01*
X120014952Y-88907880D02*
X120014952Y-87907880D01*
X119919714Y-88050738D01*
X119824476Y-88145976D01*
X119729238Y-88193595D01*
X133056380Y-69167333D02*
X133770666Y-69167333D01*
X133913523Y-69214952D01*
X134008761Y-69310190D01*
X134056380Y-69453047D01*
X134056380Y-69548285D01*
X133151619Y-68738761D02*
X133104000Y-68691142D01*
X133056380Y-68595904D01*
X133056380Y-68357809D01*
X133104000Y-68262571D01*
X133151619Y-68214952D01*
X133246857Y-68167333D01*
X133342095Y-68167333D01*
X133484952Y-68214952D01*
X134056380Y-68786380D01*
X134056380Y-68167333D01*
X116971380Y-73485333D02*
X117685666Y-73485333D01*
X117828523Y-73532952D01*
X117923761Y-73628190D01*
X117971380Y-73771047D01*
X117971380Y-73866285D01*
X116971380Y-72532952D02*
X116971380Y-73009142D01*
X117447571Y-73056761D01*
X117399952Y-73009142D01*
X117352333Y-72913904D01*
X117352333Y-72675809D01*
X117399952Y-72580571D01*
X117447571Y-72532952D01*
X117542809Y-72485333D01*
X117780904Y-72485333D01*
X117876142Y-72532952D01*
X117923761Y-72580571D01*
X117971380Y-72675809D01*
X117971380Y-72913904D01*
X117923761Y-73009142D01*
X117876142Y-73056761D01*
X122626380Y-66905095D02*
X121626380Y-66905095D01*
X121626380Y-66524142D01*
X121674000Y-66428904D01*
X121721619Y-66381285D01*
X121816857Y-66333666D01*
X121959714Y-66333666D01*
X122054952Y-66381285D01*
X122102571Y-66428904D01*
X122150190Y-66524142D01*
X122150190Y-66905095D01*
X122626380Y-65381285D02*
X122626380Y-65952714D01*
X122626380Y-65667000D02*
X121626380Y-65667000D01*
X121769238Y-65762238D01*
X121864476Y-65857476D01*
X121912095Y-65952714D01*
X139858761Y-95543619D02*
X139763523Y-95496000D01*
X139668285Y-95400761D01*
X139525428Y-95257904D01*
X139430190Y-95210285D01*
X139334952Y-95210285D01*
X139382571Y-95448380D02*
X139287333Y-95400761D01*
X139192095Y-95305523D01*
X139144476Y-95115047D01*
X139144476Y-94781714D01*
X139192095Y-94591238D01*
X139287333Y-94496000D01*
X139382571Y-94448380D01*
X139573047Y-94448380D01*
X139668285Y-94496000D01*
X139763523Y-94591238D01*
X139811142Y-94781714D01*
X139811142Y-95115047D01*
X139763523Y-95305523D01*
X139668285Y-95400761D01*
X139573047Y-95448380D01*
X139382571Y-95448380D01*
X140763523Y-95448380D02*
X140192095Y-95448380D01*
X140477809Y-95448380D02*
X140477809Y-94448380D01*
X140382571Y-94591238D01*
X140287333Y-94686476D01*
X140192095Y-94734095D01*
X140628619Y-92297238D02*
X140581000Y-92392476D01*
X140485761Y-92487714D01*
X140342904Y-92630571D01*
X140295285Y-92725809D01*
X140295285Y-92821047D01*
X140533380Y-92773428D02*
X140485761Y-92868666D01*
X140390523Y-92963904D01*
X140200047Y-93011523D01*
X139866714Y-93011523D01*
X139676238Y-92963904D01*
X139581000Y-92868666D01*
X139533380Y-92773428D01*
X139533380Y-92582952D01*
X139581000Y-92487714D01*
X139676238Y-92392476D01*
X139866714Y-92344857D01*
X140200047Y-92344857D01*
X140390523Y-92392476D01*
X140485761Y-92487714D01*
X140533380Y-92582952D01*
X140533380Y-92773428D01*
X139628619Y-91963904D02*
X139581000Y-91916285D01*
X139533380Y-91821047D01*
X139533380Y-91582952D01*
X139581000Y-91487714D01*
X139628619Y-91440095D01*
X139723857Y-91392476D01*
X139819095Y-91392476D01*
X139961952Y-91440095D01*
X140533380Y-92011523D01*
X140533380Y-91392476D01*
X142327333Y-95422880D02*
X141994000Y-94946690D01*
X141755904Y-95422880D02*
X141755904Y-94422880D01*
X142136857Y-94422880D01*
X142232095Y-94470500D01*
X142279714Y-94518119D01*
X142327333Y-94613357D01*
X142327333Y-94756214D01*
X142279714Y-94851452D01*
X142232095Y-94899071D01*
X142136857Y-94946690D01*
X141755904Y-94946690D01*
X143279714Y-95422880D02*
X142708285Y-95422880D01*
X142994000Y-95422880D02*
X142994000Y-94422880D01*
X142898761Y-94565738D01*
X142803523Y-94660976D01*
X142708285Y-94708595D01*
X140533380Y-89828666D02*
X140057190Y-90162000D01*
X140533380Y-90400095D02*
X139533380Y-90400095D01*
X139533380Y-90019142D01*
X139581000Y-89923904D01*
X139628619Y-89876285D01*
X139723857Y-89828666D01*
X139866714Y-89828666D01*
X139961952Y-89876285D01*
X140009571Y-89923904D01*
X140057190Y-90019142D01*
X140057190Y-90400095D01*
X139628619Y-89447714D02*
X139581000Y-89400095D01*
X139533380Y-89304857D01*
X139533380Y-89066761D01*
X139581000Y-88971523D01*
X139628619Y-88923904D01*
X139723857Y-88876285D01*
X139819095Y-88876285D01*
X139961952Y-88923904D01*
X140533380Y-89495333D01*
X140533380Y-88876285D01*
X117546380Y-75858666D02*
X117070190Y-76192000D01*
X117546380Y-76430095D02*
X116546380Y-76430095D01*
X116546380Y-76049142D01*
X116594000Y-75953904D01*
X116641619Y-75906285D01*
X116736857Y-75858666D01*
X116879714Y-75858666D01*
X116974952Y-75906285D01*
X117022571Y-75953904D01*
X117070190Y-76049142D01*
X117070190Y-76430095D01*
X116546380Y-75525333D02*
X116546380Y-74906285D01*
X116927333Y-75239619D01*
X116927333Y-75096761D01*
X116974952Y-75001523D01*
X117022571Y-74953904D01*
X117117809Y-74906285D01*
X117355904Y-74906285D01*
X117451142Y-74953904D01*
X117498761Y-75001523D01*
X117546380Y-75096761D01*
X117546380Y-75382476D01*
X117498761Y-75477714D01*
X117451142Y-75525333D01*
X123785333Y-61920380D02*
X123452000Y-61444190D01*
X123213904Y-61920380D02*
X123213904Y-60920380D01*
X123594857Y-60920380D01*
X123690095Y-60968000D01*
X123737714Y-61015619D01*
X123785333Y-61110857D01*
X123785333Y-61253714D01*
X123737714Y-61348952D01*
X123690095Y-61396571D01*
X123594857Y-61444190D01*
X123213904Y-61444190D01*
X124642476Y-61253714D02*
X124642476Y-61920380D01*
X124404380Y-60872761D02*
X124166285Y-61587047D01*
X124785333Y-61587047D01*
X128865333Y-61920380D02*
X128532000Y-61444190D01*
X128293904Y-61920380D02*
X128293904Y-60920380D01*
X128674857Y-60920380D01*
X128770095Y-60968000D01*
X128817714Y-61015619D01*
X128865333Y-61110857D01*
X128865333Y-61253714D01*
X128817714Y-61348952D01*
X128770095Y-61396571D01*
X128674857Y-61444190D01*
X128293904Y-61444190D01*
X129770095Y-60920380D02*
X129293904Y-60920380D01*
X129246285Y-61396571D01*
X129293904Y-61348952D01*
X129389142Y-61301333D01*
X129627238Y-61301333D01*
X129722476Y-61348952D01*
X129770095Y-61396571D01*
X129817714Y-61491809D01*
X129817714Y-61729904D01*
X129770095Y-61825142D01*
X129722476Y-61872761D01*
X129627238Y-61920380D01*
X129389142Y-61920380D01*
X129293904Y-61872761D01*
X129246285Y-61825142D01*
X119951666Y-86129761D02*
X120094523Y-86177380D01*
X120332619Y-86177380D01*
X120427857Y-86129761D01*
X120475476Y-86082142D01*
X120523095Y-85986904D01*
X120523095Y-85891666D01*
X120475476Y-85796428D01*
X120427857Y-85748809D01*
X120332619Y-85701190D01*
X120142142Y-85653571D01*
X120046904Y-85605952D01*
X119999285Y-85558333D01*
X119951666Y-85463095D01*
X119951666Y-85367857D01*
X119999285Y-85272619D01*
X120046904Y-85225000D01*
X120142142Y-85177380D01*
X120380238Y-85177380D01*
X120523095Y-85225000D01*
X120856428Y-85177380D02*
X121094523Y-86177380D01*
X121285000Y-85463095D01*
X121475476Y-86177380D01*
X121713571Y-85177380D01*
X122618333Y-86177380D02*
X122046904Y-86177380D01*
X122332619Y-86177380D02*
X122332619Y-85177380D01*
X122237380Y-85320238D01*
X122142142Y-85415476D01*
X122046904Y-85463095D01*
X125349380Y-73913904D02*
X126158904Y-73913904D01*
X126254142Y-73866285D01*
X126301761Y-73818666D01*
X126349380Y-73723428D01*
X126349380Y-73532952D01*
X126301761Y-73437714D01*
X126254142Y-73390095D01*
X126158904Y-73342476D01*
X125349380Y-73342476D01*
X126349380Y-72342476D02*
X126349380Y-72913904D01*
X126349380Y-72628190D02*
X125349380Y-72628190D01*
X125492238Y-72723428D01*
X125587476Y-72818666D01*
X125635095Y-72913904D01*
X139731809Y-79224190D02*
X139731809Y-79700380D01*
X139398476Y-78700380D02*
X139731809Y-79224190D01*
X140065142Y-78700380D01*
X140922285Y-79700380D02*
X140350857Y-79700380D01*
X140636571Y-79700380D02*
X140636571Y-78700380D01*
X140541333Y-78843238D01*
X140446095Y-78938476D01*
X140350857Y-78986095D01*
X121100904Y-72624380D02*
X121100904Y-71624380D01*
X121339000Y-71624380D01*
X121481857Y-71672000D01*
X121577095Y-71767238D01*
X121624714Y-71862476D01*
X121672333Y-72052952D01*
X121672333Y-72195809D01*
X121624714Y-72386285D01*
X121577095Y-72481523D01*
X121481857Y-72576761D01*
X121339000Y-72624380D01*
X121100904Y-72624380D01*
X122529476Y-71957714D02*
X122529476Y-72624380D01*
X122291380Y-71576761D02*
X122053285Y-72291047D01*
X122672333Y-72291047D01*
X123240666Y-71175571D02*
X122907333Y-71175571D01*
X122907333Y-71699380D02*
X122907333Y-70699380D01*
X123383523Y-70699380D01*
X124288285Y-71699380D02*
X123716857Y-71699380D01*
X124002571Y-71699380D02*
X124002571Y-70699380D01*
X123907333Y-70842238D01*
X123812095Y-70937476D01*
X123716857Y-70985095D01*
X112466380Y-87796666D02*
X111990190Y-88130000D01*
X112466380Y-88368095D02*
X111466380Y-88368095D01*
X111466380Y-87987142D01*
X111514000Y-87891904D01*
X111561619Y-87844285D01*
X111656857Y-87796666D01*
X111799714Y-87796666D01*
X111894952Y-87844285D01*
X111942571Y-87891904D01*
X111990190Y-87987142D01*
X111990190Y-88368095D01*
X111466380Y-86939523D02*
X111466380Y-87130000D01*
X111514000Y-87225238D01*
X111561619Y-87272857D01*
X111704476Y-87368095D01*
X111894952Y-87415714D01*
X112275904Y-87415714D01*
X112371142Y-87368095D01*
X112418761Y-87320476D01*
X112466380Y-87225238D01*
X112466380Y-87034761D01*
X112418761Y-86939523D01*
X112371142Y-86891904D01*
X112275904Y-86844285D01*
X112037809Y-86844285D01*
X111942571Y-86891904D01*
X111894952Y-86939523D01*
X111847333Y-87034761D01*
X111847333Y-87225238D01*
X111894952Y-87320476D01*
X111942571Y-87368095D01*
X112037809Y-87415714D01*
X117206833Y-87734380D02*
X116873500Y-87258190D01*
X116635404Y-87734380D02*
X116635404Y-86734380D01*
X117016357Y-86734380D01*
X117111595Y-86782000D01*
X117159214Y-86829619D01*
X117206833Y-86924857D01*
X117206833Y-87067714D01*
X117159214Y-87162952D01*
X117111595Y-87210571D01*
X117016357Y-87258190D01*
X116635404Y-87258190D01*
X117540166Y-86734380D02*
X118206833Y-86734380D01*
X117778261Y-87734380D01*
M02*
