M48
; DRILL file {KiCad 5.1.5} date Mon 17 Feb 2020 02:33:44 PM EST
; FORMAT={-:-/ absolute / inch / decimal}
; #@! TF.CreationDate,2020-02-17T14:33:44-05:00
; #@! TF.GenerationSoftware,Kicad,Pcbnew,5.1.5
FMAT,2
INCH
T1C0.0157
T2C0.0236
T3C0.0394
T4C0.0433
T5C0.0591
%
G90
G05
T1
X4.37Y-3.11
X4.37Y-3.32
X4.37Y-3.53
X4.37Y-3.685
X4.38Y-2.815
X4.38Y-2.955
X4.405Y-3.845
X4.45Y-3.02
X4.4665Y-3.345
X4.47Y-3.61
X4.505Y-2.395
X4.525Y-2.8
X4.55Y-2.49
X4.55Y-2.65
X4.59Y-3.48
X4.59Y-3.905
X4.6Y-2.9
X4.62Y-3.76
X4.645Y-2.395
X4.65Y-2.49
X4.65Y-2.65
X4.65Y-2.85
X4.66Y-3.48
X4.7Y-3.875
X4.71Y-3.34
X4.71Y-3.41
X4.75Y-2.8
X4.755Y-4.535
X4.755Y-4.755
X4.755Y-4.94
X4.76Y-5.13
X4.78Y-4.145
X4.78Y-4.35
X4.82Y-3.02
X4.82Y-3.51
X4.8434Y-3.75
X4.8434Y-3.79
X4.85Y-2.66
X4.87Y-3.19
X4.88Y-2.395
X4.92Y-2.84
X4.92Y-3.35
X4.92Y-3.41
X4.93Y-2.96
X4.93Y-3.01
X4.94Y-3.13
X4.95Y-2.47
X4.98Y-3.3
X5.0Y-2.9568
X5.01Y-2.47
X5.02Y-2.67
X5.025Y-4.99
X5.035Y-5.115
X5.04Y-3.86
X5.04Y-4.04
X5.04Y-4.145
X5.045Y-3.695
X5.05Y-2.395
X5.05Y-3.24
X5.05Y-4.35
X5.05Y-4.55
X5.05Y-4.745
X5.0695Y-4.2
X5.0695Y-4.3
X5.07Y-2.67
X5.07Y-3.0
X5.105Y-3.215
X5.11Y-3.165
X5.12Y-3.43
X5.12Y-3.57
X5.14Y-2.84
X5.17Y-3.48
X5.18Y-2.395
X5.18Y-3.28
X5.21Y-2.83
X5.23Y-3.42
X5.25Y-3.28
X5.26Y-3.56
X5.27Y-2.88
X5.2798Y-3.7898
X5.2825Y-3.7495
X5.29Y-4.195
X5.29Y-4.745
X5.2934Y-3.5948
X5.295Y-4.94
X5.295Y-5.12
X5.3Y-4.46
X5.3006Y-3.43
X5.31Y-3.51
X5.315Y-2.395
X5.32Y-3.63
X5.33Y-3.0
X5.34Y-3.43
X5.395Y-3.905
X5.4259Y-3.8759
X5.46Y-3.4146
X5.49Y-3.12
X5.54Y-3.37
X5.555Y-2.395
X5.56Y-3.74
X5.5728Y-3.3482
X5.59Y-3.485
X5.65Y-3.73
X5.66Y-3.895
X5.68Y-2.395
X5.68Y-2.545
X5.68Y-2.695
X5.68Y-2.875
X5.68Y-3.03
X5.68Y-3.205
X5.68Y-3.35
X5.68Y-3.48
X4.4707Y-2.5569
X4.4707Y-2.61
X4.5042Y-2.5569
X4.5042Y-2.61
X4.5377Y-2.5569
X4.5377Y-2.61
X4.5711Y-2.5569
X4.5711Y-2.61
X4.6046Y-2.5569
X4.6046Y-2.61
X4.6381Y-2.5569
X4.6381Y-2.61
X4.6715Y-2.5569
X4.6715Y-2.61
X4.705Y-2.5569
X4.705Y-2.61
T3
X4.435Y-2.88
X4.535Y-2.88
X4.825Y-4.0
X4.825Y-4.1
X4.825Y-4.2
X4.825Y-4.3
X4.825Y-4.4
X4.825Y-4.5
X4.825Y-4.6
X4.825Y-4.7
X4.825Y-4.8
X4.825Y-4.9
X4.825Y-5.0
X4.825Y-5.1
X5.225Y-4.0
X5.225Y-4.1
X5.225Y-4.2
X5.225Y-4.3
X5.225Y-4.4
X5.225Y-4.5
X5.225Y-4.6
X5.225Y-4.7
X5.225Y-4.8
X5.225Y-4.9
X5.225Y-5.0
X5.225Y-5.1
T4
X4.5Y-3.11
X4.5Y-3.2872
X4.7559Y-3.11
X4.7559Y-3.2872
T5
X5.42Y-2.442
X5.42Y-2.7176
T2
G00X4.4176Y-2.4541
M15
G01X4.4176Y-2.4226
M16
G05
G00X4.4176Y-2.6009
M15
G01X4.4176Y-2.5419
M16
G05
G00X4.7581Y-2.4541
M15
G01X4.7581Y-2.4226
M16
G05
G00X4.7581Y-2.6009
M15
G01X4.7581Y-2.5419
M16
G05
T0
M30
