G04 #@! TF.GenerationSoftware,KiCad,Pcbnew,5.1.5*
G04 #@! TF.CreationDate,2020-02-17T14:33:41-05:00*
G04 #@! TF.ProjectId,stm32,73746d33-322e-46b6-9963-61645f706362,B*
G04 #@! TF.SameCoordinates,Original*
G04 #@! TF.FileFunction,Soldermask,Top*
G04 #@! TF.FilePolarity,Negative*
%FSLAX46Y46*%
G04 Gerber Fmt 4.6, Leading zero omitted, Abs format (unit mm)*
G04 Created by KiCad (PCBNEW 5.1.5) date 2020-02-17 14:33:41*
%MOMM*%
%LPD*%
G04 APERTURE LIST*
%ADD10C,0.100000*%
G04 APERTURE END LIST*
D10*
G36*
X132828512Y-128643927D02*
G01*
X132977812Y-128673624D01*
X133141784Y-128741544D01*
X133289354Y-128840147D01*
X133414853Y-128965646D01*
X133513456Y-129113216D01*
X133581376Y-129277188D01*
X133616000Y-129451259D01*
X133616000Y-129628741D01*
X133581376Y-129802812D01*
X133513456Y-129966784D01*
X133414853Y-130114354D01*
X133289354Y-130239853D01*
X133141784Y-130338456D01*
X132977812Y-130406376D01*
X132828512Y-130436073D01*
X132803742Y-130441000D01*
X132626258Y-130441000D01*
X132601488Y-130436073D01*
X132452188Y-130406376D01*
X132288216Y-130338456D01*
X132140646Y-130239853D01*
X132015147Y-130114354D01*
X131916544Y-129966784D01*
X131848624Y-129802812D01*
X131814000Y-129628741D01*
X131814000Y-129451259D01*
X131848624Y-129277188D01*
X131916544Y-129113216D01*
X132015147Y-128965646D01*
X132140646Y-128840147D01*
X132288216Y-128741544D01*
X132452188Y-128673624D01*
X132601488Y-128643927D01*
X132626258Y-128639000D01*
X132803742Y-128639000D01*
X132828512Y-128643927D01*
G37*
G36*
X122668512Y-128643927D02*
G01*
X122817812Y-128673624D01*
X122981784Y-128741544D01*
X123129354Y-128840147D01*
X123254853Y-128965646D01*
X123353456Y-129113216D01*
X123421376Y-129277188D01*
X123456000Y-129451259D01*
X123456000Y-129628741D01*
X123421376Y-129802812D01*
X123353456Y-129966784D01*
X123254853Y-130114354D01*
X123129354Y-130239853D01*
X122981784Y-130338456D01*
X122817812Y-130406376D01*
X122668512Y-130436073D01*
X122643742Y-130441000D01*
X122466258Y-130441000D01*
X122441488Y-130436073D01*
X122292188Y-130406376D01*
X122128216Y-130338456D01*
X121980646Y-130239853D01*
X121855147Y-130114354D01*
X121756544Y-129966784D01*
X121688624Y-129802812D01*
X121654000Y-129628741D01*
X121654000Y-129451259D01*
X121688624Y-129277188D01*
X121756544Y-129113216D01*
X121855147Y-128965646D01*
X121980646Y-128840147D01*
X122128216Y-128741544D01*
X122292188Y-128673624D01*
X122441488Y-128643927D01*
X122466258Y-128639000D01*
X122643742Y-128639000D01*
X122668512Y-128643927D01*
G37*
G36*
X122668512Y-126103927D02*
G01*
X122817812Y-126133624D01*
X122981784Y-126201544D01*
X123129354Y-126300147D01*
X123254853Y-126425646D01*
X123353456Y-126573216D01*
X123421376Y-126737188D01*
X123456000Y-126911259D01*
X123456000Y-127088741D01*
X123421376Y-127262812D01*
X123353456Y-127426784D01*
X123254853Y-127574354D01*
X123129354Y-127699853D01*
X122981784Y-127798456D01*
X122817812Y-127866376D01*
X122668512Y-127896073D01*
X122643742Y-127901000D01*
X122466258Y-127901000D01*
X122441488Y-127896073D01*
X122292188Y-127866376D01*
X122128216Y-127798456D01*
X121980646Y-127699853D01*
X121855147Y-127574354D01*
X121756544Y-127426784D01*
X121688624Y-127262812D01*
X121654000Y-127088741D01*
X121654000Y-126911259D01*
X121688624Y-126737188D01*
X121756544Y-126573216D01*
X121855147Y-126425646D01*
X121980646Y-126300147D01*
X122128216Y-126201544D01*
X122292188Y-126133624D01*
X122441488Y-126103927D01*
X122466258Y-126099000D01*
X122643742Y-126099000D01*
X122668512Y-126103927D01*
G37*
G36*
X132828512Y-126103927D02*
G01*
X132977812Y-126133624D01*
X133141784Y-126201544D01*
X133289354Y-126300147D01*
X133414853Y-126425646D01*
X133513456Y-126573216D01*
X133581376Y-126737188D01*
X133616000Y-126911259D01*
X133616000Y-127088741D01*
X133581376Y-127262812D01*
X133513456Y-127426784D01*
X133414853Y-127574354D01*
X133289354Y-127699853D01*
X133141784Y-127798456D01*
X132977812Y-127866376D01*
X132828512Y-127896073D01*
X132803742Y-127901000D01*
X132626258Y-127901000D01*
X132601488Y-127896073D01*
X132452188Y-127866376D01*
X132288216Y-127798456D01*
X132140646Y-127699853D01*
X132015147Y-127574354D01*
X131916544Y-127426784D01*
X131848624Y-127262812D01*
X131814000Y-127088741D01*
X131814000Y-126911259D01*
X131848624Y-126737188D01*
X131916544Y-126573216D01*
X132015147Y-126425646D01*
X132140646Y-126300147D01*
X132288216Y-126201544D01*
X132452188Y-126133624D01*
X132601488Y-126103927D01*
X132626258Y-126099000D01*
X132803742Y-126099000D01*
X132828512Y-126103927D01*
G37*
G36*
X122668512Y-123563927D02*
G01*
X122817812Y-123593624D01*
X122981784Y-123661544D01*
X123129354Y-123760147D01*
X123254853Y-123885646D01*
X123353456Y-124033216D01*
X123421376Y-124197188D01*
X123456000Y-124371259D01*
X123456000Y-124548741D01*
X123421376Y-124722812D01*
X123353456Y-124886784D01*
X123254853Y-125034354D01*
X123129354Y-125159853D01*
X122981784Y-125258456D01*
X122817812Y-125326376D01*
X122668512Y-125356073D01*
X122643742Y-125361000D01*
X122466258Y-125361000D01*
X122441488Y-125356073D01*
X122292188Y-125326376D01*
X122128216Y-125258456D01*
X121980646Y-125159853D01*
X121855147Y-125034354D01*
X121756544Y-124886784D01*
X121688624Y-124722812D01*
X121654000Y-124548741D01*
X121654000Y-124371259D01*
X121688624Y-124197188D01*
X121756544Y-124033216D01*
X121855147Y-123885646D01*
X121980646Y-123760147D01*
X122128216Y-123661544D01*
X122292188Y-123593624D01*
X122441488Y-123563927D01*
X122466258Y-123559000D01*
X122643742Y-123559000D01*
X122668512Y-123563927D01*
G37*
G36*
X132828512Y-123563927D02*
G01*
X132977812Y-123593624D01*
X133141784Y-123661544D01*
X133289354Y-123760147D01*
X133414853Y-123885646D01*
X133513456Y-124033216D01*
X133581376Y-124197188D01*
X133616000Y-124371259D01*
X133616000Y-124548741D01*
X133581376Y-124722812D01*
X133513456Y-124886784D01*
X133414853Y-125034354D01*
X133289354Y-125159853D01*
X133141784Y-125258456D01*
X132977812Y-125326376D01*
X132828512Y-125356073D01*
X132803742Y-125361000D01*
X132626258Y-125361000D01*
X132601488Y-125356073D01*
X132452188Y-125326376D01*
X132288216Y-125258456D01*
X132140646Y-125159853D01*
X132015147Y-125034354D01*
X131916544Y-124886784D01*
X131848624Y-124722812D01*
X131814000Y-124548741D01*
X131814000Y-124371259D01*
X131848624Y-124197188D01*
X131916544Y-124033216D01*
X132015147Y-123885646D01*
X132140646Y-123760147D01*
X132288216Y-123661544D01*
X132452188Y-123593624D01*
X132601488Y-123563927D01*
X132626258Y-123559000D01*
X132803742Y-123559000D01*
X132828512Y-123563927D01*
G37*
G36*
X132828512Y-121023927D02*
G01*
X132977812Y-121053624D01*
X133141784Y-121121544D01*
X133289354Y-121220147D01*
X133414853Y-121345646D01*
X133513456Y-121493216D01*
X133581376Y-121657188D01*
X133616000Y-121831259D01*
X133616000Y-122008741D01*
X133581376Y-122182812D01*
X133513456Y-122346784D01*
X133414853Y-122494354D01*
X133289354Y-122619853D01*
X133141784Y-122718456D01*
X132977812Y-122786376D01*
X132828512Y-122816073D01*
X132803742Y-122821000D01*
X132626258Y-122821000D01*
X132601488Y-122816073D01*
X132452188Y-122786376D01*
X132288216Y-122718456D01*
X132140646Y-122619853D01*
X132015147Y-122494354D01*
X131916544Y-122346784D01*
X131848624Y-122182812D01*
X131814000Y-122008741D01*
X131814000Y-121831259D01*
X131848624Y-121657188D01*
X131916544Y-121493216D01*
X132015147Y-121345646D01*
X132140646Y-121220147D01*
X132288216Y-121121544D01*
X132452188Y-121053624D01*
X132601488Y-121023927D01*
X132626258Y-121019000D01*
X132803742Y-121019000D01*
X132828512Y-121023927D01*
G37*
G36*
X122668512Y-121023927D02*
G01*
X122817812Y-121053624D01*
X122981784Y-121121544D01*
X123129354Y-121220147D01*
X123254853Y-121345646D01*
X123353456Y-121493216D01*
X123421376Y-121657188D01*
X123456000Y-121831259D01*
X123456000Y-122008741D01*
X123421376Y-122182812D01*
X123353456Y-122346784D01*
X123254853Y-122494354D01*
X123129354Y-122619853D01*
X122981784Y-122718456D01*
X122817812Y-122786376D01*
X122668512Y-122816073D01*
X122643742Y-122821000D01*
X122466258Y-122821000D01*
X122441488Y-122816073D01*
X122292188Y-122786376D01*
X122128216Y-122718456D01*
X121980646Y-122619853D01*
X121855147Y-122494354D01*
X121756544Y-122346784D01*
X121688624Y-122182812D01*
X121654000Y-122008741D01*
X121654000Y-121831259D01*
X121688624Y-121657188D01*
X121756544Y-121493216D01*
X121855147Y-121345646D01*
X121980646Y-121220147D01*
X122128216Y-121121544D01*
X122292188Y-121053624D01*
X122441488Y-121023927D01*
X122466258Y-121019000D01*
X122643742Y-121019000D01*
X122668512Y-121023927D01*
G37*
G36*
X122668512Y-118483927D02*
G01*
X122817812Y-118513624D01*
X122981784Y-118581544D01*
X123129354Y-118680147D01*
X123254853Y-118805646D01*
X123353456Y-118953216D01*
X123421376Y-119117188D01*
X123456000Y-119291259D01*
X123456000Y-119468741D01*
X123421376Y-119642812D01*
X123353456Y-119806784D01*
X123254853Y-119954354D01*
X123129354Y-120079853D01*
X122981784Y-120178456D01*
X122817812Y-120246376D01*
X122668512Y-120276073D01*
X122643742Y-120281000D01*
X122466258Y-120281000D01*
X122441488Y-120276073D01*
X122292188Y-120246376D01*
X122128216Y-120178456D01*
X121980646Y-120079853D01*
X121855147Y-119954354D01*
X121756544Y-119806784D01*
X121688624Y-119642812D01*
X121654000Y-119468741D01*
X121654000Y-119291259D01*
X121688624Y-119117188D01*
X121756544Y-118953216D01*
X121855147Y-118805646D01*
X121980646Y-118680147D01*
X122128216Y-118581544D01*
X122292188Y-118513624D01*
X122441488Y-118483927D01*
X122466258Y-118479000D01*
X122643742Y-118479000D01*
X122668512Y-118483927D01*
G37*
G36*
X132828512Y-118483927D02*
G01*
X132977812Y-118513624D01*
X133141784Y-118581544D01*
X133289354Y-118680147D01*
X133414853Y-118805646D01*
X133513456Y-118953216D01*
X133581376Y-119117188D01*
X133616000Y-119291259D01*
X133616000Y-119468741D01*
X133581376Y-119642812D01*
X133513456Y-119806784D01*
X133414853Y-119954354D01*
X133289354Y-120079853D01*
X133141784Y-120178456D01*
X132977812Y-120246376D01*
X132828512Y-120276073D01*
X132803742Y-120281000D01*
X132626258Y-120281000D01*
X132601488Y-120276073D01*
X132452188Y-120246376D01*
X132288216Y-120178456D01*
X132140646Y-120079853D01*
X132015147Y-119954354D01*
X131916544Y-119806784D01*
X131848624Y-119642812D01*
X131814000Y-119468741D01*
X131814000Y-119291259D01*
X131848624Y-119117188D01*
X131916544Y-118953216D01*
X132015147Y-118805646D01*
X132140646Y-118680147D01*
X132288216Y-118581544D01*
X132452188Y-118513624D01*
X132601488Y-118483927D01*
X132626258Y-118479000D01*
X132803742Y-118479000D01*
X132828512Y-118483927D01*
G37*
G36*
X122668512Y-115943927D02*
G01*
X122817812Y-115973624D01*
X122981784Y-116041544D01*
X123129354Y-116140147D01*
X123254853Y-116265646D01*
X123353456Y-116413216D01*
X123421376Y-116577188D01*
X123456000Y-116751259D01*
X123456000Y-116928741D01*
X123421376Y-117102812D01*
X123353456Y-117266784D01*
X123254853Y-117414354D01*
X123129354Y-117539853D01*
X122981784Y-117638456D01*
X122817812Y-117706376D01*
X122668512Y-117736073D01*
X122643742Y-117741000D01*
X122466258Y-117741000D01*
X122441488Y-117736073D01*
X122292188Y-117706376D01*
X122128216Y-117638456D01*
X121980646Y-117539853D01*
X121855147Y-117414354D01*
X121756544Y-117266784D01*
X121688624Y-117102812D01*
X121654000Y-116928741D01*
X121654000Y-116751259D01*
X121688624Y-116577188D01*
X121756544Y-116413216D01*
X121855147Y-116265646D01*
X121980646Y-116140147D01*
X122128216Y-116041544D01*
X122292188Y-115973624D01*
X122441488Y-115943927D01*
X122466258Y-115939000D01*
X122643742Y-115939000D01*
X122668512Y-115943927D01*
G37*
G36*
X132828512Y-115943927D02*
G01*
X132977812Y-115973624D01*
X133141784Y-116041544D01*
X133289354Y-116140147D01*
X133414853Y-116265646D01*
X133513456Y-116413216D01*
X133581376Y-116577188D01*
X133616000Y-116751259D01*
X133616000Y-116928741D01*
X133581376Y-117102812D01*
X133513456Y-117266784D01*
X133414853Y-117414354D01*
X133289354Y-117539853D01*
X133141784Y-117638456D01*
X132977812Y-117706376D01*
X132828512Y-117736073D01*
X132803742Y-117741000D01*
X132626258Y-117741000D01*
X132601488Y-117736073D01*
X132452188Y-117706376D01*
X132288216Y-117638456D01*
X132140646Y-117539853D01*
X132015147Y-117414354D01*
X131916544Y-117266784D01*
X131848624Y-117102812D01*
X131814000Y-116928741D01*
X131814000Y-116751259D01*
X131848624Y-116577188D01*
X131916544Y-116413216D01*
X132015147Y-116265646D01*
X132140646Y-116140147D01*
X132288216Y-116041544D01*
X132452188Y-115973624D01*
X132601488Y-115943927D01*
X132626258Y-115939000D01*
X132803742Y-115939000D01*
X132828512Y-115943927D01*
G37*
G36*
X122668512Y-113403927D02*
G01*
X122817812Y-113433624D01*
X122981784Y-113501544D01*
X123129354Y-113600147D01*
X123254853Y-113725646D01*
X123353456Y-113873216D01*
X123421376Y-114037188D01*
X123456000Y-114211259D01*
X123456000Y-114388741D01*
X123421376Y-114562812D01*
X123353456Y-114726784D01*
X123254853Y-114874354D01*
X123129354Y-114999853D01*
X122981784Y-115098456D01*
X122817812Y-115166376D01*
X122668512Y-115196073D01*
X122643742Y-115201000D01*
X122466258Y-115201000D01*
X122441488Y-115196073D01*
X122292188Y-115166376D01*
X122128216Y-115098456D01*
X121980646Y-114999853D01*
X121855147Y-114874354D01*
X121756544Y-114726784D01*
X121688624Y-114562812D01*
X121654000Y-114388741D01*
X121654000Y-114211259D01*
X121688624Y-114037188D01*
X121756544Y-113873216D01*
X121855147Y-113725646D01*
X121980646Y-113600147D01*
X122128216Y-113501544D01*
X122292188Y-113433624D01*
X122441488Y-113403927D01*
X122466258Y-113399000D01*
X122643742Y-113399000D01*
X122668512Y-113403927D01*
G37*
G36*
X132828512Y-113403927D02*
G01*
X132977812Y-113433624D01*
X133141784Y-113501544D01*
X133289354Y-113600147D01*
X133414853Y-113725646D01*
X133513456Y-113873216D01*
X133581376Y-114037188D01*
X133616000Y-114211259D01*
X133616000Y-114388741D01*
X133581376Y-114562812D01*
X133513456Y-114726784D01*
X133414853Y-114874354D01*
X133289354Y-114999853D01*
X133141784Y-115098456D01*
X132977812Y-115166376D01*
X132828512Y-115196073D01*
X132803742Y-115201000D01*
X132626258Y-115201000D01*
X132601488Y-115196073D01*
X132452188Y-115166376D01*
X132288216Y-115098456D01*
X132140646Y-114999853D01*
X132015147Y-114874354D01*
X131916544Y-114726784D01*
X131848624Y-114562812D01*
X131814000Y-114388741D01*
X131814000Y-114211259D01*
X131848624Y-114037188D01*
X131916544Y-113873216D01*
X132015147Y-113725646D01*
X132140646Y-113600147D01*
X132288216Y-113501544D01*
X132452188Y-113433624D01*
X132601488Y-113403927D01*
X132626258Y-113399000D01*
X132803742Y-113399000D01*
X132828512Y-113403927D01*
G37*
G36*
X122668512Y-110863927D02*
G01*
X122817812Y-110893624D01*
X122981784Y-110961544D01*
X123129354Y-111060147D01*
X123254853Y-111185646D01*
X123353456Y-111333216D01*
X123421376Y-111497188D01*
X123456000Y-111671259D01*
X123456000Y-111848741D01*
X123421376Y-112022812D01*
X123353456Y-112186784D01*
X123254853Y-112334354D01*
X123129354Y-112459853D01*
X122981784Y-112558456D01*
X122817812Y-112626376D01*
X122668512Y-112656073D01*
X122643742Y-112661000D01*
X122466258Y-112661000D01*
X122441488Y-112656073D01*
X122292188Y-112626376D01*
X122128216Y-112558456D01*
X121980646Y-112459853D01*
X121855147Y-112334354D01*
X121756544Y-112186784D01*
X121688624Y-112022812D01*
X121654000Y-111848741D01*
X121654000Y-111671259D01*
X121688624Y-111497188D01*
X121756544Y-111333216D01*
X121855147Y-111185646D01*
X121980646Y-111060147D01*
X122128216Y-110961544D01*
X122292188Y-110893624D01*
X122441488Y-110863927D01*
X122466258Y-110859000D01*
X122643742Y-110859000D01*
X122668512Y-110863927D01*
G37*
G36*
X132828512Y-110863927D02*
G01*
X132977812Y-110893624D01*
X133141784Y-110961544D01*
X133289354Y-111060147D01*
X133414853Y-111185646D01*
X133513456Y-111333216D01*
X133581376Y-111497188D01*
X133616000Y-111671259D01*
X133616000Y-111848741D01*
X133581376Y-112022812D01*
X133513456Y-112186784D01*
X133414853Y-112334354D01*
X133289354Y-112459853D01*
X133141784Y-112558456D01*
X132977812Y-112626376D01*
X132828512Y-112656073D01*
X132803742Y-112661000D01*
X132626258Y-112661000D01*
X132601488Y-112656073D01*
X132452188Y-112626376D01*
X132288216Y-112558456D01*
X132140646Y-112459853D01*
X132015147Y-112334354D01*
X131916544Y-112186784D01*
X131848624Y-112022812D01*
X131814000Y-111848741D01*
X131814000Y-111671259D01*
X131848624Y-111497188D01*
X131916544Y-111333216D01*
X132015147Y-111185646D01*
X132140646Y-111060147D01*
X132288216Y-110961544D01*
X132452188Y-110893624D01*
X132601488Y-110863927D01*
X132626258Y-110859000D01*
X132803742Y-110859000D01*
X132828512Y-110863927D01*
G37*
G36*
X132828512Y-108323927D02*
G01*
X132977812Y-108353624D01*
X133141784Y-108421544D01*
X133289354Y-108520147D01*
X133414853Y-108645646D01*
X133513456Y-108793216D01*
X133581376Y-108957188D01*
X133616000Y-109131259D01*
X133616000Y-109308741D01*
X133581376Y-109482812D01*
X133513456Y-109646784D01*
X133414853Y-109794354D01*
X133289354Y-109919853D01*
X133141784Y-110018456D01*
X132977812Y-110086376D01*
X132828512Y-110116073D01*
X132803742Y-110121000D01*
X132626258Y-110121000D01*
X132601488Y-110116073D01*
X132452188Y-110086376D01*
X132288216Y-110018456D01*
X132140646Y-109919853D01*
X132015147Y-109794354D01*
X131916544Y-109646784D01*
X131848624Y-109482812D01*
X131814000Y-109308741D01*
X131814000Y-109131259D01*
X131848624Y-108957188D01*
X131916544Y-108793216D01*
X132015147Y-108645646D01*
X132140646Y-108520147D01*
X132288216Y-108421544D01*
X132452188Y-108353624D01*
X132601488Y-108323927D01*
X132626258Y-108319000D01*
X132803742Y-108319000D01*
X132828512Y-108323927D01*
G37*
G36*
X122668512Y-108323927D02*
G01*
X122817812Y-108353624D01*
X122981784Y-108421544D01*
X123129354Y-108520147D01*
X123254853Y-108645646D01*
X123353456Y-108793216D01*
X123421376Y-108957188D01*
X123456000Y-109131259D01*
X123456000Y-109308741D01*
X123421376Y-109482812D01*
X123353456Y-109646784D01*
X123254853Y-109794354D01*
X123129354Y-109919853D01*
X122981784Y-110018456D01*
X122817812Y-110086376D01*
X122668512Y-110116073D01*
X122643742Y-110121000D01*
X122466258Y-110121000D01*
X122441488Y-110116073D01*
X122292188Y-110086376D01*
X122128216Y-110018456D01*
X121980646Y-109919853D01*
X121855147Y-109794354D01*
X121756544Y-109646784D01*
X121688624Y-109482812D01*
X121654000Y-109308741D01*
X121654000Y-109131259D01*
X121688624Y-108957188D01*
X121756544Y-108793216D01*
X121855147Y-108645646D01*
X121980646Y-108520147D01*
X122128216Y-108421544D01*
X122292188Y-108353624D01*
X122441488Y-108323927D01*
X122466258Y-108319000D01*
X122643742Y-108319000D01*
X122668512Y-108323927D01*
G37*
G36*
X122668512Y-105783927D02*
G01*
X122817812Y-105813624D01*
X122981784Y-105881544D01*
X123129354Y-105980147D01*
X123254853Y-106105646D01*
X123353456Y-106253216D01*
X123421376Y-106417188D01*
X123456000Y-106591259D01*
X123456000Y-106768741D01*
X123421376Y-106942812D01*
X123353456Y-107106784D01*
X123254853Y-107254354D01*
X123129354Y-107379853D01*
X122981784Y-107478456D01*
X122817812Y-107546376D01*
X122668512Y-107576073D01*
X122643742Y-107581000D01*
X122466258Y-107581000D01*
X122441488Y-107576073D01*
X122292188Y-107546376D01*
X122128216Y-107478456D01*
X121980646Y-107379853D01*
X121855147Y-107254354D01*
X121756544Y-107106784D01*
X121688624Y-106942812D01*
X121654000Y-106768741D01*
X121654000Y-106591259D01*
X121688624Y-106417188D01*
X121756544Y-106253216D01*
X121855147Y-106105646D01*
X121980646Y-105980147D01*
X122128216Y-105881544D01*
X122292188Y-105813624D01*
X122441488Y-105783927D01*
X122466258Y-105779000D01*
X122643742Y-105779000D01*
X122668512Y-105783927D01*
G37*
G36*
X132828512Y-105783927D02*
G01*
X132977812Y-105813624D01*
X133141784Y-105881544D01*
X133289354Y-105980147D01*
X133414853Y-106105646D01*
X133513456Y-106253216D01*
X133581376Y-106417188D01*
X133616000Y-106591259D01*
X133616000Y-106768741D01*
X133581376Y-106942812D01*
X133513456Y-107106784D01*
X133414853Y-107254354D01*
X133289354Y-107379853D01*
X133141784Y-107478456D01*
X132977812Y-107546376D01*
X132828512Y-107576073D01*
X132803742Y-107581000D01*
X132626258Y-107581000D01*
X132601488Y-107576073D01*
X132452188Y-107546376D01*
X132288216Y-107478456D01*
X132140646Y-107379853D01*
X132015147Y-107254354D01*
X131916544Y-107106784D01*
X131848624Y-106942812D01*
X131814000Y-106768741D01*
X131814000Y-106591259D01*
X131848624Y-106417188D01*
X131916544Y-106253216D01*
X132015147Y-106105646D01*
X132140646Y-105980147D01*
X132288216Y-105881544D01*
X132452188Y-105813624D01*
X132601488Y-105783927D01*
X132626258Y-105779000D01*
X132803742Y-105779000D01*
X132828512Y-105783927D01*
G37*
G36*
X132828512Y-103243927D02*
G01*
X132977812Y-103273624D01*
X133141784Y-103341544D01*
X133289354Y-103440147D01*
X133414853Y-103565646D01*
X133513456Y-103713216D01*
X133581376Y-103877188D01*
X133616000Y-104051259D01*
X133616000Y-104228741D01*
X133581376Y-104402812D01*
X133513456Y-104566784D01*
X133414853Y-104714354D01*
X133289354Y-104839853D01*
X133141784Y-104938456D01*
X132977812Y-105006376D01*
X132828512Y-105036073D01*
X132803742Y-105041000D01*
X132626258Y-105041000D01*
X132601488Y-105036073D01*
X132452188Y-105006376D01*
X132288216Y-104938456D01*
X132140646Y-104839853D01*
X132015147Y-104714354D01*
X131916544Y-104566784D01*
X131848624Y-104402812D01*
X131814000Y-104228741D01*
X131814000Y-104051259D01*
X131848624Y-103877188D01*
X131916544Y-103713216D01*
X132015147Y-103565646D01*
X132140646Y-103440147D01*
X132288216Y-103341544D01*
X132452188Y-103273624D01*
X132601488Y-103243927D01*
X132626258Y-103239000D01*
X132803742Y-103239000D01*
X132828512Y-103243927D01*
G37*
G36*
X122668512Y-103243927D02*
G01*
X122817812Y-103273624D01*
X122981784Y-103341544D01*
X123129354Y-103440147D01*
X123254853Y-103565646D01*
X123353456Y-103713216D01*
X123421376Y-103877188D01*
X123456000Y-104051259D01*
X123456000Y-104228741D01*
X123421376Y-104402812D01*
X123353456Y-104566784D01*
X123254853Y-104714354D01*
X123129354Y-104839853D01*
X122981784Y-104938456D01*
X122817812Y-105006376D01*
X122668512Y-105036073D01*
X122643742Y-105041000D01*
X122466258Y-105041000D01*
X122441488Y-105036073D01*
X122292188Y-105006376D01*
X122128216Y-104938456D01*
X121980646Y-104839853D01*
X121855147Y-104714354D01*
X121756544Y-104566784D01*
X121688624Y-104402812D01*
X121654000Y-104228741D01*
X121654000Y-104051259D01*
X121688624Y-103877188D01*
X121756544Y-103713216D01*
X121855147Y-103565646D01*
X121980646Y-103440147D01*
X122128216Y-103341544D01*
X122292188Y-103273624D01*
X122441488Y-103243927D01*
X122466258Y-103239000D01*
X122643742Y-103239000D01*
X122668512Y-103243927D01*
G37*
G36*
X123456000Y-102501000D02*
G01*
X121654000Y-102501000D01*
X121654000Y-100699000D01*
X123456000Y-100699000D01*
X123456000Y-102501000D01*
G37*
G36*
X133616000Y-102501000D02*
G01*
X131814000Y-102501000D01*
X131814000Y-100699000D01*
X133616000Y-100699000D01*
X133616000Y-102501000D01*
G37*
G36*
X141252001Y-98902999D02*
G01*
X140350001Y-98902999D01*
X140350001Y-97900999D01*
X141252001Y-97900999D01*
X141252001Y-98902999D01*
G37*
G36*
X139352001Y-98902999D02*
G01*
X138450001Y-98902999D01*
X138450001Y-97900999D01*
X139352001Y-97900999D01*
X139352001Y-98902999D01*
G37*
G36*
X142873591Y-97559585D02*
G01*
X142907569Y-97569893D01*
X142938890Y-97586634D01*
X142966339Y-97609161D01*
X142988866Y-97636610D01*
X143005607Y-97667931D01*
X143015915Y-97701909D01*
X143020000Y-97743390D01*
X143020000Y-98344610D01*
X143015915Y-98386091D01*
X143005607Y-98420069D01*
X142988866Y-98451390D01*
X142966339Y-98478839D01*
X142938890Y-98501366D01*
X142907569Y-98518107D01*
X142873591Y-98528415D01*
X142832110Y-98532500D01*
X142155890Y-98532500D01*
X142114409Y-98528415D01*
X142080431Y-98518107D01*
X142049110Y-98501366D01*
X142021661Y-98478839D01*
X141999134Y-98451390D01*
X141982393Y-98420069D01*
X141972085Y-98386091D01*
X141968000Y-98344610D01*
X141968000Y-97743390D01*
X141972085Y-97701909D01*
X141982393Y-97667931D01*
X141999134Y-97636610D01*
X142021661Y-97609161D01*
X142049110Y-97586634D01*
X142080431Y-97569893D01*
X142114409Y-97559585D01*
X142155890Y-97555500D01*
X142832110Y-97555500D01*
X142873591Y-97559585D01*
G37*
G36*
X129882091Y-96259084D02*
G01*
X129916069Y-96269392D01*
X129947390Y-96286133D01*
X129974839Y-96308660D01*
X129997366Y-96336109D01*
X130014107Y-96367430D01*
X130024415Y-96401408D01*
X130028500Y-96442889D01*
X130028500Y-97119109D01*
X130024415Y-97160590D01*
X130014107Y-97194568D01*
X129997366Y-97225889D01*
X129974839Y-97253338D01*
X129947390Y-97275865D01*
X129916069Y-97292606D01*
X129882091Y-97302914D01*
X129840610Y-97306999D01*
X129239390Y-97306999D01*
X129197909Y-97302914D01*
X129163931Y-97292606D01*
X129132610Y-97275865D01*
X129105161Y-97253338D01*
X129082634Y-97225889D01*
X129065893Y-97194568D01*
X129055585Y-97160590D01*
X129051500Y-97119109D01*
X129051500Y-96442889D01*
X129055585Y-96401408D01*
X129065893Y-96367430D01*
X129082634Y-96336109D01*
X129105161Y-96308660D01*
X129132610Y-96286133D01*
X129163931Y-96269392D01*
X129197909Y-96259084D01*
X129239390Y-96254999D01*
X129840610Y-96254999D01*
X129882091Y-96259084D01*
G37*
G36*
X128307091Y-96259084D02*
G01*
X128341069Y-96269392D01*
X128372390Y-96286133D01*
X128399839Y-96308660D01*
X128422366Y-96336109D01*
X128439107Y-96367430D01*
X128449415Y-96401408D01*
X128453500Y-96442889D01*
X128453500Y-97119109D01*
X128449415Y-97160590D01*
X128439107Y-97194568D01*
X128422366Y-97225889D01*
X128399839Y-97253338D01*
X128372390Y-97275865D01*
X128341069Y-97292606D01*
X128307091Y-97302914D01*
X128265610Y-97306999D01*
X127664390Y-97306999D01*
X127622909Y-97302914D01*
X127588931Y-97292606D01*
X127557610Y-97275865D01*
X127530161Y-97253338D01*
X127507634Y-97225889D01*
X127490893Y-97194568D01*
X127480585Y-97160590D01*
X127476500Y-97119109D01*
X127476500Y-96442889D01*
X127480585Y-96401408D01*
X127490893Y-96367430D01*
X127507634Y-96336109D01*
X127530161Y-96308660D01*
X127557610Y-96286133D01*
X127588931Y-96269392D01*
X127622909Y-96259084D01*
X127664390Y-96254999D01*
X128265610Y-96254999D01*
X128307091Y-96259084D01*
G37*
G36*
X142873591Y-95984585D02*
G01*
X142907569Y-95994893D01*
X142938890Y-96011634D01*
X142966339Y-96034161D01*
X142988866Y-96061610D01*
X143005607Y-96092931D01*
X143015915Y-96126909D01*
X143020000Y-96168390D01*
X143020000Y-96769610D01*
X143015915Y-96811091D01*
X143005607Y-96845069D01*
X142988866Y-96876390D01*
X142966339Y-96903839D01*
X142938890Y-96926366D01*
X142907569Y-96943107D01*
X142873591Y-96953415D01*
X142832110Y-96957500D01*
X142155890Y-96957500D01*
X142114409Y-96953415D01*
X142080431Y-96943107D01*
X142049110Y-96926366D01*
X142021661Y-96903839D01*
X141999134Y-96876390D01*
X141982393Y-96845069D01*
X141972085Y-96811091D01*
X141968000Y-96769610D01*
X141968000Y-96168390D01*
X141972085Y-96126909D01*
X141982393Y-96092931D01*
X141999134Y-96061610D01*
X142021661Y-96034161D01*
X142049110Y-96011634D01*
X142080431Y-95994893D01*
X142114409Y-95984585D01*
X142155890Y-95980500D01*
X142832110Y-95980500D01*
X142873591Y-95984585D01*
G37*
G36*
X140302001Y-96902999D02*
G01*
X139400001Y-96902999D01*
X139400001Y-95900999D01*
X140302001Y-95900999D01*
X140302001Y-96902999D01*
G37*
G36*
X128294591Y-94728085D02*
G01*
X128328569Y-94738393D01*
X128359890Y-94755134D01*
X128387339Y-94777661D01*
X128409866Y-94805110D01*
X128426607Y-94836431D01*
X128436915Y-94870409D01*
X128441000Y-94911890D01*
X128441000Y-95588110D01*
X128436915Y-95629591D01*
X128426607Y-95663569D01*
X128409866Y-95694890D01*
X128387339Y-95722339D01*
X128359890Y-95744866D01*
X128328569Y-95761607D01*
X128294591Y-95771915D01*
X128253110Y-95776000D01*
X127651890Y-95776000D01*
X127610409Y-95771915D01*
X127576431Y-95761607D01*
X127545110Y-95744866D01*
X127517661Y-95722339D01*
X127495134Y-95694890D01*
X127478393Y-95663569D01*
X127468085Y-95629591D01*
X127464000Y-95588110D01*
X127464000Y-94911890D01*
X127468085Y-94870409D01*
X127478393Y-94836431D01*
X127495134Y-94805110D01*
X127517661Y-94777661D01*
X127545110Y-94755134D01*
X127576431Y-94738393D01*
X127610409Y-94728085D01*
X127651890Y-94724000D01*
X128253110Y-94724000D01*
X128294591Y-94728085D01*
G37*
G36*
X129869591Y-94728085D02*
G01*
X129903569Y-94738393D01*
X129934890Y-94755134D01*
X129962339Y-94777661D01*
X129984866Y-94805110D01*
X130001607Y-94836431D01*
X130011915Y-94870409D01*
X130016000Y-94911890D01*
X130016000Y-95588110D01*
X130011915Y-95629591D01*
X130001607Y-95663569D01*
X129984866Y-95694890D01*
X129962339Y-95722339D01*
X129934890Y-95744866D01*
X129903569Y-95761607D01*
X129869591Y-95771915D01*
X129828110Y-95776000D01*
X129226890Y-95776000D01*
X129185409Y-95771915D01*
X129151431Y-95761607D01*
X129120110Y-95744866D01*
X129092661Y-95722339D01*
X129070134Y-95694890D01*
X129053393Y-95663569D01*
X129043085Y-95629591D01*
X129039000Y-95588110D01*
X129039000Y-94911890D01*
X129043085Y-94870409D01*
X129053393Y-94836431D01*
X129070134Y-94805110D01*
X129092661Y-94777661D01*
X129120110Y-94755134D01*
X129151431Y-94738393D01*
X129185409Y-94728085D01*
X129226890Y-94724000D01*
X129828110Y-94724000D01*
X129869591Y-94728085D01*
G37*
G36*
X116731000Y-95417000D02*
G01*
X114229000Y-95417000D01*
X114229000Y-94575000D01*
X116731000Y-94575000D01*
X116731000Y-95417000D01*
G37*
G36*
X120631000Y-95417000D02*
G01*
X118129000Y-95417000D01*
X118129000Y-94575000D01*
X120631000Y-94575000D01*
X120631000Y-95417000D01*
G37*
G36*
X130272051Y-92784284D02*
G01*
X130288443Y-92789257D01*
X130303555Y-92797334D01*
X130316798Y-92808202D01*
X130327667Y-92821447D01*
X130331761Y-92829106D01*
X130345374Y-92849480D01*
X130362701Y-92866807D01*
X130383076Y-92880421D01*
X130405714Y-92889798D01*
X130429748Y-92894579D01*
X130454252Y-92894579D01*
X130478285Y-92889799D01*
X130500924Y-92880421D01*
X130521298Y-92866808D01*
X130538625Y-92849481D01*
X130552239Y-92829106D01*
X130556333Y-92821447D01*
X130567202Y-92808202D01*
X130580445Y-92797334D01*
X130595557Y-92789257D01*
X130611949Y-92784284D01*
X130635141Y-92782000D01*
X131048859Y-92782000D01*
X131072051Y-92784284D01*
X131088443Y-92789257D01*
X131103555Y-92797334D01*
X131116798Y-92808202D01*
X131127667Y-92821447D01*
X131131761Y-92829106D01*
X131145374Y-92849480D01*
X131162701Y-92866807D01*
X131183076Y-92880421D01*
X131205714Y-92889798D01*
X131229748Y-92894579D01*
X131254252Y-92894579D01*
X131278285Y-92889799D01*
X131300924Y-92880421D01*
X131321298Y-92866808D01*
X131338625Y-92849481D01*
X131352239Y-92829106D01*
X131356333Y-92821447D01*
X131367202Y-92808202D01*
X131380445Y-92797334D01*
X131395557Y-92789257D01*
X131411949Y-92784284D01*
X131435141Y-92782000D01*
X131848859Y-92782000D01*
X131872051Y-92784284D01*
X131888443Y-92789257D01*
X131903555Y-92797334D01*
X131916798Y-92808202D01*
X131927667Y-92821447D01*
X131931761Y-92829106D01*
X131945374Y-92849480D01*
X131962701Y-92866807D01*
X131983076Y-92880421D01*
X132005714Y-92889798D01*
X132029748Y-92894579D01*
X132054252Y-92894579D01*
X132078285Y-92889799D01*
X132100924Y-92880421D01*
X132121298Y-92866808D01*
X132138625Y-92849481D01*
X132152239Y-92829106D01*
X132156333Y-92821447D01*
X132167202Y-92808202D01*
X132180445Y-92797334D01*
X132195557Y-92789257D01*
X132211949Y-92784284D01*
X132235141Y-92782000D01*
X132648859Y-92782000D01*
X132672051Y-92784284D01*
X132688443Y-92789257D01*
X132703555Y-92797334D01*
X132716798Y-92808202D01*
X132727667Y-92821447D01*
X132731761Y-92829106D01*
X132745374Y-92849480D01*
X132762701Y-92866807D01*
X132783076Y-92880421D01*
X132805714Y-92889798D01*
X132829748Y-92894579D01*
X132854252Y-92894579D01*
X132878285Y-92889799D01*
X132900924Y-92880421D01*
X132921298Y-92866808D01*
X132938625Y-92849481D01*
X132952239Y-92829106D01*
X132956333Y-92821447D01*
X132967202Y-92808202D01*
X132980445Y-92797334D01*
X132995557Y-92789257D01*
X133011949Y-92784284D01*
X133035141Y-92782000D01*
X133448859Y-92782000D01*
X133472051Y-92784284D01*
X133488443Y-92789257D01*
X133503555Y-92797334D01*
X133516798Y-92808202D01*
X133527667Y-92821447D01*
X133531761Y-92829106D01*
X133545374Y-92849480D01*
X133562701Y-92866807D01*
X133583076Y-92880421D01*
X133605714Y-92889798D01*
X133629748Y-92894579D01*
X133654252Y-92894579D01*
X133678285Y-92889799D01*
X133700924Y-92880421D01*
X133721298Y-92866808D01*
X133738625Y-92849481D01*
X133752239Y-92829106D01*
X133756333Y-92821447D01*
X133767202Y-92808202D01*
X133780445Y-92797334D01*
X133795557Y-92789257D01*
X133811949Y-92784284D01*
X133835141Y-92782000D01*
X134248859Y-92782000D01*
X134272051Y-92784284D01*
X134288443Y-92789257D01*
X134303555Y-92797334D01*
X134316798Y-92808202D01*
X134327667Y-92821447D01*
X134331761Y-92829106D01*
X134345374Y-92849480D01*
X134362701Y-92866807D01*
X134383076Y-92880421D01*
X134405714Y-92889798D01*
X134429748Y-92894579D01*
X134454252Y-92894579D01*
X134478285Y-92889799D01*
X134500924Y-92880421D01*
X134521298Y-92866808D01*
X134538625Y-92849481D01*
X134552239Y-92829106D01*
X134556333Y-92821447D01*
X134567202Y-92808202D01*
X134580445Y-92797334D01*
X134595557Y-92789257D01*
X134611949Y-92784284D01*
X134635141Y-92782000D01*
X135048859Y-92782000D01*
X135072051Y-92784284D01*
X135088443Y-92789257D01*
X135103555Y-92797334D01*
X135116798Y-92808202D01*
X135127667Y-92821447D01*
X135131761Y-92829106D01*
X135145374Y-92849480D01*
X135162701Y-92866807D01*
X135183076Y-92880421D01*
X135205714Y-92889798D01*
X135229748Y-92894579D01*
X135254252Y-92894579D01*
X135278285Y-92889799D01*
X135300924Y-92880421D01*
X135321298Y-92866808D01*
X135338625Y-92849481D01*
X135352239Y-92829106D01*
X135356333Y-92821447D01*
X135367202Y-92808202D01*
X135380445Y-92797334D01*
X135395557Y-92789257D01*
X135411949Y-92784284D01*
X135435141Y-92782000D01*
X135848859Y-92782000D01*
X135872051Y-92784284D01*
X135888443Y-92789257D01*
X135903555Y-92797334D01*
X135916798Y-92808202D01*
X135927666Y-92821445D01*
X135935743Y-92836557D01*
X135940716Y-92852949D01*
X135943000Y-92876141D01*
X135943000Y-94289859D01*
X135940716Y-94313051D01*
X135935743Y-94329443D01*
X135927666Y-94344555D01*
X135916798Y-94357798D01*
X135903555Y-94368666D01*
X135888443Y-94376743D01*
X135872051Y-94381716D01*
X135848859Y-94384000D01*
X135435141Y-94384000D01*
X135411949Y-94381716D01*
X135395557Y-94376743D01*
X135380445Y-94368666D01*
X135367202Y-94357798D01*
X135356333Y-94344553D01*
X135352239Y-94336894D01*
X135338626Y-94316520D01*
X135321299Y-94299193D01*
X135300924Y-94285579D01*
X135278286Y-94276202D01*
X135254252Y-94271421D01*
X135229748Y-94271421D01*
X135205715Y-94276201D01*
X135183076Y-94285579D01*
X135162702Y-94299192D01*
X135145375Y-94316519D01*
X135131761Y-94336894D01*
X135127667Y-94344553D01*
X135116798Y-94357798D01*
X135103555Y-94368666D01*
X135088443Y-94376743D01*
X135072051Y-94381716D01*
X135048859Y-94384000D01*
X134635141Y-94384000D01*
X134611949Y-94381716D01*
X134595557Y-94376743D01*
X134580445Y-94368666D01*
X134567202Y-94357798D01*
X134556333Y-94344553D01*
X134552239Y-94336894D01*
X134538626Y-94316520D01*
X134521299Y-94299193D01*
X134500924Y-94285579D01*
X134478286Y-94276202D01*
X134454252Y-94271421D01*
X134429748Y-94271421D01*
X134405715Y-94276201D01*
X134383076Y-94285579D01*
X134362702Y-94299192D01*
X134345375Y-94316519D01*
X134331761Y-94336894D01*
X134327667Y-94344553D01*
X134316798Y-94357798D01*
X134303555Y-94368666D01*
X134288443Y-94376743D01*
X134272051Y-94381716D01*
X134248859Y-94384000D01*
X133835141Y-94384000D01*
X133811949Y-94381716D01*
X133795557Y-94376743D01*
X133780445Y-94368666D01*
X133767202Y-94357798D01*
X133756333Y-94344553D01*
X133752239Y-94336894D01*
X133738626Y-94316520D01*
X133721299Y-94299193D01*
X133700924Y-94285579D01*
X133678286Y-94276202D01*
X133654252Y-94271421D01*
X133629748Y-94271421D01*
X133605715Y-94276201D01*
X133583076Y-94285579D01*
X133562702Y-94299192D01*
X133545375Y-94316519D01*
X133531761Y-94336894D01*
X133527667Y-94344553D01*
X133516798Y-94357798D01*
X133503555Y-94368666D01*
X133488443Y-94376743D01*
X133472051Y-94381716D01*
X133448859Y-94384000D01*
X133035141Y-94384000D01*
X133011949Y-94381716D01*
X132995557Y-94376743D01*
X132980445Y-94368666D01*
X132967202Y-94357798D01*
X132956333Y-94344553D01*
X132952239Y-94336894D01*
X132938626Y-94316520D01*
X132921299Y-94299193D01*
X132900924Y-94285579D01*
X132878286Y-94276202D01*
X132854252Y-94271421D01*
X132829748Y-94271421D01*
X132805715Y-94276201D01*
X132783076Y-94285579D01*
X132762702Y-94299192D01*
X132745375Y-94316519D01*
X132731761Y-94336894D01*
X132727667Y-94344553D01*
X132716798Y-94357798D01*
X132703555Y-94368666D01*
X132688443Y-94376743D01*
X132672051Y-94381716D01*
X132648859Y-94384000D01*
X132235141Y-94384000D01*
X132211949Y-94381716D01*
X132195557Y-94376743D01*
X132180445Y-94368666D01*
X132167202Y-94357798D01*
X132156333Y-94344553D01*
X132152239Y-94336894D01*
X132138626Y-94316520D01*
X132121299Y-94299193D01*
X132100924Y-94285579D01*
X132078286Y-94276202D01*
X132054252Y-94271421D01*
X132029748Y-94271421D01*
X132005715Y-94276201D01*
X131983076Y-94285579D01*
X131962702Y-94299192D01*
X131945375Y-94316519D01*
X131931761Y-94336894D01*
X131927667Y-94344553D01*
X131916798Y-94357798D01*
X131903555Y-94368666D01*
X131888443Y-94376743D01*
X131872051Y-94381716D01*
X131848859Y-94384000D01*
X131435141Y-94384000D01*
X131411949Y-94381716D01*
X131395557Y-94376743D01*
X131380445Y-94368666D01*
X131367202Y-94357798D01*
X131356333Y-94344553D01*
X131352239Y-94336894D01*
X131338626Y-94316520D01*
X131321299Y-94299193D01*
X131300924Y-94285579D01*
X131278286Y-94276202D01*
X131254252Y-94271421D01*
X131229748Y-94271421D01*
X131205715Y-94276201D01*
X131183076Y-94285579D01*
X131162702Y-94299192D01*
X131145375Y-94316519D01*
X131131761Y-94336894D01*
X131127667Y-94344553D01*
X131116798Y-94357798D01*
X131103555Y-94368666D01*
X131088443Y-94376743D01*
X131072051Y-94381716D01*
X131048859Y-94384000D01*
X130635141Y-94384000D01*
X130611949Y-94381716D01*
X130595557Y-94376743D01*
X130580445Y-94368666D01*
X130567202Y-94357798D01*
X130556333Y-94344553D01*
X130552239Y-94336894D01*
X130538626Y-94316520D01*
X130521299Y-94299193D01*
X130500924Y-94285579D01*
X130478286Y-94276202D01*
X130454252Y-94271421D01*
X130429748Y-94271421D01*
X130405715Y-94276201D01*
X130383076Y-94285579D01*
X130362702Y-94299192D01*
X130345375Y-94316519D01*
X130331761Y-94336894D01*
X130327667Y-94344553D01*
X130316798Y-94357798D01*
X130303555Y-94368666D01*
X130288443Y-94376743D01*
X130272051Y-94381716D01*
X130248859Y-94384000D01*
X129835141Y-94384000D01*
X129811949Y-94381716D01*
X129795557Y-94376743D01*
X129780445Y-94368666D01*
X129767202Y-94357798D01*
X129756334Y-94344555D01*
X129748257Y-94329443D01*
X129743284Y-94313051D01*
X129741000Y-94289859D01*
X129741000Y-92876141D01*
X129743284Y-92852949D01*
X129748257Y-92836557D01*
X129756334Y-92821445D01*
X129767202Y-92808202D01*
X129780445Y-92797334D01*
X129795557Y-92789257D01*
X129811949Y-92784284D01*
X129835141Y-92782000D01*
X130248859Y-92782000D01*
X130272051Y-92784284D01*
G37*
G36*
X120631000Y-94147000D02*
G01*
X118129000Y-94147000D01*
X118129000Y-93305000D01*
X120631000Y-93305000D01*
X120631000Y-94147000D01*
G37*
G36*
X116731000Y-94147000D02*
G01*
X114229000Y-94147000D01*
X114229000Y-93305000D01*
X116731000Y-93305000D01*
X116731000Y-94147000D01*
G37*
G36*
X144053999Y-93753999D02*
G01*
X143051999Y-93753999D01*
X143051999Y-92851999D01*
X144053999Y-92851999D01*
X144053999Y-93753999D01*
G37*
G36*
X120631000Y-92877000D02*
G01*
X118129000Y-92877000D01*
X118129000Y-92035000D01*
X120631000Y-92035000D01*
X120631000Y-92877000D01*
G37*
G36*
X116731000Y-92877000D02*
G01*
X114229000Y-92877000D01*
X114229000Y-92035000D01*
X116731000Y-92035000D01*
X116731000Y-92877000D01*
G37*
G36*
X142053999Y-92803999D02*
G01*
X141051999Y-92803999D01*
X141051999Y-91901999D01*
X142053999Y-91901999D01*
X142053999Y-92803999D01*
G37*
G36*
X137747051Y-86309284D02*
G01*
X137763443Y-86314257D01*
X137778555Y-86322334D01*
X137791798Y-86333202D01*
X137802666Y-86346445D01*
X137810743Y-86361557D01*
X137815716Y-86377949D01*
X137818000Y-86401141D01*
X137818000Y-86814859D01*
X137815716Y-86838051D01*
X137810743Y-86854443D01*
X137802666Y-86869555D01*
X137791798Y-86882798D01*
X137778553Y-86893667D01*
X137770894Y-86897761D01*
X137750520Y-86911374D01*
X137733193Y-86928701D01*
X137719579Y-86949076D01*
X137710202Y-86971714D01*
X137705421Y-86995748D01*
X137705421Y-87020252D01*
X137710201Y-87044285D01*
X137719579Y-87066924D01*
X137733192Y-87087298D01*
X137750519Y-87104625D01*
X137770894Y-87118239D01*
X137778553Y-87122333D01*
X137791798Y-87133202D01*
X137802666Y-87146445D01*
X137810743Y-87161557D01*
X137815716Y-87177949D01*
X137818000Y-87201141D01*
X137818000Y-87614859D01*
X137815716Y-87638051D01*
X137810743Y-87654443D01*
X137802666Y-87669555D01*
X137791798Y-87682798D01*
X137778553Y-87693667D01*
X137770894Y-87697761D01*
X137750520Y-87711374D01*
X137733193Y-87728701D01*
X137719579Y-87749076D01*
X137710202Y-87771714D01*
X137705421Y-87795748D01*
X137705421Y-87820252D01*
X137710201Y-87844285D01*
X137719579Y-87866924D01*
X137733192Y-87887298D01*
X137750519Y-87904625D01*
X137770894Y-87918239D01*
X137778553Y-87922333D01*
X137791798Y-87933202D01*
X137802666Y-87946445D01*
X137810743Y-87961557D01*
X137815716Y-87977949D01*
X137818000Y-88001141D01*
X137818000Y-88414859D01*
X137815716Y-88438051D01*
X137810743Y-88454443D01*
X137802666Y-88469555D01*
X137791798Y-88482798D01*
X137778553Y-88493667D01*
X137770894Y-88497761D01*
X137750520Y-88511374D01*
X137733193Y-88528701D01*
X137719579Y-88549076D01*
X137710202Y-88571714D01*
X137705421Y-88595748D01*
X137705421Y-88620252D01*
X137710201Y-88644285D01*
X137719579Y-88666924D01*
X137733192Y-88687298D01*
X137750519Y-88704625D01*
X137770894Y-88718239D01*
X137778553Y-88722333D01*
X137791798Y-88733202D01*
X137802666Y-88746445D01*
X137810743Y-88761557D01*
X137815716Y-88777949D01*
X137818000Y-88801141D01*
X137818000Y-89214859D01*
X137815716Y-89238051D01*
X137810743Y-89254443D01*
X137802666Y-89269555D01*
X137791798Y-89282798D01*
X137778553Y-89293667D01*
X137770894Y-89297761D01*
X137750520Y-89311374D01*
X137733193Y-89328701D01*
X137719579Y-89349076D01*
X137710202Y-89371714D01*
X137705421Y-89395748D01*
X137705421Y-89420252D01*
X137710201Y-89444285D01*
X137719579Y-89466924D01*
X137733192Y-89487298D01*
X137750519Y-89504625D01*
X137770894Y-89518239D01*
X137778553Y-89522333D01*
X137791798Y-89533202D01*
X137802666Y-89546445D01*
X137810743Y-89561557D01*
X137815716Y-89577949D01*
X137818000Y-89601141D01*
X137818000Y-90014859D01*
X137815716Y-90038051D01*
X137810743Y-90054443D01*
X137802666Y-90069555D01*
X137791798Y-90082798D01*
X137778553Y-90093667D01*
X137770894Y-90097761D01*
X137750520Y-90111374D01*
X137733193Y-90128701D01*
X137719579Y-90149076D01*
X137710202Y-90171714D01*
X137705421Y-90195748D01*
X137705421Y-90220252D01*
X137710201Y-90244285D01*
X137719579Y-90266924D01*
X137733192Y-90287298D01*
X137750519Y-90304625D01*
X137770894Y-90318239D01*
X137778553Y-90322333D01*
X137791798Y-90333202D01*
X137802666Y-90346445D01*
X137810743Y-90361557D01*
X137815716Y-90377949D01*
X137818000Y-90401141D01*
X137818000Y-90814859D01*
X137815716Y-90838051D01*
X137810743Y-90854443D01*
X137802666Y-90869555D01*
X137791798Y-90882798D01*
X137778553Y-90893667D01*
X137770894Y-90897761D01*
X137750520Y-90911374D01*
X137733193Y-90928701D01*
X137719579Y-90949076D01*
X137710202Y-90971714D01*
X137705421Y-90995748D01*
X137705421Y-91020252D01*
X137710201Y-91044285D01*
X137719579Y-91066924D01*
X137733192Y-91087298D01*
X137750519Y-91104625D01*
X137770894Y-91118239D01*
X137778553Y-91122333D01*
X137791798Y-91133202D01*
X137802666Y-91146445D01*
X137810743Y-91161557D01*
X137815716Y-91177949D01*
X137818000Y-91201141D01*
X137818000Y-91614859D01*
X137815716Y-91638051D01*
X137810743Y-91654443D01*
X137802666Y-91669555D01*
X137791798Y-91682798D01*
X137778553Y-91693667D01*
X137770894Y-91697761D01*
X137750520Y-91711374D01*
X137733193Y-91728701D01*
X137719579Y-91749076D01*
X137710202Y-91771714D01*
X137705421Y-91795748D01*
X137705421Y-91820252D01*
X137710201Y-91844285D01*
X137719579Y-91866924D01*
X137733192Y-91887298D01*
X137750519Y-91904625D01*
X137770894Y-91918239D01*
X137778553Y-91922333D01*
X137791798Y-91933202D01*
X137802666Y-91946445D01*
X137810743Y-91961557D01*
X137815716Y-91977949D01*
X137818000Y-92001141D01*
X137818000Y-92414859D01*
X137815716Y-92438051D01*
X137810743Y-92454443D01*
X137802666Y-92469555D01*
X137791798Y-92482798D01*
X137778555Y-92493666D01*
X137763443Y-92501743D01*
X137747051Y-92506716D01*
X137723859Y-92509000D01*
X136310141Y-92509000D01*
X136286949Y-92506716D01*
X136270557Y-92501743D01*
X136255445Y-92493666D01*
X136242202Y-92482798D01*
X136231334Y-92469555D01*
X136223257Y-92454443D01*
X136218284Y-92438051D01*
X136216000Y-92414859D01*
X136216000Y-92001141D01*
X136218284Y-91977949D01*
X136223257Y-91961557D01*
X136231334Y-91946445D01*
X136242202Y-91933202D01*
X136255447Y-91922333D01*
X136263106Y-91918239D01*
X136283480Y-91904626D01*
X136300807Y-91887299D01*
X136314421Y-91866924D01*
X136323798Y-91844286D01*
X136328579Y-91820252D01*
X136328579Y-91795748D01*
X136323799Y-91771715D01*
X136314421Y-91749076D01*
X136300808Y-91728702D01*
X136283481Y-91711375D01*
X136263106Y-91697761D01*
X136255447Y-91693667D01*
X136242202Y-91682798D01*
X136231334Y-91669555D01*
X136223257Y-91654443D01*
X136218284Y-91638051D01*
X136216000Y-91614859D01*
X136216000Y-91201141D01*
X136218284Y-91177949D01*
X136223257Y-91161557D01*
X136231334Y-91146445D01*
X136242202Y-91133202D01*
X136255447Y-91122333D01*
X136263106Y-91118239D01*
X136283480Y-91104626D01*
X136300807Y-91087299D01*
X136314421Y-91066924D01*
X136323798Y-91044286D01*
X136328579Y-91020252D01*
X136328579Y-90995748D01*
X136323799Y-90971715D01*
X136314421Y-90949076D01*
X136300808Y-90928702D01*
X136283481Y-90911375D01*
X136263106Y-90897761D01*
X136255447Y-90893667D01*
X136242202Y-90882798D01*
X136231334Y-90869555D01*
X136223257Y-90854443D01*
X136218284Y-90838051D01*
X136216000Y-90814859D01*
X136216000Y-90401141D01*
X136218284Y-90377949D01*
X136223257Y-90361557D01*
X136231334Y-90346445D01*
X136242202Y-90333202D01*
X136255447Y-90322333D01*
X136263106Y-90318239D01*
X136283480Y-90304626D01*
X136300807Y-90287299D01*
X136314421Y-90266924D01*
X136323798Y-90244286D01*
X136328579Y-90220252D01*
X136328579Y-90195748D01*
X136323799Y-90171715D01*
X136314421Y-90149076D01*
X136300808Y-90128702D01*
X136283481Y-90111375D01*
X136263106Y-90097761D01*
X136255447Y-90093667D01*
X136242202Y-90082798D01*
X136231334Y-90069555D01*
X136223257Y-90054443D01*
X136218284Y-90038051D01*
X136216000Y-90014859D01*
X136216000Y-89601141D01*
X136218284Y-89577949D01*
X136223257Y-89561557D01*
X136231334Y-89546445D01*
X136242202Y-89533202D01*
X136255447Y-89522333D01*
X136263106Y-89518239D01*
X136283480Y-89504626D01*
X136300807Y-89487299D01*
X136314421Y-89466924D01*
X136323798Y-89444286D01*
X136328579Y-89420252D01*
X136328579Y-89395748D01*
X136323799Y-89371715D01*
X136314421Y-89349076D01*
X136300808Y-89328702D01*
X136283481Y-89311375D01*
X136263106Y-89297761D01*
X136255447Y-89293667D01*
X136242202Y-89282798D01*
X136231334Y-89269555D01*
X136223257Y-89254443D01*
X136218284Y-89238051D01*
X136216000Y-89214859D01*
X136216000Y-88801141D01*
X136218284Y-88777949D01*
X136223257Y-88761557D01*
X136231334Y-88746445D01*
X136242202Y-88733202D01*
X136255447Y-88722333D01*
X136263106Y-88718239D01*
X136283480Y-88704626D01*
X136300807Y-88687299D01*
X136314421Y-88666924D01*
X136323798Y-88644286D01*
X136328579Y-88620252D01*
X136328579Y-88595748D01*
X136323799Y-88571715D01*
X136314421Y-88549076D01*
X136300808Y-88528702D01*
X136283481Y-88511375D01*
X136263106Y-88497761D01*
X136255447Y-88493667D01*
X136242202Y-88482798D01*
X136231334Y-88469555D01*
X136223257Y-88454443D01*
X136218284Y-88438051D01*
X136216000Y-88414859D01*
X136216000Y-88001141D01*
X136218284Y-87977949D01*
X136223257Y-87961557D01*
X136231334Y-87946445D01*
X136242202Y-87933202D01*
X136255447Y-87922333D01*
X136263106Y-87918239D01*
X136283480Y-87904626D01*
X136300807Y-87887299D01*
X136314421Y-87866924D01*
X136323798Y-87844286D01*
X136328579Y-87820252D01*
X136328579Y-87795748D01*
X136323799Y-87771715D01*
X136314421Y-87749076D01*
X136300808Y-87728702D01*
X136283481Y-87711375D01*
X136263106Y-87697761D01*
X136255447Y-87693667D01*
X136242202Y-87682798D01*
X136231334Y-87669555D01*
X136223257Y-87654443D01*
X136218284Y-87638051D01*
X136216000Y-87614859D01*
X136216000Y-87201141D01*
X136218284Y-87177949D01*
X136223257Y-87161557D01*
X136231334Y-87146445D01*
X136242202Y-87133202D01*
X136255447Y-87122333D01*
X136263106Y-87118239D01*
X136283480Y-87104626D01*
X136300807Y-87087299D01*
X136314421Y-87066924D01*
X136323798Y-87044286D01*
X136328579Y-87020252D01*
X136328579Y-86995748D01*
X136323799Y-86971715D01*
X136314421Y-86949076D01*
X136300808Y-86928702D01*
X136283481Y-86911375D01*
X136263106Y-86897761D01*
X136255447Y-86893667D01*
X136242202Y-86882798D01*
X136231334Y-86869555D01*
X136223257Y-86854443D01*
X136218284Y-86838051D01*
X136216000Y-86814859D01*
X136216000Y-86401141D01*
X136218284Y-86377949D01*
X136223257Y-86361557D01*
X136231334Y-86346445D01*
X136242202Y-86333202D01*
X136255445Y-86322334D01*
X136270557Y-86314257D01*
X136286949Y-86309284D01*
X136310141Y-86307000D01*
X137723859Y-86307000D01*
X137747051Y-86309284D01*
G37*
G36*
X129397051Y-86309284D02*
G01*
X129413443Y-86314257D01*
X129428555Y-86322334D01*
X129441798Y-86333202D01*
X129452666Y-86346445D01*
X129460743Y-86361557D01*
X129465716Y-86377949D01*
X129468000Y-86401141D01*
X129468000Y-86814859D01*
X129465716Y-86838051D01*
X129460743Y-86854443D01*
X129452666Y-86869555D01*
X129441798Y-86882798D01*
X129428553Y-86893667D01*
X129420894Y-86897761D01*
X129400520Y-86911374D01*
X129383193Y-86928701D01*
X129369579Y-86949076D01*
X129360202Y-86971714D01*
X129355421Y-86995748D01*
X129355421Y-87020252D01*
X129360201Y-87044285D01*
X129369579Y-87066924D01*
X129383192Y-87087298D01*
X129400519Y-87104625D01*
X129420894Y-87118239D01*
X129428553Y-87122333D01*
X129441798Y-87133202D01*
X129452666Y-87146445D01*
X129460743Y-87161557D01*
X129465716Y-87177949D01*
X129468000Y-87201141D01*
X129468000Y-87614859D01*
X129465716Y-87638051D01*
X129460743Y-87654443D01*
X129452666Y-87669555D01*
X129441798Y-87682798D01*
X129428553Y-87693667D01*
X129420894Y-87697761D01*
X129400520Y-87711374D01*
X129383193Y-87728701D01*
X129369579Y-87749076D01*
X129360202Y-87771714D01*
X129355421Y-87795748D01*
X129355421Y-87820252D01*
X129360201Y-87844285D01*
X129369579Y-87866924D01*
X129383192Y-87887298D01*
X129400519Y-87904625D01*
X129420894Y-87918239D01*
X129428553Y-87922333D01*
X129441798Y-87933202D01*
X129452666Y-87946445D01*
X129460743Y-87961557D01*
X129465716Y-87977949D01*
X129468000Y-88001141D01*
X129468000Y-88414859D01*
X129465716Y-88438051D01*
X129460743Y-88454443D01*
X129452666Y-88469555D01*
X129441798Y-88482798D01*
X129428553Y-88493667D01*
X129420894Y-88497761D01*
X129400520Y-88511374D01*
X129383193Y-88528701D01*
X129369579Y-88549076D01*
X129360202Y-88571714D01*
X129355421Y-88595748D01*
X129355421Y-88620252D01*
X129360201Y-88644285D01*
X129369579Y-88666924D01*
X129383192Y-88687298D01*
X129400519Y-88704625D01*
X129420894Y-88718239D01*
X129428553Y-88722333D01*
X129441798Y-88733202D01*
X129452666Y-88746445D01*
X129460743Y-88761557D01*
X129465716Y-88777949D01*
X129468000Y-88801141D01*
X129468000Y-89214859D01*
X129465716Y-89238051D01*
X129460743Y-89254443D01*
X129452666Y-89269555D01*
X129441798Y-89282798D01*
X129428553Y-89293667D01*
X129420894Y-89297761D01*
X129400520Y-89311374D01*
X129383193Y-89328701D01*
X129369579Y-89349076D01*
X129360202Y-89371714D01*
X129355421Y-89395748D01*
X129355421Y-89420252D01*
X129360201Y-89444285D01*
X129369579Y-89466924D01*
X129383192Y-89487298D01*
X129400519Y-89504625D01*
X129420894Y-89518239D01*
X129428553Y-89522333D01*
X129441798Y-89533202D01*
X129452666Y-89546445D01*
X129460743Y-89561557D01*
X129465716Y-89577949D01*
X129468000Y-89601141D01*
X129468000Y-90014859D01*
X129465716Y-90038051D01*
X129460743Y-90054443D01*
X129452666Y-90069555D01*
X129441798Y-90082798D01*
X129428553Y-90093667D01*
X129420894Y-90097761D01*
X129400520Y-90111374D01*
X129383193Y-90128701D01*
X129369579Y-90149076D01*
X129360202Y-90171714D01*
X129355421Y-90195748D01*
X129355421Y-90220252D01*
X129360201Y-90244285D01*
X129369579Y-90266924D01*
X129383192Y-90287298D01*
X129400519Y-90304625D01*
X129420894Y-90318239D01*
X129428553Y-90322333D01*
X129441798Y-90333202D01*
X129452666Y-90346445D01*
X129460743Y-90361557D01*
X129465716Y-90377949D01*
X129468000Y-90401141D01*
X129468000Y-90814859D01*
X129465716Y-90838051D01*
X129460743Y-90854443D01*
X129452666Y-90869555D01*
X129441798Y-90882798D01*
X129428553Y-90893667D01*
X129420894Y-90897761D01*
X129400520Y-90911374D01*
X129383193Y-90928701D01*
X129369579Y-90949076D01*
X129360202Y-90971714D01*
X129355421Y-90995748D01*
X129355421Y-91020252D01*
X129360201Y-91044285D01*
X129369579Y-91066924D01*
X129383192Y-91087298D01*
X129400519Y-91104625D01*
X129420894Y-91118239D01*
X129428553Y-91122333D01*
X129441798Y-91133202D01*
X129452666Y-91146445D01*
X129460743Y-91161557D01*
X129465716Y-91177949D01*
X129468000Y-91201141D01*
X129468000Y-91614859D01*
X129465716Y-91638051D01*
X129460743Y-91654443D01*
X129452666Y-91669555D01*
X129441798Y-91682798D01*
X129428553Y-91693667D01*
X129420894Y-91697761D01*
X129400520Y-91711374D01*
X129383193Y-91728701D01*
X129369579Y-91749076D01*
X129360202Y-91771714D01*
X129355421Y-91795748D01*
X129355421Y-91820252D01*
X129360201Y-91844285D01*
X129369579Y-91866924D01*
X129383192Y-91887298D01*
X129400519Y-91904625D01*
X129420894Y-91918239D01*
X129428553Y-91922333D01*
X129441798Y-91933202D01*
X129452666Y-91946445D01*
X129460743Y-91961557D01*
X129465716Y-91977949D01*
X129468000Y-92001141D01*
X129468000Y-92414859D01*
X129465716Y-92438051D01*
X129460743Y-92454443D01*
X129452666Y-92469555D01*
X129441798Y-92482798D01*
X129428555Y-92493666D01*
X129413443Y-92501743D01*
X129397051Y-92506716D01*
X129373859Y-92509000D01*
X127960141Y-92509000D01*
X127936949Y-92506716D01*
X127920557Y-92501743D01*
X127905445Y-92493666D01*
X127892202Y-92482798D01*
X127881334Y-92469555D01*
X127873257Y-92454443D01*
X127868284Y-92438051D01*
X127866000Y-92414859D01*
X127866000Y-92001141D01*
X127868284Y-91977949D01*
X127873257Y-91961557D01*
X127881334Y-91946445D01*
X127892202Y-91933202D01*
X127905447Y-91922333D01*
X127913106Y-91918239D01*
X127933480Y-91904626D01*
X127950807Y-91887299D01*
X127964421Y-91866924D01*
X127973798Y-91844286D01*
X127978579Y-91820252D01*
X127978579Y-91795748D01*
X127973799Y-91771715D01*
X127964421Y-91749076D01*
X127950808Y-91728702D01*
X127933481Y-91711375D01*
X127913106Y-91697761D01*
X127905447Y-91693667D01*
X127892202Y-91682798D01*
X127881334Y-91669555D01*
X127873257Y-91654443D01*
X127868284Y-91638051D01*
X127866000Y-91614859D01*
X127866000Y-91201141D01*
X127868284Y-91177949D01*
X127873257Y-91161557D01*
X127881334Y-91146445D01*
X127892202Y-91133202D01*
X127905447Y-91122333D01*
X127913106Y-91118239D01*
X127933480Y-91104626D01*
X127950807Y-91087299D01*
X127964421Y-91066924D01*
X127973798Y-91044286D01*
X127978579Y-91020252D01*
X127978579Y-90995748D01*
X127973799Y-90971715D01*
X127964421Y-90949076D01*
X127950808Y-90928702D01*
X127933481Y-90911375D01*
X127913106Y-90897761D01*
X127905447Y-90893667D01*
X127892202Y-90882798D01*
X127881334Y-90869555D01*
X127873257Y-90854443D01*
X127868284Y-90838051D01*
X127866000Y-90814859D01*
X127866000Y-90401141D01*
X127868284Y-90377949D01*
X127873257Y-90361557D01*
X127881334Y-90346445D01*
X127892202Y-90333202D01*
X127905447Y-90322333D01*
X127913106Y-90318239D01*
X127933480Y-90304626D01*
X127950807Y-90287299D01*
X127964421Y-90266924D01*
X127973798Y-90244286D01*
X127978579Y-90220252D01*
X127978579Y-90195748D01*
X127973799Y-90171715D01*
X127964421Y-90149076D01*
X127950808Y-90128702D01*
X127933481Y-90111375D01*
X127913106Y-90097761D01*
X127905447Y-90093667D01*
X127892202Y-90082798D01*
X127881334Y-90069555D01*
X127873257Y-90054443D01*
X127868284Y-90038051D01*
X127866000Y-90014859D01*
X127866000Y-89601141D01*
X127868284Y-89577949D01*
X127873257Y-89561557D01*
X127881334Y-89546445D01*
X127892202Y-89533202D01*
X127905447Y-89522333D01*
X127913106Y-89518239D01*
X127933480Y-89504626D01*
X127950807Y-89487299D01*
X127964421Y-89466924D01*
X127973798Y-89444286D01*
X127978579Y-89420252D01*
X127978579Y-89395748D01*
X127973799Y-89371715D01*
X127964421Y-89349076D01*
X127950808Y-89328702D01*
X127933481Y-89311375D01*
X127913106Y-89297761D01*
X127905447Y-89293667D01*
X127892202Y-89282798D01*
X127881334Y-89269555D01*
X127873257Y-89254443D01*
X127868284Y-89238051D01*
X127866000Y-89214859D01*
X127866000Y-88801141D01*
X127868284Y-88777949D01*
X127873257Y-88761557D01*
X127881334Y-88746445D01*
X127892202Y-88733202D01*
X127905447Y-88722333D01*
X127913106Y-88718239D01*
X127933480Y-88704626D01*
X127950807Y-88687299D01*
X127964421Y-88666924D01*
X127973798Y-88644286D01*
X127978579Y-88620252D01*
X127978579Y-88595748D01*
X127973799Y-88571715D01*
X127964421Y-88549076D01*
X127950808Y-88528702D01*
X127933481Y-88511375D01*
X127913106Y-88497761D01*
X127905447Y-88493667D01*
X127892202Y-88482798D01*
X127881334Y-88469555D01*
X127873257Y-88454443D01*
X127868284Y-88438051D01*
X127866000Y-88414859D01*
X127866000Y-88001141D01*
X127868284Y-87977949D01*
X127873257Y-87961557D01*
X127881334Y-87946445D01*
X127892202Y-87933202D01*
X127905447Y-87922333D01*
X127913106Y-87918239D01*
X127933480Y-87904626D01*
X127950807Y-87887299D01*
X127964421Y-87866924D01*
X127973798Y-87844286D01*
X127978579Y-87820252D01*
X127978579Y-87795748D01*
X127973799Y-87771715D01*
X127964421Y-87749076D01*
X127950808Y-87728702D01*
X127933481Y-87711375D01*
X127913106Y-87697761D01*
X127905447Y-87693667D01*
X127892202Y-87682798D01*
X127881334Y-87669555D01*
X127873257Y-87654443D01*
X127868284Y-87638051D01*
X127866000Y-87614859D01*
X127866000Y-87201141D01*
X127868284Y-87177949D01*
X127873257Y-87161557D01*
X127881334Y-87146445D01*
X127892202Y-87133202D01*
X127905447Y-87122333D01*
X127913106Y-87118239D01*
X127933480Y-87104626D01*
X127950807Y-87087299D01*
X127964421Y-87066924D01*
X127973798Y-87044286D01*
X127978579Y-87020252D01*
X127978579Y-86995748D01*
X127973799Y-86971715D01*
X127964421Y-86949076D01*
X127950808Y-86928702D01*
X127933481Y-86911375D01*
X127913106Y-86897761D01*
X127905447Y-86893667D01*
X127892202Y-86882798D01*
X127881334Y-86869555D01*
X127873257Y-86854443D01*
X127868284Y-86838051D01*
X127866000Y-86814859D01*
X127866000Y-86401141D01*
X127868284Y-86377949D01*
X127873257Y-86361557D01*
X127881334Y-86346445D01*
X127892202Y-86333202D01*
X127905445Y-86322334D01*
X127920557Y-86314257D01*
X127936949Y-86309284D01*
X127960141Y-86307000D01*
X129373859Y-86307000D01*
X129397051Y-86309284D01*
G37*
G36*
X144053999Y-91853999D02*
G01*
X143051999Y-91853999D01*
X143051999Y-90951999D01*
X144053999Y-90951999D01*
X144053999Y-91853999D01*
G37*
G36*
X120631000Y-91607000D02*
G01*
X118129000Y-91607000D01*
X118129000Y-90765000D01*
X120631000Y-90765000D01*
X120631000Y-91607000D01*
G37*
G36*
X116731000Y-91607000D02*
G01*
X114229000Y-91607000D01*
X114229000Y-90765000D01*
X116731000Y-90765000D01*
X116731000Y-91607000D01*
G37*
G36*
X120631000Y-90337000D02*
G01*
X118129000Y-90337000D01*
X118129000Y-89495000D01*
X120631000Y-89495000D01*
X120631000Y-90337000D01*
G37*
G36*
X116731000Y-90337000D02*
G01*
X114229000Y-90337000D01*
X114229000Y-89495000D01*
X116731000Y-89495000D01*
X116731000Y-90337000D01*
G37*
G36*
X143496591Y-89140085D02*
G01*
X143530569Y-89150393D01*
X143561890Y-89167134D01*
X143589339Y-89189661D01*
X143611866Y-89217110D01*
X143628607Y-89248431D01*
X143638915Y-89282409D01*
X143643000Y-89323890D01*
X143643000Y-90000110D01*
X143638915Y-90041591D01*
X143628607Y-90075569D01*
X143611866Y-90106890D01*
X143589339Y-90134339D01*
X143561890Y-90156866D01*
X143530569Y-90173607D01*
X143496591Y-90183915D01*
X143455110Y-90188000D01*
X142853890Y-90188000D01*
X142812409Y-90183915D01*
X142778431Y-90173607D01*
X142747110Y-90156866D01*
X142719661Y-90134339D01*
X142697134Y-90106890D01*
X142680393Y-90075569D01*
X142670085Y-90041591D01*
X142666000Y-90000110D01*
X142666000Y-89323890D01*
X142670085Y-89282409D01*
X142680393Y-89248431D01*
X142697134Y-89217110D01*
X142719661Y-89189661D01*
X142747110Y-89167134D01*
X142778431Y-89150393D01*
X142812409Y-89140085D01*
X142853890Y-89136000D01*
X143455110Y-89136000D01*
X143496591Y-89140085D01*
G37*
G36*
X141921591Y-89140085D02*
G01*
X141955569Y-89150393D01*
X141986890Y-89167134D01*
X142014339Y-89189661D01*
X142036866Y-89217110D01*
X142053607Y-89248431D01*
X142063915Y-89282409D01*
X142068000Y-89323890D01*
X142068000Y-90000110D01*
X142063915Y-90041591D01*
X142053607Y-90075569D01*
X142036866Y-90106890D01*
X142014339Y-90134339D01*
X141986890Y-90156866D01*
X141955569Y-90173607D01*
X141921591Y-90183915D01*
X141880110Y-90188000D01*
X141278890Y-90188000D01*
X141237409Y-90183915D01*
X141203431Y-90173607D01*
X141172110Y-90156866D01*
X141144661Y-90134339D01*
X141122134Y-90106890D01*
X141105393Y-90075569D01*
X141095085Y-90041591D01*
X141091000Y-90000110D01*
X141091000Y-89323890D01*
X141095085Y-89282409D01*
X141105393Y-89248431D01*
X141122134Y-89217110D01*
X141144661Y-89189661D01*
X141172110Y-89167134D01*
X141203431Y-89150393D01*
X141237409Y-89140085D01*
X141278890Y-89136000D01*
X141880110Y-89136000D01*
X141921591Y-89140085D01*
G37*
G36*
X115429591Y-87108085D02*
G01*
X115463569Y-87118393D01*
X115494890Y-87135134D01*
X115522339Y-87157661D01*
X115544866Y-87185110D01*
X115561607Y-87216431D01*
X115571915Y-87250409D01*
X115576000Y-87291890D01*
X115576000Y-87968110D01*
X115571915Y-88009591D01*
X115561607Y-88043569D01*
X115544866Y-88074890D01*
X115522339Y-88102339D01*
X115494890Y-88124866D01*
X115463569Y-88141607D01*
X115429591Y-88151915D01*
X115388110Y-88156000D01*
X114786890Y-88156000D01*
X114745409Y-88151915D01*
X114711431Y-88141607D01*
X114680110Y-88124866D01*
X114652661Y-88102339D01*
X114630134Y-88074890D01*
X114613393Y-88043569D01*
X114603085Y-88009591D01*
X114599000Y-87968110D01*
X114599000Y-87291890D01*
X114603085Y-87250409D01*
X114613393Y-87216431D01*
X114630134Y-87185110D01*
X114652661Y-87157661D01*
X114680110Y-87135134D01*
X114711431Y-87118393D01*
X114745409Y-87108085D01*
X114786890Y-87104000D01*
X115388110Y-87104000D01*
X115429591Y-87108085D01*
G37*
G36*
X113854591Y-87108085D02*
G01*
X113888569Y-87118393D01*
X113919890Y-87135134D01*
X113947339Y-87157661D01*
X113969866Y-87185110D01*
X113986607Y-87216431D01*
X113996915Y-87250409D01*
X114001000Y-87291890D01*
X114001000Y-87968110D01*
X113996915Y-88009591D01*
X113986607Y-88043569D01*
X113969866Y-88074890D01*
X113947339Y-88102339D01*
X113919890Y-88124866D01*
X113888569Y-88141607D01*
X113854591Y-88151915D01*
X113813110Y-88156000D01*
X113211890Y-88156000D01*
X113170409Y-88151915D01*
X113136431Y-88141607D01*
X113105110Y-88124866D01*
X113077661Y-88102339D01*
X113055134Y-88074890D01*
X113038393Y-88043569D01*
X113028085Y-88009591D01*
X113024000Y-87968110D01*
X113024000Y-87291890D01*
X113028085Y-87250409D01*
X113038393Y-87216431D01*
X113055134Y-87185110D01*
X113077661Y-87157661D01*
X113105110Y-87135134D01*
X113136431Y-87118393D01*
X113170409Y-87108085D01*
X113211890Y-87104000D01*
X113813110Y-87104000D01*
X113854591Y-87108085D01*
G37*
G36*
X116928091Y-85330085D02*
G01*
X116962069Y-85340393D01*
X116993390Y-85357134D01*
X117020839Y-85379661D01*
X117043366Y-85407110D01*
X117060107Y-85438431D01*
X117070415Y-85472409D01*
X117074500Y-85513890D01*
X117074500Y-86190110D01*
X117070415Y-86231591D01*
X117060107Y-86265569D01*
X117043366Y-86296890D01*
X117020839Y-86324339D01*
X116993390Y-86346866D01*
X116962069Y-86363607D01*
X116928091Y-86373915D01*
X116886610Y-86378000D01*
X116285390Y-86378000D01*
X116243909Y-86373915D01*
X116209931Y-86363607D01*
X116178610Y-86346866D01*
X116151161Y-86324339D01*
X116128634Y-86296890D01*
X116111893Y-86265569D01*
X116101585Y-86231591D01*
X116097500Y-86190110D01*
X116097500Y-85513890D01*
X116101585Y-85472409D01*
X116111893Y-85438431D01*
X116128634Y-85407110D01*
X116151161Y-85379661D01*
X116178610Y-85357134D01*
X116209931Y-85340393D01*
X116243909Y-85330085D01*
X116285390Y-85326000D01*
X116886610Y-85326000D01*
X116928091Y-85330085D01*
G37*
G36*
X115404091Y-85330085D02*
G01*
X115438069Y-85340393D01*
X115469390Y-85357134D01*
X115496839Y-85379661D01*
X115519366Y-85407110D01*
X115536107Y-85438431D01*
X115546415Y-85472409D01*
X115550500Y-85513890D01*
X115550500Y-86190110D01*
X115546415Y-86231591D01*
X115536107Y-86265569D01*
X115519366Y-86296890D01*
X115496839Y-86324339D01*
X115469390Y-86346866D01*
X115438069Y-86363607D01*
X115404091Y-86373915D01*
X115362610Y-86378000D01*
X114761390Y-86378000D01*
X114719909Y-86373915D01*
X114685931Y-86363607D01*
X114654610Y-86346866D01*
X114627161Y-86324339D01*
X114604634Y-86296890D01*
X114587893Y-86265569D01*
X114577585Y-86231591D01*
X114573500Y-86190110D01*
X114573500Y-85513890D01*
X114577585Y-85472409D01*
X114587893Y-85438431D01*
X114604634Y-85407110D01*
X114627161Y-85379661D01*
X114654610Y-85357134D01*
X114685931Y-85340393D01*
X114719909Y-85330085D01*
X114761390Y-85326000D01*
X115362610Y-85326000D01*
X115404091Y-85330085D01*
G37*
G36*
X113829091Y-85330085D02*
G01*
X113863069Y-85340393D01*
X113894390Y-85357134D01*
X113921839Y-85379661D01*
X113944366Y-85407110D01*
X113961107Y-85438431D01*
X113971415Y-85472409D01*
X113975500Y-85513890D01*
X113975500Y-86190110D01*
X113971415Y-86231591D01*
X113961107Y-86265569D01*
X113944366Y-86296890D01*
X113921839Y-86324339D01*
X113894390Y-86346866D01*
X113863069Y-86363607D01*
X113829091Y-86373915D01*
X113787610Y-86378000D01*
X113186390Y-86378000D01*
X113144909Y-86373915D01*
X113110931Y-86363607D01*
X113079610Y-86346866D01*
X113052161Y-86324339D01*
X113029634Y-86296890D01*
X113012893Y-86265569D01*
X113002585Y-86231591D01*
X112998500Y-86190110D01*
X112998500Y-85513890D01*
X113002585Y-85472409D01*
X113012893Y-85438431D01*
X113029634Y-85407110D01*
X113052161Y-85379661D01*
X113079610Y-85357134D01*
X113110931Y-85340393D01*
X113144909Y-85330085D01*
X113186390Y-85326000D01*
X113787610Y-85326000D01*
X113829091Y-85330085D01*
G37*
G36*
X118503091Y-85330085D02*
G01*
X118537069Y-85340393D01*
X118568390Y-85357134D01*
X118595839Y-85379661D01*
X118618366Y-85407110D01*
X118635107Y-85438431D01*
X118645415Y-85472409D01*
X118649500Y-85513890D01*
X118649500Y-86190110D01*
X118645415Y-86231591D01*
X118635107Y-86265569D01*
X118618366Y-86296890D01*
X118595839Y-86324339D01*
X118568390Y-86346866D01*
X118537069Y-86363607D01*
X118503091Y-86373915D01*
X118461610Y-86378000D01*
X117860390Y-86378000D01*
X117818909Y-86373915D01*
X117784931Y-86363607D01*
X117753610Y-86346866D01*
X117726161Y-86324339D01*
X117703634Y-86296890D01*
X117686893Y-86265569D01*
X117676585Y-86231591D01*
X117672500Y-86190110D01*
X117672500Y-85513890D01*
X117676585Y-85472409D01*
X117686893Y-85438431D01*
X117703634Y-85407110D01*
X117726161Y-85379661D01*
X117753610Y-85357134D01*
X117784931Y-85340393D01*
X117818909Y-85330085D01*
X117860390Y-85326000D01*
X118461610Y-85326000D01*
X118503091Y-85330085D01*
G37*
G36*
X130272051Y-84434284D02*
G01*
X130288443Y-84439257D01*
X130303555Y-84447334D01*
X130316798Y-84458202D01*
X130327667Y-84471447D01*
X130331761Y-84479106D01*
X130345374Y-84499480D01*
X130362701Y-84516807D01*
X130383076Y-84530421D01*
X130405714Y-84539798D01*
X130429748Y-84544579D01*
X130454252Y-84544579D01*
X130478285Y-84539799D01*
X130500924Y-84530421D01*
X130521298Y-84516808D01*
X130538625Y-84499481D01*
X130552239Y-84479106D01*
X130556333Y-84471447D01*
X130567202Y-84458202D01*
X130580445Y-84447334D01*
X130595557Y-84439257D01*
X130611949Y-84434284D01*
X130635141Y-84432000D01*
X131048859Y-84432000D01*
X131072051Y-84434284D01*
X131088443Y-84439257D01*
X131103555Y-84447334D01*
X131116798Y-84458202D01*
X131127667Y-84471447D01*
X131131761Y-84479106D01*
X131145374Y-84499480D01*
X131162701Y-84516807D01*
X131183076Y-84530421D01*
X131205714Y-84539798D01*
X131229748Y-84544579D01*
X131254252Y-84544579D01*
X131278285Y-84539799D01*
X131300924Y-84530421D01*
X131321298Y-84516808D01*
X131338625Y-84499481D01*
X131352239Y-84479106D01*
X131356333Y-84471447D01*
X131367202Y-84458202D01*
X131380445Y-84447334D01*
X131395557Y-84439257D01*
X131411949Y-84434284D01*
X131435141Y-84432000D01*
X131848859Y-84432000D01*
X131872051Y-84434284D01*
X131888443Y-84439257D01*
X131903555Y-84447334D01*
X131916798Y-84458202D01*
X131927667Y-84471447D01*
X131931761Y-84479106D01*
X131945374Y-84499480D01*
X131962701Y-84516807D01*
X131983076Y-84530421D01*
X132005714Y-84539798D01*
X132029748Y-84544579D01*
X132054252Y-84544579D01*
X132078285Y-84539799D01*
X132100924Y-84530421D01*
X132121298Y-84516808D01*
X132138625Y-84499481D01*
X132152239Y-84479106D01*
X132156333Y-84471447D01*
X132167202Y-84458202D01*
X132180445Y-84447334D01*
X132195557Y-84439257D01*
X132211949Y-84434284D01*
X132235141Y-84432000D01*
X132648859Y-84432000D01*
X132672051Y-84434284D01*
X132688443Y-84439257D01*
X132703555Y-84447334D01*
X132716798Y-84458202D01*
X132727667Y-84471447D01*
X132731761Y-84479106D01*
X132745374Y-84499480D01*
X132762701Y-84516807D01*
X132783076Y-84530421D01*
X132805714Y-84539798D01*
X132829748Y-84544579D01*
X132854252Y-84544579D01*
X132878285Y-84539799D01*
X132900924Y-84530421D01*
X132921298Y-84516808D01*
X132938625Y-84499481D01*
X132952239Y-84479106D01*
X132956333Y-84471447D01*
X132967202Y-84458202D01*
X132980445Y-84447334D01*
X132995557Y-84439257D01*
X133011949Y-84434284D01*
X133035141Y-84432000D01*
X133448859Y-84432000D01*
X133472051Y-84434284D01*
X133488443Y-84439257D01*
X133503555Y-84447334D01*
X133516798Y-84458202D01*
X133527667Y-84471447D01*
X133531761Y-84479106D01*
X133545374Y-84499480D01*
X133562701Y-84516807D01*
X133583076Y-84530421D01*
X133605714Y-84539798D01*
X133629748Y-84544579D01*
X133654252Y-84544579D01*
X133678285Y-84539799D01*
X133700924Y-84530421D01*
X133721298Y-84516808D01*
X133738625Y-84499481D01*
X133752239Y-84479106D01*
X133756333Y-84471447D01*
X133767202Y-84458202D01*
X133780445Y-84447334D01*
X133795557Y-84439257D01*
X133811949Y-84434284D01*
X133835141Y-84432000D01*
X134248859Y-84432000D01*
X134272051Y-84434284D01*
X134288443Y-84439257D01*
X134303555Y-84447334D01*
X134316798Y-84458202D01*
X134327667Y-84471447D01*
X134331761Y-84479106D01*
X134345374Y-84499480D01*
X134362701Y-84516807D01*
X134383076Y-84530421D01*
X134405714Y-84539798D01*
X134429748Y-84544579D01*
X134454252Y-84544579D01*
X134478285Y-84539799D01*
X134500924Y-84530421D01*
X134521298Y-84516808D01*
X134538625Y-84499481D01*
X134552239Y-84479106D01*
X134556333Y-84471447D01*
X134567202Y-84458202D01*
X134580445Y-84447334D01*
X134595557Y-84439257D01*
X134611949Y-84434284D01*
X134635141Y-84432000D01*
X135048859Y-84432000D01*
X135072051Y-84434284D01*
X135088443Y-84439257D01*
X135103555Y-84447334D01*
X135116798Y-84458202D01*
X135127667Y-84471447D01*
X135131761Y-84479106D01*
X135145374Y-84499480D01*
X135162701Y-84516807D01*
X135183076Y-84530421D01*
X135205714Y-84539798D01*
X135229748Y-84544579D01*
X135254252Y-84544579D01*
X135278285Y-84539799D01*
X135300924Y-84530421D01*
X135321298Y-84516808D01*
X135338625Y-84499481D01*
X135352239Y-84479106D01*
X135356333Y-84471447D01*
X135367202Y-84458202D01*
X135380445Y-84447334D01*
X135395557Y-84439257D01*
X135411949Y-84434284D01*
X135435141Y-84432000D01*
X135848859Y-84432000D01*
X135872051Y-84434284D01*
X135888443Y-84439257D01*
X135903555Y-84447334D01*
X135916798Y-84458202D01*
X135927666Y-84471445D01*
X135935743Y-84486557D01*
X135940716Y-84502949D01*
X135943000Y-84526141D01*
X135943000Y-85939859D01*
X135940716Y-85963051D01*
X135935743Y-85979443D01*
X135927666Y-85994555D01*
X135916798Y-86007798D01*
X135903555Y-86018666D01*
X135888443Y-86026743D01*
X135872051Y-86031716D01*
X135848859Y-86034000D01*
X135435141Y-86034000D01*
X135411949Y-86031716D01*
X135395557Y-86026743D01*
X135380445Y-86018666D01*
X135367202Y-86007798D01*
X135356333Y-85994553D01*
X135352239Y-85986894D01*
X135338626Y-85966520D01*
X135321299Y-85949193D01*
X135300924Y-85935579D01*
X135278286Y-85926202D01*
X135254252Y-85921421D01*
X135229748Y-85921421D01*
X135205715Y-85926201D01*
X135183076Y-85935579D01*
X135162702Y-85949192D01*
X135145375Y-85966519D01*
X135131761Y-85986894D01*
X135127667Y-85994553D01*
X135116798Y-86007798D01*
X135103555Y-86018666D01*
X135088443Y-86026743D01*
X135072051Y-86031716D01*
X135048859Y-86034000D01*
X134635141Y-86034000D01*
X134611949Y-86031716D01*
X134595557Y-86026743D01*
X134580445Y-86018666D01*
X134567202Y-86007798D01*
X134556333Y-85994553D01*
X134552239Y-85986894D01*
X134538626Y-85966520D01*
X134521299Y-85949193D01*
X134500924Y-85935579D01*
X134478286Y-85926202D01*
X134454252Y-85921421D01*
X134429748Y-85921421D01*
X134405715Y-85926201D01*
X134383076Y-85935579D01*
X134362702Y-85949192D01*
X134345375Y-85966519D01*
X134331761Y-85986894D01*
X134327667Y-85994553D01*
X134316798Y-86007798D01*
X134303555Y-86018666D01*
X134288443Y-86026743D01*
X134272051Y-86031716D01*
X134248859Y-86034000D01*
X133835141Y-86034000D01*
X133811949Y-86031716D01*
X133795557Y-86026743D01*
X133780445Y-86018666D01*
X133767202Y-86007798D01*
X133756333Y-85994553D01*
X133752239Y-85986894D01*
X133738626Y-85966520D01*
X133721299Y-85949193D01*
X133700924Y-85935579D01*
X133678286Y-85926202D01*
X133654252Y-85921421D01*
X133629748Y-85921421D01*
X133605715Y-85926201D01*
X133583076Y-85935579D01*
X133562702Y-85949192D01*
X133545375Y-85966519D01*
X133531761Y-85986894D01*
X133527667Y-85994553D01*
X133516798Y-86007798D01*
X133503555Y-86018666D01*
X133488443Y-86026743D01*
X133472051Y-86031716D01*
X133448859Y-86034000D01*
X133035141Y-86034000D01*
X133011949Y-86031716D01*
X132995557Y-86026743D01*
X132980445Y-86018666D01*
X132967202Y-86007798D01*
X132956333Y-85994553D01*
X132952239Y-85986894D01*
X132938626Y-85966520D01*
X132921299Y-85949193D01*
X132900924Y-85935579D01*
X132878286Y-85926202D01*
X132854252Y-85921421D01*
X132829748Y-85921421D01*
X132805715Y-85926201D01*
X132783076Y-85935579D01*
X132762702Y-85949192D01*
X132745375Y-85966519D01*
X132731761Y-85986894D01*
X132727667Y-85994553D01*
X132716798Y-86007798D01*
X132703555Y-86018666D01*
X132688443Y-86026743D01*
X132672051Y-86031716D01*
X132648859Y-86034000D01*
X132235141Y-86034000D01*
X132211949Y-86031716D01*
X132195557Y-86026743D01*
X132180445Y-86018666D01*
X132167202Y-86007798D01*
X132156333Y-85994553D01*
X132152239Y-85986894D01*
X132138626Y-85966520D01*
X132121299Y-85949193D01*
X132100924Y-85935579D01*
X132078286Y-85926202D01*
X132054252Y-85921421D01*
X132029748Y-85921421D01*
X132005715Y-85926201D01*
X131983076Y-85935579D01*
X131962702Y-85949192D01*
X131945375Y-85966519D01*
X131931761Y-85986894D01*
X131927667Y-85994553D01*
X131916798Y-86007798D01*
X131903555Y-86018666D01*
X131888443Y-86026743D01*
X131872051Y-86031716D01*
X131848859Y-86034000D01*
X131435141Y-86034000D01*
X131411949Y-86031716D01*
X131395557Y-86026743D01*
X131380445Y-86018666D01*
X131367202Y-86007798D01*
X131356333Y-85994553D01*
X131352239Y-85986894D01*
X131338626Y-85966520D01*
X131321299Y-85949193D01*
X131300924Y-85935579D01*
X131278286Y-85926202D01*
X131254252Y-85921421D01*
X131229748Y-85921421D01*
X131205715Y-85926201D01*
X131183076Y-85935579D01*
X131162702Y-85949192D01*
X131145375Y-85966519D01*
X131131761Y-85986894D01*
X131127667Y-85994553D01*
X131116798Y-86007798D01*
X131103555Y-86018666D01*
X131088443Y-86026743D01*
X131072051Y-86031716D01*
X131048859Y-86034000D01*
X130635141Y-86034000D01*
X130611949Y-86031716D01*
X130595557Y-86026743D01*
X130580445Y-86018666D01*
X130567202Y-86007798D01*
X130556333Y-85994553D01*
X130552239Y-85986894D01*
X130538626Y-85966520D01*
X130521299Y-85949193D01*
X130500924Y-85935579D01*
X130478286Y-85926202D01*
X130454252Y-85921421D01*
X130429748Y-85921421D01*
X130405715Y-85926201D01*
X130383076Y-85935579D01*
X130362702Y-85949192D01*
X130345375Y-85966519D01*
X130331761Y-85986894D01*
X130327667Y-85994553D01*
X130316798Y-86007798D01*
X130303555Y-86018666D01*
X130288443Y-86026743D01*
X130272051Y-86031716D01*
X130248859Y-86034000D01*
X129835141Y-86034000D01*
X129811949Y-86031716D01*
X129795557Y-86026743D01*
X129780445Y-86018666D01*
X129767202Y-86007798D01*
X129756334Y-85994555D01*
X129748257Y-85979443D01*
X129743284Y-85963051D01*
X129741000Y-85939859D01*
X129741000Y-84526141D01*
X129743284Y-84502949D01*
X129748257Y-84486557D01*
X129756334Y-84471445D01*
X129767202Y-84458202D01*
X129780445Y-84447334D01*
X129795557Y-84439257D01*
X129811949Y-84434284D01*
X129835141Y-84432000D01*
X130248859Y-84432000D01*
X130272051Y-84434284D01*
G37*
G36*
X121106564Y-82483389D02*
G01*
X121297833Y-82562615D01*
X121297835Y-82562616D01*
X121333502Y-82586448D01*
X121469973Y-82677635D01*
X121616365Y-82824027D01*
X121731385Y-82996167D01*
X121810611Y-83187436D01*
X121851000Y-83390484D01*
X121851000Y-83597516D01*
X121810611Y-83800564D01*
X121738461Y-83974750D01*
X121731384Y-83991835D01*
X121616365Y-84163973D01*
X121469973Y-84310365D01*
X121297835Y-84425384D01*
X121297834Y-84425385D01*
X121297833Y-84425385D01*
X121106564Y-84504611D01*
X120903516Y-84545000D01*
X120696484Y-84545000D01*
X120493436Y-84504611D01*
X120302167Y-84425385D01*
X120302166Y-84425385D01*
X120302165Y-84425384D01*
X120130027Y-84310365D01*
X119983635Y-84163973D01*
X119868616Y-83991835D01*
X119861539Y-83974750D01*
X119789389Y-83800564D01*
X119749000Y-83597516D01*
X119749000Y-83390484D01*
X119789389Y-83187436D01*
X119868615Y-82996167D01*
X119983635Y-82824027D01*
X120130027Y-82677635D01*
X120266498Y-82586448D01*
X120302165Y-82562616D01*
X120302167Y-82562615D01*
X120493436Y-82483389D01*
X120696484Y-82443000D01*
X120903516Y-82443000D01*
X121106564Y-82483389D01*
G37*
G36*
X114606564Y-82483389D02*
G01*
X114797833Y-82562615D01*
X114797835Y-82562616D01*
X114833502Y-82586448D01*
X114969973Y-82677635D01*
X115116365Y-82824027D01*
X115231385Y-82996167D01*
X115310611Y-83187436D01*
X115351000Y-83390484D01*
X115351000Y-83597516D01*
X115310611Y-83800564D01*
X115238461Y-83974750D01*
X115231384Y-83991835D01*
X115116365Y-84163973D01*
X114969973Y-84310365D01*
X114797835Y-84425384D01*
X114797834Y-84425385D01*
X114797833Y-84425385D01*
X114606564Y-84504611D01*
X114403516Y-84545000D01*
X114196484Y-84545000D01*
X113993436Y-84504611D01*
X113802167Y-84425385D01*
X113802166Y-84425385D01*
X113802165Y-84425384D01*
X113630027Y-84310365D01*
X113483635Y-84163973D01*
X113368616Y-83991835D01*
X113361539Y-83974750D01*
X113289389Y-83800564D01*
X113249000Y-83597516D01*
X113249000Y-83390484D01*
X113289389Y-83187436D01*
X113368615Y-82996167D01*
X113483635Y-82824027D01*
X113630027Y-82677635D01*
X113766498Y-82586448D01*
X113802165Y-82562616D01*
X113802167Y-82562615D01*
X113993436Y-82483389D01*
X114196484Y-82443000D01*
X114403516Y-82443000D01*
X114606564Y-82483389D01*
G37*
G36*
X140067591Y-83171085D02*
G01*
X140101569Y-83181393D01*
X140132890Y-83198134D01*
X140160339Y-83220661D01*
X140182866Y-83248110D01*
X140199607Y-83279431D01*
X140209915Y-83313409D01*
X140214000Y-83354890D01*
X140214000Y-84031110D01*
X140209915Y-84072591D01*
X140199607Y-84106569D01*
X140182866Y-84137890D01*
X140160339Y-84165339D01*
X140132890Y-84187866D01*
X140101569Y-84204607D01*
X140067591Y-84214915D01*
X140026110Y-84219000D01*
X139424890Y-84219000D01*
X139383409Y-84214915D01*
X139349431Y-84204607D01*
X139318110Y-84187866D01*
X139290661Y-84165339D01*
X139268134Y-84137890D01*
X139251393Y-84106569D01*
X139241085Y-84072591D01*
X139237000Y-84031110D01*
X139237000Y-83354890D01*
X139241085Y-83313409D01*
X139251393Y-83279431D01*
X139268134Y-83248110D01*
X139290661Y-83220661D01*
X139318110Y-83198134D01*
X139349431Y-83181393D01*
X139383409Y-83171085D01*
X139424890Y-83167000D01*
X140026110Y-83167000D01*
X140067591Y-83171085D01*
G37*
G36*
X138492591Y-83171085D02*
G01*
X138526569Y-83181393D01*
X138557890Y-83198134D01*
X138585339Y-83220661D01*
X138607866Y-83248110D01*
X138624607Y-83279431D01*
X138634915Y-83313409D01*
X138639000Y-83354890D01*
X138639000Y-84031110D01*
X138634915Y-84072591D01*
X138624607Y-84106569D01*
X138607866Y-84137890D01*
X138585339Y-84165339D01*
X138557890Y-84187866D01*
X138526569Y-84204607D01*
X138492591Y-84214915D01*
X138451110Y-84219000D01*
X137849890Y-84219000D01*
X137808409Y-84214915D01*
X137774431Y-84204607D01*
X137743110Y-84187866D01*
X137715661Y-84165339D01*
X137693134Y-84137890D01*
X137676393Y-84106569D01*
X137666085Y-84072591D01*
X137662000Y-84031110D01*
X137662000Y-83354890D01*
X137666085Y-83313409D01*
X137676393Y-83279431D01*
X137693134Y-83248110D01*
X137715661Y-83220661D01*
X137743110Y-83198134D01*
X137774431Y-83181393D01*
X137808409Y-83171085D01*
X137849890Y-83167000D01*
X138451110Y-83167000D01*
X138492591Y-83171085D01*
G37*
G36*
X138467091Y-81647085D02*
G01*
X138501069Y-81657393D01*
X138532390Y-81674134D01*
X138559839Y-81696661D01*
X138582366Y-81724110D01*
X138599107Y-81755431D01*
X138609415Y-81789409D01*
X138613500Y-81830890D01*
X138613500Y-82507110D01*
X138609415Y-82548591D01*
X138599107Y-82582569D01*
X138582366Y-82613890D01*
X138559839Y-82641339D01*
X138532390Y-82663866D01*
X138501069Y-82680607D01*
X138467091Y-82690915D01*
X138425610Y-82695000D01*
X137824390Y-82695000D01*
X137782909Y-82690915D01*
X137748931Y-82680607D01*
X137717610Y-82663866D01*
X137690161Y-82641339D01*
X137667634Y-82613890D01*
X137650893Y-82582569D01*
X137640585Y-82548591D01*
X137636500Y-82507110D01*
X137636500Y-81830890D01*
X137640585Y-81789409D01*
X137650893Y-81755431D01*
X137667634Y-81724110D01*
X137690161Y-81696661D01*
X137717610Y-81674134D01*
X137748931Y-81657393D01*
X137782909Y-81647085D01*
X137824390Y-81643000D01*
X138425610Y-81643000D01*
X138467091Y-81647085D01*
G37*
G36*
X140042091Y-81647085D02*
G01*
X140076069Y-81657393D01*
X140107390Y-81674134D01*
X140134839Y-81696661D01*
X140157366Y-81724110D01*
X140174107Y-81755431D01*
X140184415Y-81789409D01*
X140188500Y-81830890D01*
X140188500Y-82507110D01*
X140184415Y-82548591D01*
X140174107Y-82582569D01*
X140157366Y-82613890D01*
X140134839Y-82641339D01*
X140107390Y-82663866D01*
X140076069Y-82680607D01*
X140042091Y-82690915D01*
X140000610Y-82695000D01*
X139399390Y-82695000D01*
X139357909Y-82690915D01*
X139323931Y-82680607D01*
X139292610Y-82663866D01*
X139265161Y-82641339D01*
X139242634Y-82613890D01*
X139225893Y-82582569D01*
X139215585Y-82548591D01*
X139211500Y-82507110D01*
X139211500Y-81830890D01*
X139215585Y-81789409D01*
X139225893Y-81755431D01*
X139242634Y-81724110D01*
X139265161Y-81696661D01*
X139292610Y-81674134D01*
X139323931Y-81657393D01*
X139357909Y-81647085D01*
X139399390Y-81643000D01*
X140000610Y-81643000D01*
X140042091Y-81647085D01*
G37*
G36*
X131152091Y-81520085D02*
G01*
X131186069Y-81530393D01*
X131217390Y-81547134D01*
X131244839Y-81569661D01*
X131267366Y-81597110D01*
X131284107Y-81628431D01*
X131294415Y-81662409D01*
X131298500Y-81703890D01*
X131298500Y-82380110D01*
X131294415Y-82421591D01*
X131284107Y-82455569D01*
X131267366Y-82486890D01*
X131244839Y-82514339D01*
X131217390Y-82536866D01*
X131186069Y-82553607D01*
X131152091Y-82563915D01*
X131110610Y-82568000D01*
X130509390Y-82568000D01*
X130467909Y-82563915D01*
X130433931Y-82553607D01*
X130402610Y-82536866D01*
X130375161Y-82514339D01*
X130352634Y-82486890D01*
X130335893Y-82455569D01*
X130325585Y-82421591D01*
X130321500Y-82380110D01*
X130321500Y-81703890D01*
X130325585Y-81662409D01*
X130335893Y-81628431D01*
X130352634Y-81597110D01*
X130375161Y-81569661D01*
X130402610Y-81547134D01*
X130433931Y-81530393D01*
X130467909Y-81520085D01*
X130509390Y-81516000D01*
X131110610Y-81516000D01*
X131152091Y-81520085D01*
G37*
G36*
X132727091Y-81520085D02*
G01*
X132761069Y-81530393D01*
X132792390Y-81547134D01*
X132819839Y-81569661D01*
X132842366Y-81597110D01*
X132859107Y-81628431D01*
X132869415Y-81662409D01*
X132873500Y-81703890D01*
X132873500Y-82380110D01*
X132869415Y-82421591D01*
X132859107Y-82455569D01*
X132842366Y-82486890D01*
X132819839Y-82514339D01*
X132792390Y-82536866D01*
X132761069Y-82553607D01*
X132727091Y-82563915D01*
X132685610Y-82568000D01*
X132084390Y-82568000D01*
X132042909Y-82563915D01*
X132008931Y-82553607D01*
X131977610Y-82536866D01*
X131950161Y-82514339D01*
X131927634Y-82486890D01*
X131910893Y-82455569D01*
X131900585Y-82421591D01*
X131896500Y-82380110D01*
X131896500Y-81703890D01*
X131900585Y-81662409D01*
X131910893Y-81628431D01*
X131927634Y-81597110D01*
X131950161Y-81569661D01*
X131977610Y-81547134D01*
X132008931Y-81530393D01*
X132042909Y-81520085D01*
X132084390Y-81516000D01*
X132685610Y-81516000D01*
X132727091Y-81520085D01*
G37*
G36*
X140093091Y-79996085D02*
G01*
X140127069Y-80006393D01*
X140158390Y-80023134D01*
X140185839Y-80045661D01*
X140208366Y-80073110D01*
X140225107Y-80104431D01*
X140235415Y-80138409D01*
X140239500Y-80179890D01*
X140239500Y-80856110D01*
X140235415Y-80897591D01*
X140225107Y-80931569D01*
X140208366Y-80962890D01*
X140185839Y-80990339D01*
X140158390Y-81012866D01*
X140127069Y-81029607D01*
X140093091Y-81039915D01*
X140051610Y-81044000D01*
X139450390Y-81044000D01*
X139408909Y-81039915D01*
X139374931Y-81029607D01*
X139343610Y-81012866D01*
X139316161Y-80990339D01*
X139293634Y-80962890D01*
X139276893Y-80931569D01*
X139266585Y-80897591D01*
X139262500Y-80856110D01*
X139262500Y-80179890D01*
X139266585Y-80138409D01*
X139276893Y-80104431D01*
X139293634Y-80073110D01*
X139316161Y-80045661D01*
X139343610Y-80023134D01*
X139374931Y-80006393D01*
X139408909Y-79996085D01*
X139450390Y-79992000D01*
X140051610Y-79992000D01*
X140093091Y-79996085D01*
G37*
G36*
X138518091Y-79996085D02*
G01*
X138552069Y-80006393D01*
X138583390Y-80023134D01*
X138610839Y-80045661D01*
X138633366Y-80073110D01*
X138650107Y-80104431D01*
X138660415Y-80138409D01*
X138664500Y-80179890D01*
X138664500Y-80856110D01*
X138660415Y-80897591D01*
X138650107Y-80931569D01*
X138633366Y-80962890D01*
X138610839Y-80990339D01*
X138583390Y-81012866D01*
X138552069Y-81029607D01*
X138518091Y-81039915D01*
X138476610Y-81044000D01*
X137875390Y-81044000D01*
X137833909Y-81039915D01*
X137799931Y-81029607D01*
X137768610Y-81012866D01*
X137741161Y-80990339D01*
X137718634Y-80962890D01*
X137701893Y-80931569D01*
X137691585Y-80897591D01*
X137687500Y-80856110D01*
X137687500Y-80179890D01*
X137691585Y-80138409D01*
X137701893Y-80104431D01*
X137718634Y-80073110D01*
X137741161Y-80045661D01*
X137768610Y-80023134D01*
X137799931Y-80006393D01*
X137833909Y-79996085D01*
X137875390Y-79992000D01*
X138476610Y-79992000D01*
X138518091Y-79996085D01*
G37*
G36*
X132701591Y-79742085D02*
G01*
X132735569Y-79752393D01*
X132766890Y-79769134D01*
X132794339Y-79791661D01*
X132816866Y-79819110D01*
X132833607Y-79850431D01*
X132843915Y-79884409D01*
X132848000Y-79925890D01*
X132848000Y-80602110D01*
X132843915Y-80643591D01*
X132833607Y-80677569D01*
X132816866Y-80708890D01*
X132794339Y-80736339D01*
X132766890Y-80758866D01*
X132735569Y-80775607D01*
X132701591Y-80785915D01*
X132660110Y-80790000D01*
X132058890Y-80790000D01*
X132017409Y-80785915D01*
X131983431Y-80775607D01*
X131952110Y-80758866D01*
X131924661Y-80736339D01*
X131902134Y-80708890D01*
X131885393Y-80677569D01*
X131875085Y-80643591D01*
X131871000Y-80602110D01*
X131871000Y-79925890D01*
X131875085Y-79884409D01*
X131885393Y-79850431D01*
X131902134Y-79819110D01*
X131924661Y-79791661D01*
X131952110Y-79769134D01*
X131983431Y-79752393D01*
X132017409Y-79742085D01*
X132058890Y-79738000D01*
X132660110Y-79738000D01*
X132701591Y-79742085D01*
G37*
G36*
X131126591Y-79742085D02*
G01*
X131160569Y-79752393D01*
X131191890Y-79769134D01*
X131219339Y-79791661D01*
X131241866Y-79819110D01*
X131258607Y-79850431D01*
X131268915Y-79884409D01*
X131273000Y-79925890D01*
X131273000Y-80602110D01*
X131268915Y-80643591D01*
X131258607Y-80677569D01*
X131241866Y-80708890D01*
X131219339Y-80736339D01*
X131191890Y-80758866D01*
X131160569Y-80775607D01*
X131126591Y-80785915D01*
X131085110Y-80790000D01*
X130483890Y-80790000D01*
X130442409Y-80785915D01*
X130408431Y-80775607D01*
X130377110Y-80758866D01*
X130349661Y-80736339D01*
X130327134Y-80708890D01*
X130310393Y-80677569D01*
X130300085Y-80643591D01*
X130296000Y-80602110D01*
X130296000Y-79925890D01*
X130300085Y-79884409D01*
X130310393Y-79850431D01*
X130327134Y-79819110D01*
X130349661Y-79791661D01*
X130377110Y-79769134D01*
X130408431Y-79752393D01*
X130442409Y-79742085D01*
X130483890Y-79738000D01*
X131085110Y-79738000D01*
X131126591Y-79742085D01*
G37*
G36*
X121106564Y-77983389D02*
G01*
X121297833Y-78062615D01*
X121297835Y-78062616D01*
X121469973Y-78177635D01*
X121616365Y-78324027D01*
X121699809Y-78448909D01*
X121731385Y-78496167D01*
X121810611Y-78687436D01*
X121851000Y-78890484D01*
X121851000Y-79097516D01*
X121810611Y-79300564D01*
X121731385Y-79491833D01*
X121731384Y-79491835D01*
X121616365Y-79663973D01*
X121469973Y-79810365D01*
X121297835Y-79925384D01*
X121297834Y-79925385D01*
X121297833Y-79925385D01*
X121106564Y-80004611D01*
X120903516Y-80045000D01*
X120696484Y-80045000D01*
X120493436Y-80004611D01*
X120302167Y-79925385D01*
X120302166Y-79925385D01*
X120302165Y-79925384D01*
X120130027Y-79810365D01*
X119983635Y-79663973D01*
X119868616Y-79491835D01*
X119868615Y-79491833D01*
X119789389Y-79300564D01*
X119749000Y-79097516D01*
X119749000Y-78890484D01*
X119789389Y-78687436D01*
X119868615Y-78496167D01*
X119900192Y-78448909D01*
X119983635Y-78324027D01*
X120130027Y-78177635D01*
X120302165Y-78062616D01*
X120302167Y-78062615D01*
X120493436Y-77983389D01*
X120696484Y-77943000D01*
X120903516Y-77943000D01*
X121106564Y-77983389D01*
G37*
G36*
X114606564Y-77983389D02*
G01*
X114797833Y-78062615D01*
X114797835Y-78062616D01*
X114969973Y-78177635D01*
X115116365Y-78324027D01*
X115199809Y-78448909D01*
X115231385Y-78496167D01*
X115310611Y-78687436D01*
X115351000Y-78890484D01*
X115351000Y-79097516D01*
X115310611Y-79300564D01*
X115231385Y-79491833D01*
X115231384Y-79491835D01*
X115116365Y-79663973D01*
X114969973Y-79810365D01*
X114797835Y-79925384D01*
X114797834Y-79925385D01*
X114797833Y-79925385D01*
X114606564Y-80004611D01*
X114403516Y-80045000D01*
X114196484Y-80045000D01*
X113993436Y-80004611D01*
X113802167Y-79925385D01*
X113802166Y-79925385D01*
X113802165Y-79925384D01*
X113630027Y-79810365D01*
X113483635Y-79663973D01*
X113368616Y-79491835D01*
X113368615Y-79491833D01*
X113289389Y-79300564D01*
X113249000Y-79097516D01*
X113249000Y-78890484D01*
X113289389Y-78687436D01*
X113368615Y-78496167D01*
X113400192Y-78448909D01*
X113483635Y-78324027D01*
X113630027Y-78177635D01*
X113802165Y-78062616D01*
X113802167Y-78062615D01*
X113993436Y-77983389D01*
X114196484Y-77943000D01*
X114403516Y-77943000D01*
X114606564Y-77983389D01*
G37*
G36*
X138927000Y-79518000D02*
G01*
X137425000Y-79518000D01*
X137425000Y-78216000D01*
X138927000Y-78216000D01*
X138927000Y-79518000D01*
G37*
G36*
X136727000Y-79518000D02*
G01*
X135225000Y-79518000D01*
X135225000Y-78216000D01*
X136727000Y-78216000D01*
X136727000Y-79518000D01*
G37*
G36*
X134618591Y-78306585D02*
G01*
X134652569Y-78316893D01*
X134683890Y-78333634D01*
X134711339Y-78356161D01*
X134733866Y-78383610D01*
X134750607Y-78414931D01*
X134760915Y-78448909D01*
X134765000Y-78490390D01*
X134765000Y-79091610D01*
X134760915Y-79133091D01*
X134750607Y-79167069D01*
X134733866Y-79198390D01*
X134711339Y-79225839D01*
X134683890Y-79248366D01*
X134652569Y-79265107D01*
X134618591Y-79275415D01*
X134577110Y-79279500D01*
X133900890Y-79279500D01*
X133859409Y-79275415D01*
X133825431Y-79265107D01*
X133794110Y-79248366D01*
X133766661Y-79225839D01*
X133744134Y-79198390D01*
X133727393Y-79167069D01*
X133717085Y-79133091D01*
X133713000Y-79091610D01*
X133713000Y-78490390D01*
X133717085Y-78448909D01*
X133727393Y-78414931D01*
X133744134Y-78383610D01*
X133766661Y-78356161D01*
X133794110Y-78333634D01*
X133825431Y-78316893D01*
X133859409Y-78306585D01*
X133900890Y-78302500D01*
X134577110Y-78302500D01*
X134618591Y-78306585D01*
G37*
G36*
X136727000Y-77918000D02*
G01*
X135225000Y-77918000D01*
X135225000Y-76616000D01*
X136727000Y-76616000D01*
X136727000Y-77918000D01*
G37*
G36*
X138927000Y-77918000D02*
G01*
X137425000Y-77918000D01*
X137425000Y-76616000D01*
X138927000Y-76616000D01*
X138927000Y-77918000D01*
G37*
G36*
X134618591Y-76731585D02*
G01*
X134652569Y-76741893D01*
X134683890Y-76758634D01*
X134711339Y-76781161D01*
X134733866Y-76808610D01*
X134750607Y-76839931D01*
X134760915Y-76873909D01*
X134765000Y-76915390D01*
X134765000Y-77516610D01*
X134760915Y-77558091D01*
X134750607Y-77592069D01*
X134733866Y-77623390D01*
X134711339Y-77650839D01*
X134683890Y-77673366D01*
X134652569Y-77690107D01*
X134618591Y-77700415D01*
X134577110Y-77704500D01*
X133900890Y-77704500D01*
X133859409Y-77700415D01*
X133825431Y-77690107D01*
X133794110Y-77673366D01*
X133766661Y-77650839D01*
X133744134Y-77623390D01*
X133727393Y-77592069D01*
X133717085Y-77558091D01*
X133713000Y-77516610D01*
X133713000Y-76915390D01*
X133717085Y-76873909D01*
X133727393Y-76839931D01*
X133744134Y-76808610D01*
X133766661Y-76781161D01*
X133794110Y-76758634D01*
X133825431Y-76741893D01*
X133859409Y-76731585D01*
X133900890Y-76727500D01*
X134577110Y-76727500D01*
X134618591Y-76731585D01*
G37*
G36*
X138696091Y-75170085D02*
G01*
X138730069Y-75180393D01*
X138761390Y-75197134D01*
X138788839Y-75219661D01*
X138811366Y-75247110D01*
X138828107Y-75278431D01*
X138838415Y-75312409D01*
X138842500Y-75353890D01*
X138842500Y-76030110D01*
X138838415Y-76071591D01*
X138828107Y-76105569D01*
X138811366Y-76136890D01*
X138788839Y-76164339D01*
X138761390Y-76186866D01*
X138730069Y-76203607D01*
X138696091Y-76213915D01*
X138654610Y-76218000D01*
X138053390Y-76218000D01*
X138011909Y-76213915D01*
X137977931Y-76203607D01*
X137946610Y-76186866D01*
X137919161Y-76164339D01*
X137896634Y-76136890D01*
X137879893Y-76105569D01*
X137869585Y-76071591D01*
X137865500Y-76030110D01*
X137865500Y-75353890D01*
X137869585Y-75312409D01*
X137879893Y-75278431D01*
X137896634Y-75247110D01*
X137919161Y-75219661D01*
X137946610Y-75197134D01*
X137977931Y-75180393D01*
X138011909Y-75170085D01*
X138053390Y-75166000D01*
X138654610Y-75166000D01*
X138696091Y-75170085D01*
G37*
G36*
X137121091Y-75170085D02*
G01*
X137155069Y-75180393D01*
X137186390Y-75197134D01*
X137213839Y-75219661D01*
X137236366Y-75247110D01*
X137253107Y-75278431D01*
X137263415Y-75312409D01*
X137267500Y-75353890D01*
X137267500Y-76030110D01*
X137263415Y-76071591D01*
X137253107Y-76105569D01*
X137236366Y-76136890D01*
X137213839Y-76164339D01*
X137186390Y-76186866D01*
X137155069Y-76203607D01*
X137121091Y-76213915D01*
X137079610Y-76218000D01*
X136478390Y-76218000D01*
X136436909Y-76213915D01*
X136402931Y-76203607D01*
X136371610Y-76186866D01*
X136344161Y-76164339D01*
X136321634Y-76136890D01*
X136304893Y-76105569D01*
X136294585Y-76071591D01*
X136290500Y-76030110D01*
X136290500Y-75353890D01*
X136294585Y-75312409D01*
X136304893Y-75278431D01*
X136321634Y-75247110D01*
X136344161Y-75219661D01*
X136371610Y-75197134D01*
X136402931Y-75180393D01*
X136436909Y-75170085D01*
X136478390Y-75166000D01*
X137079610Y-75166000D01*
X137121091Y-75170085D01*
G37*
G36*
X114261091Y-75170085D02*
G01*
X114295069Y-75180393D01*
X114326390Y-75197134D01*
X114353839Y-75219661D01*
X114376366Y-75247110D01*
X114393107Y-75278431D01*
X114403415Y-75312409D01*
X114407500Y-75353890D01*
X114407500Y-76030110D01*
X114403415Y-76071591D01*
X114393107Y-76105569D01*
X114376366Y-76136890D01*
X114353839Y-76164339D01*
X114326390Y-76186866D01*
X114295069Y-76203607D01*
X114261091Y-76213915D01*
X114219610Y-76218000D01*
X113618390Y-76218000D01*
X113576909Y-76213915D01*
X113542931Y-76203607D01*
X113511610Y-76186866D01*
X113484161Y-76164339D01*
X113461634Y-76136890D01*
X113444893Y-76105569D01*
X113434585Y-76071591D01*
X113430500Y-76030110D01*
X113430500Y-75353890D01*
X113434585Y-75312409D01*
X113444893Y-75278431D01*
X113461634Y-75247110D01*
X113484161Y-75219661D01*
X113511610Y-75197134D01*
X113542931Y-75180393D01*
X113576909Y-75170085D01*
X113618390Y-75166000D01*
X114219610Y-75166000D01*
X114261091Y-75170085D01*
G37*
G36*
X115836091Y-75170085D02*
G01*
X115870069Y-75180393D01*
X115901390Y-75197134D01*
X115928839Y-75219661D01*
X115951366Y-75247110D01*
X115968107Y-75278431D01*
X115978415Y-75312409D01*
X115982500Y-75353890D01*
X115982500Y-76030110D01*
X115978415Y-76071591D01*
X115968107Y-76105569D01*
X115951366Y-76136890D01*
X115928839Y-76164339D01*
X115901390Y-76186866D01*
X115870069Y-76203607D01*
X115836091Y-76213915D01*
X115794610Y-76218000D01*
X115193390Y-76218000D01*
X115151909Y-76213915D01*
X115117931Y-76203607D01*
X115086610Y-76186866D01*
X115059161Y-76164339D01*
X115036634Y-76136890D01*
X115019893Y-76105569D01*
X115009585Y-76071591D01*
X115005500Y-76030110D01*
X115005500Y-75353890D01*
X115009585Y-75312409D01*
X115019893Y-75278431D01*
X115036634Y-75247110D01*
X115059161Y-75219661D01*
X115086610Y-75197134D01*
X115117931Y-75180393D01*
X115151909Y-75170085D01*
X115193390Y-75166000D01*
X115794610Y-75166000D01*
X115836091Y-75170085D01*
G37*
G36*
X124511000Y-75552500D02*
G01*
X122631000Y-75552500D01*
X122631000Y-73291500D01*
X124511000Y-73291500D01*
X124511000Y-75552500D01*
G37*
G36*
X120447000Y-75552500D02*
G01*
X118567000Y-75552500D01*
X118567000Y-73291500D01*
X120447000Y-73291500D01*
X120447000Y-75552500D01*
G37*
G36*
X129798000Y-74653000D02*
G01*
X128896000Y-74653000D01*
X128896000Y-73651000D01*
X129798000Y-73651000D01*
X129798000Y-74653000D01*
G37*
G36*
X127898000Y-74653000D02*
G01*
X126996000Y-74653000D01*
X126996000Y-73651000D01*
X127898000Y-73651000D01*
X127898000Y-74653000D01*
G37*
G36*
X112762512Y-72255927D02*
G01*
X112911812Y-72285624D01*
X113075784Y-72353544D01*
X113223354Y-72452147D01*
X113348853Y-72577646D01*
X113447456Y-72725216D01*
X113515376Y-72889188D01*
X113550000Y-73063259D01*
X113550000Y-73240741D01*
X113515376Y-73414812D01*
X113447456Y-73578784D01*
X113348853Y-73726354D01*
X113223354Y-73851853D01*
X113075784Y-73950456D01*
X112911812Y-74018376D01*
X112762512Y-74048073D01*
X112737742Y-74053000D01*
X112560258Y-74053000D01*
X112535488Y-74048073D01*
X112386188Y-74018376D01*
X112222216Y-73950456D01*
X112074646Y-73851853D01*
X111949147Y-73726354D01*
X111850544Y-73578784D01*
X111782624Y-73414812D01*
X111748000Y-73240741D01*
X111748000Y-73063259D01*
X111782624Y-72889188D01*
X111850544Y-72725216D01*
X111949147Y-72577646D01*
X112074646Y-72452147D01*
X112222216Y-72353544D01*
X112386188Y-72285624D01*
X112535488Y-72255927D01*
X112560258Y-72251000D01*
X112737742Y-72251000D01*
X112762512Y-72255927D01*
G37*
G36*
X116090000Y-74053000D02*
G01*
X114288000Y-74053000D01*
X114288000Y-72251000D01*
X116090000Y-72251000D01*
X116090000Y-74053000D01*
G37*
G36*
X128848000Y-72653000D02*
G01*
X127946000Y-72653000D01*
X127946000Y-71651000D01*
X128848000Y-71651000D01*
X128848000Y-72653000D01*
G37*
G36*
X135719000Y-72378000D02*
G01*
X133117000Y-72378000D01*
X133117000Y-71076000D01*
X135719000Y-71076000D01*
X135719000Y-72378000D01*
G37*
G36*
X142219000Y-71278000D02*
G01*
X139617000Y-71278000D01*
X139617000Y-69976000D01*
X142219000Y-69976000D01*
X142219000Y-71278000D01*
G37*
G36*
X131824591Y-70178585D02*
G01*
X131858569Y-70188893D01*
X131889890Y-70205634D01*
X131917339Y-70228161D01*
X131939866Y-70255610D01*
X131956607Y-70286931D01*
X131966915Y-70320909D01*
X131971000Y-70362390D01*
X131971000Y-70963610D01*
X131966915Y-71005091D01*
X131956607Y-71039069D01*
X131939866Y-71070390D01*
X131917339Y-71097839D01*
X131889890Y-71120366D01*
X131858569Y-71137107D01*
X131824591Y-71147415D01*
X131783110Y-71151500D01*
X131106890Y-71151500D01*
X131065409Y-71147415D01*
X131031431Y-71137107D01*
X131000110Y-71120366D01*
X130972661Y-71097839D01*
X130950134Y-71070390D01*
X130933393Y-71039069D01*
X130923085Y-71005091D01*
X130919000Y-70963610D01*
X130919000Y-70362390D01*
X130923085Y-70320909D01*
X130933393Y-70286931D01*
X130950134Y-70255610D01*
X130972661Y-70228161D01*
X131000110Y-70205634D01*
X131031431Y-70188893D01*
X131065409Y-70178585D01*
X131106890Y-70174500D01*
X131783110Y-70174500D01*
X131824591Y-70178585D01*
G37*
G36*
X127760591Y-70127585D02*
G01*
X127794569Y-70137893D01*
X127825890Y-70154634D01*
X127853339Y-70177161D01*
X127875866Y-70204610D01*
X127892607Y-70235931D01*
X127902915Y-70269909D01*
X127907000Y-70311390D01*
X127907000Y-70912610D01*
X127902915Y-70954091D01*
X127892607Y-70988069D01*
X127875866Y-71019390D01*
X127853339Y-71046839D01*
X127825890Y-71069366D01*
X127794569Y-71086107D01*
X127760591Y-71096415D01*
X127719110Y-71100500D01*
X127042890Y-71100500D01*
X127001409Y-71096415D01*
X126967431Y-71086107D01*
X126936110Y-71069366D01*
X126908661Y-71046839D01*
X126886134Y-71019390D01*
X126869393Y-70988069D01*
X126859085Y-70954091D01*
X126855000Y-70912610D01*
X126855000Y-70311390D01*
X126859085Y-70269909D01*
X126869393Y-70235931D01*
X126886134Y-70204610D01*
X126908661Y-70177161D01*
X126936110Y-70154634D01*
X126967431Y-70137893D01*
X127001409Y-70127585D01*
X127042890Y-70123500D01*
X127719110Y-70123500D01*
X127760591Y-70127585D01*
G37*
G36*
X129792591Y-70127585D02*
G01*
X129826569Y-70137893D01*
X129857890Y-70154634D01*
X129885339Y-70177161D01*
X129907866Y-70204610D01*
X129924607Y-70235931D01*
X129934915Y-70269909D01*
X129939000Y-70311390D01*
X129939000Y-70912610D01*
X129934915Y-70954091D01*
X129924607Y-70988069D01*
X129907866Y-71019390D01*
X129885339Y-71046839D01*
X129857890Y-71069366D01*
X129826569Y-71086107D01*
X129792591Y-71096415D01*
X129751110Y-71100500D01*
X129074890Y-71100500D01*
X129033409Y-71096415D01*
X128999431Y-71086107D01*
X128968110Y-71069366D01*
X128940661Y-71046839D01*
X128918134Y-71019390D01*
X128901393Y-70988069D01*
X128891085Y-70954091D01*
X128887000Y-70912610D01*
X128887000Y-70311390D01*
X128891085Y-70269909D01*
X128901393Y-70235931D01*
X128918134Y-70204610D01*
X128940661Y-70177161D01*
X128968110Y-70154634D01*
X128999431Y-70137893D01*
X129033409Y-70127585D01*
X129074890Y-70123500D01*
X129751110Y-70123500D01*
X129792591Y-70127585D01*
G37*
G36*
X115085000Y-70293000D02*
G01*
X111483000Y-70293000D01*
X111483000Y-68391000D01*
X115085000Y-68391000D01*
X115085000Y-70293000D01*
G37*
G36*
X120085000Y-70293000D02*
G01*
X116483000Y-70293000D01*
X116483000Y-68391000D01*
X120085000Y-68391000D01*
X120085000Y-70293000D01*
G37*
G36*
X125492604Y-68420347D02*
G01*
X125529144Y-68431432D01*
X125562821Y-68449433D01*
X125592341Y-68473659D01*
X125616567Y-68503179D01*
X125634568Y-68536856D01*
X125645653Y-68573396D01*
X125650000Y-68617538D01*
X125650000Y-70066462D01*
X125645653Y-70110604D01*
X125634568Y-70147144D01*
X125616567Y-70180821D01*
X125592341Y-70210341D01*
X125562821Y-70234567D01*
X125529144Y-70252568D01*
X125492604Y-70263653D01*
X125448462Y-70268000D01*
X124499538Y-70268000D01*
X124455396Y-70263653D01*
X124418856Y-70252568D01*
X124385179Y-70234567D01*
X124355659Y-70210341D01*
X124331433Y-70180821D01*
X124313432Y-70147144D01*
X124302347Y-70110604D01*
X124298000Y-70066462D01*
X124298000Y-68617538D01*
X124302347Y-68573396D01*
X124313432Y-68536856D01*
X124331433Y-68503179D01*
X124355659Y-68473659D01*
X124385179Y-68449433D01*
X124418856Y-68431432D01*
X124455396Y-68420347D01*
X124499538Y-68416000D01*
X125448462Y-68416000D01*
X125492604Y-68420347D01*
G37*
G36*
X122692604Y-68420347D02*
G01*
X122729144Y-68431432D01*
X122762821Y-68449433D01*
X122792341Y-68473659D01*
X122816567Y-68503179D01*
X122834568Y-68536856D01*
X122845653Y-68573396D01*
X122850000Y-68617538D01*
X122850000Y-70066462D01*
X122845653Y-70110604D01*
X122834568Y-70147144D01*
X122816567Y-70180821D01*
X122792341Y-70210341D01*
X122762821Y-70234567D01*
X122729144Y-70252568D01*
X122692604Y-70263653D01*
X122648462Y-70268000D01*
X121699538Y-70268000D01*
X121655396Y-70263653D01*
X121618856Y-70252568D01*
X121585179Y-70234567D01*
X121555659Y-70210341D01*
X121531433Y-70180821D01*
X121513432Y-70147144D01*
X121502347Y-70110604D01*
X121498000Y-70066462D01*
X121498000Y-68617538D01*
X121502347Y-68573396D01*
X121513432Y-68536856D01*
X121531433Y-68503179D01*
X121555659Y-68473659D01*
X121585179Y-68449433D01*
X121618856Y-68431432D01*
X121655396Y-68420347D01*
X121699538Y-68416000D01*
X122648462Y-68416000D01*
X122692604Y-68420347D01*
G37*
G36*
X137901642Y-68256781D02*
G01*
X138047414Y-68317162D01*
X138047416Y-68317163D01*
X138178608Y-68404822D01*
X138290178Y-68516392D01*
X138357761Y-68617538D01*
X138377838Y-68647586D01*
X138438219Y-68793358D01*
X138469000Y-68948107D01*
X138469000Y-69105893D01*
X138438219Y-69260642D01*
X138377838Y-69406414D01*
X138377837Y-69406416D01*
X138290178Y-69537608D01*
X138178608Y-69649178D01*
X138047416Y-69736837D01*
X138047415Y-69736838D01*
X138047414Y-69736838D01*
X137901642Y-69797219D01*
X137746893Y-69828000D01*
X137589107Y-69828000D01*
X137434358Y-69797219D01*
X137288586Y-69736838D01*
X137288585Y-69736838D01*
X137288584Y-69736837D01*
X137157392Y-69649178D01*
X137045822Y-69537608D01*
X136958163Y-69406416D01*
X136958162Y-69406414D01*
X136897781Y-69260642D01*
X136867000Y-69105893D01*
X136867000Y-68948107D01*
X136897781Y-68793358D01*
X136958162Y-68647586D01*
X136978239Y-68617538D01*
X137045822Y-68516392D01*
X137157392Y-68404822D01*
X137288584Y-68317163D01*
X137288586Y-68317162D01*
X137434358Y-68256781D01*
X137589107Y-68226000D01*
X137746893Y-68226000D01*
X137901642Y-68256781D01*
G37*
G36*
X131824591Y-68603585D02*
G01*
X131858569Y-68613893D01*
X131889890Y-68630634D01*
X131917339Y-68653161D01*
X131939866Y-68680610D01*
X131956607Y-68711931D01*
X131966915Y-68745909D01*
X131971000Y-68787390D01*
X131971000Y-69388610D01*
X131966915Y-69430091D01*
X131956607Y-69464069D01*
X131939866Y-69495390D01*
X131917339Y-69522839D01*
X131889890Y-69545366D01*
X131858569Y-69562107D01*
X131824591Y-69572415D01*
X131783110Y-69576500D01*
X131106890Y-69576500D01*
X131065409Y-69572415D01*
X131031431Y-69562107D01*
X131000110Y-69545366D01*
X130972661Y-69522839D01*
X130950134Y-69495390D01*
X130933393Y-69464069D01*
X130923085Y-69430091D01*
X130919000Y-69388610D01*
X130919000Y-68787390D01*
X130923085Y-68745909D01*
X130933393Y-68711931D01*
X130950134Y-68680610D01*
X130972661Y-68653161D01*
X131000110Y-68630634D01*
X131031431Y-68613893D01*
X131065409Y-68603585D01*
X131106890Y-68599500D01*
X131783110Y-68599500D01*
X131824591Y-68603585D01*
G37*
G36*
X129792591Y-68552585D02*
G01*
X129826569Y-68562893D01*
X129857890Y-68579634D01*
X129885339Y-68602161D01*
X129907866Y-68629610D01*
X129924607Y-68660931D01*
X129934915Y-68694909D01*
X129939000Y-68736390D01*
X129939000Y-69337610D01*
X129934915Y-69379091D01*
X129924607Y-69413069D01*
X129907866Y-69444390D01*
X129885339Y-69471839D01*
X129857890Y-69494366D01*
X129826569Y-69511107D01*
X129792591Y-69521415D01*
X129751110Y-69525500D01*
X129074890Y-69525500D01*
X129033409Y-69521415D01*
X128999431Y-69511107D01*
X128968110Y-69494366D01*
X128940661Y-69471839D01*
X128918134Y-69444390D01*
X128901393Y-69413069D01*
X128891085Y-69379091D01*
X128887000Y-69337610D01*
X128887000Y-68736390D01*
X128891085Y-68694909D01*
X128901393Y-68660931D01*
X128918134Y-68629610D01*
X128940661Y-68602161D01*
X128968110Y-68579634D01*
X128999431Y-68562893D01*
X129033409Y-68552585D01*
X129074890Y-68548500D01*
X129751110Y-68548500D01*
X129792591Y-68552585D01*
G37*
G36*
X127760591Y-68552585D02*
G01*
X127794569Y-68562893D01*
X127825890Y-68579634D01*
X127853339Y-68602161D01*
X127875866Y-68629610D01*
X127892607Y-68660931D01*
X127902915Y-68694909D01*
X127907000Y-68736390D01*
X127907000Y-69337610D01*
X127902915Y-69379091D01*
X127892607Y-69413069D01*
X127875866Y-69444390D01*
X127853339Y-69471839D01*
X127825890Y-69494366D01*
X127794569Y-69511107D01*
X127760591Y-69521415D01*
X127719110Y-69525500D01*
X127042890Y-69525500D01*
X127001409Y-69521415D01*
X126967431Y-69511107D01*
X126936110Y-69494366D01*
X126908661Y-69471839D01*
X126886134Y-69444390D01*
X126869393Y-69413069D01*
X126859085Y-69379091D01*
X126855000Y-69337610D01*
X126855000Y-68736390D01*
X126859085Y-68694909D01*
X126869393Y-68660931D01*
X126886134Y-68629610D01*
X126908661Y-68602161D01*
X126936110Y-68579634D01*
X126967431Y-68562893D01*
X127001409Y-68552585D01*
X127042890Y-68548500D01*
X127719110Y-68548500D01*
X127760591Y-68552585D01*
G37*
G36*
X142219000Y-67278000D02*
G01*
X139617000Y-67278000D01*
X139617000Y-65976000D01*
X142219000Y-65976000D01*
X142219000Y-67278000D01*
G37*
G36*
X124663468Y-65808565D02*
G01*
X124702138Y-65820296D01*
X124737777Y-65839346D01*
X124769017Y-65864983D01*
X124794654Y-65896223D01*
X124813704Y-65931862D01*
X124825435Y-65970532D01*
X124830000Y-66016888D01*
X124830000Y-66668112D01*
X124825435Y-66714468D01*
X124813704Y-66753138D01*
X124794654Y-66788777D01*
X124769017Y-66820017D01*
X124737777Y-66845654D01*
X124702138Y-66864704D01*
X124663468Y-66876435D01*
X124617112Y-66881000D01*
X123540888Y-66881000D01*
X123494532Y-66876435D01*
X123455862Y-66864704D01*
X123420223Y-66845654D01*
X123388983Y-66820017D01*
X123363346Y-66788777D01*
X123344296Y-66753138D01*
X123332565Y-66714468D01*
X123328000Y-66668112D01*
X123328000Y-66016888D01*
X123332565Y-65970532D01*
X123344296Y-65931862D01*
X123363346Y-65896223D01*
X123388983Y-65864983D01*
X123420223Y-65839346D01*
X123455862Y-65820296D01*
X123494532Y-65808565D01*
X123540888Y-65804000D01*
X124617112Y-65804000D01*
X124663468Y-65808565D01*
G37*
G36*
X129743468Y-65760065D02*
G01*
X129782138Y-65771796D01*
X129817777Y-65790846D01*
X129849017Y-65816483D01*
X129874654Y-65847723D01*
X129893704Y-65883362D01*
X129905435Y-65922032D01*
X129910000Y-65968388D01*
X129910000Y-66619612D01*
X129905435Y-66665968D01*
X129893704Y-66704638D01*
X129874654Y-66740277D01*
X129849017Y-66771517D01*
X129817777Y-66797154D01*
X129782138Y-66816204D01*
X129743468Y-66827935D01*
X129697112Y-66832500D01*
X128620888Y-66832500D01*
X128574532Y-66827935D01*
X128535862Y-66816204D01*
X128500223Y-66797154D01*
X128468983Y-66771517D01*
X128443346Y-66740277D01*
X128424296Y-66704638D01*
X128412565Y-66665968D01*
X128408000Y-66619612D01*
X128408000Y-65968388D01*
X128412565Y-65922032D01*
X128424296Y-65883362D01*
X128443346Y-65847723D01*
X128468983Y-65816483D01*
X128500223Y-65790846D01*
X128535862Y-65771796D01*
X128574532Y-65760065D01*
X128620888Y-65755500D01*
X129697112Y-65755500D01*
X129743468Y-65760065D01*
G37*
G36*
X113635231Y-65900705D02*
G01*
X113673967Y-65908410D01*
X113704195Y-65920931D01*
X113746944Y-65938638D01*
X113812622Y-65982523D01*
X113868478Y-66038379D01*
X113878067Y-66052730D01*
X113893613Y-66071672D01*
X113912555Y-66087217D01*
X113934165Y-66098768D01*
X113957614Y-66105881D01*
X113982001Y-66108283D01*
X114006387Y-66105881D01*
X114029836Y-66098768D01*
X114051446Y-66087217D01*
X114070388Y-66071671D01*
X114085933Y-66052730D01*
X114095522Y-66038379D01*
X114151378Y-65982523D01*
X114217056Y-65938638D01*
X114259805Y-65920931D01*
X114290033Y-65908410D01*
X114328769Y-65900705D01*
X114367504Y-65893000D01*
X114446496Y-65893000D01*
X114485231Y-65900705D01*
X114523967Y-65908410D01*
X114554195Y-65920931D01*
X114596944Y-65938638D01*
X114662622Y-65982523D01*
X114718478Y-66038379D01*
X114728067Y-66052730D01*
X114743613Y-66071672D01*
X114762555Y-66087217D01*
X114784165Y-66098768D01*
X114807614Y-66105881D01*
X114832001Y-66108283D01*
X114856387Y-66105881D01*
X114879836Y-66098768D01*
X114901446Y-66087217D01*
X114920388Y-66071671D01*
X114935933Y-66052730D01*
X114945522Y-66038379D01*
X115001378Y-65982523D01*
X115067056Y-65938638D01*
X115109805Y-65920931D01*
X115140033Y-65908410D01*
X115178769Y-65900705D01*
X115217504Y-65893000D01*
X115296496Y-65893000D01*
X115335231Y-65900705D01*
X115373967Y-65908410D01*
X115404195Y-65920931D01*
X115446944Y-65938638D01*
X115512622Y-65982523D01*
X115568478Y-66038379D01*
X115578067Y-66052730D01*
X115593613Y-66071672D01*
X115612555Y-66087217D01*
X115634165Y-66098768D01*
X115657614Y-66105881D01*
X115682001Y-66108283D01*
X115706387Y-66105881D01*
X115729836Y-66098768D01*
X115751446Y-66087217D01*
X115770388Y-66071671D01*
X115785933Y-66052730D01*
X115795522Y-66038379D01*
X115851378Y-65982523D01*
X115917056Y-65938638D01*
X115959805Y-65920931D01*
X115990033Y-65908410D01*
X116028769Y-65900705D01*
X116067504Y-65893000D01*
X116146496Y-65893000D01*
X116185231Y-65900705D01*
X116223967Y-65908410D01*
X116254195Y-65920931D01*
X116296944Y-65938638D01*
X116362622Y-65982523D01*
X116418478Y-66038379D01*
X116428067Y-66052730D01*
X116443613Y-66071672D01*
X116462555Y-66087217D01*
X116484165Y-66098768D01*
X116507614Y-66105881D01*
X116532001Y-66108283D01*
X116556387Y-66105881D01*
X116579836Y-66098768D01*
X116601446Y-66087217D01*
X116620388Y-66071671D01*
X116635933Y-66052730D01*
X116645522Y-66038379D01*
X116701378Y-65982523D01*
X116767056Y-65938638D01*
X116809805Y-65920931D01*
X116840033Y-65908410D01*
X116878769Y-65900705D01*
X116917504Y-65893000D01*
X116996496Y-65893000D01*
X117035231Y-65900705D01*
X117073967Y-65908410D01*
X117104195Y-65920931D01*
X117146944Y-65938638D01*
X117212622Y-65982523D01*
X117268478Y-66038379D01*
X117278067Y-66052730D01*
X117293613Y-66071672D01*
X117312555Y-66087217D01*
X117334165Y-66098768D01*
X117357614Y-66105881D01*
X117382001Y-66108283D01*
X117406387Y-66105881D01*
X117429836Y-66098768D01*
X117451446Y-66087217D01*
X117470388Y-66071671D01*
X117485933Y-66052730D01*
X117495522Y-66038379D01*
X117551378Y-65982523D01*
X117617056Y-65938638D01*
X117659805Y-65920931D01*
X117690033Y-65908410D01*
X117728769Y-65900705D01*
X117767504Y-65893000D01*
X117846496Y-65893000D01*
X117885231Y-65900705D01*
X117923967Y-65908410D01*
X117954195Y-65920931D01*
X117996944Y-65938638D01*
X118062622Y-65982523D01*
X118118478Y-66038379D01*
X118128067Y-66052730D01*
X118143613Y-66071672D01*
X118162555Y-66087217D01*
X118184165Y-66098768D01*
X118207614Y-66105881D01*
X118232001Y-66108283D01*
X118256387Y-66105881D01*
X118279836Y-66098768D01*
X118301446Y-66087217D01*
X118320388Y-66071671D01*
X118335933Y-66052730D01*
X118345522Y-66038379D01*
X118401378Y-65982523D01*
X118467056Y-65938638D01*
X118509805Y-65920931D01*
X118540033Y-65908410D01*
X118578769Y-65900705D01*
X118617504Y-65893000D01*
X118696496Y-65893000D01*
X118735231Y-65900705D01*
X118773967Y-65908410D01*
X118804195Y-65920931D01*
X118846944Y-65938638D01*
X118912622Y-65982523D01*
X118968478Y-66038379D01*
X118978067Y-66052730D01*
X118993613Y-66071672D01*
X119012555Y-66087217D01*
X119034165Y-66098768D01*
X119057614Y-66105881D01*
X119082001Y-66108283D01*
X119106387Y-66105881D01*
X119129836Y-66098768D01*
X119151446Y-66087217D01*
X119170388Y-66071671D01*
X119185933Y-66052730D01*
X119195522Y-66038379D01*
X119251378Y-65982523D01*
X119317056Y-65938638D01*
X119359805Y-65920931D01*
X119390033Y-65908410D01*
X119428769Y-65900705D01*
X119467504Y-65893000D01*
X119546496Y-65893000D01*
X119585231Y-65900705D01*
X119623967Y-65908410D01*
X119654195Y-65920931D01*
X119696944Y-65938638D01*
X119762622Y-65982523D01*
X119818477Y-66038378D01*
X119862362Y-66104056D01*
X119880069Y-66146805D01*
X119892590Y-66177033D01*
X119908000Y-66254505D01*
X119908000Y-66333495D01*
X119892590Y-66410967D01*
X119880069Y-66441195D01*
X119862362Y-66483944D01*
X119818477Y-66549622D01*
X119762622Y-66605477D01*
X119696944Y-66649362D01*
X119660933Y-66664278D01*
X119623967Y-66679590D01*
X119585231Y-66687295D01*
X119546496Y-66695000D01*
X119467504Y-66695000D01*
X119428769Y-66687295D01*
X119390033Y-66679590D01*
X119353067Y-66664278D01*
X119317056Y-66649362D01*
X119251378Y-66605477D01*
X119195522Y-66549621D01*
X119185933Y-66535270D01*
X119170387Y-66516328D01*
X119151445Y-66500783D01*
X119129835Y-66489232D01*
X119106386Y-66482119D01*
X119081999Y-66479717D01*
X119057613Y-66482119D01*
X119034164Y-66489232D01*
X119012554Y-66500783D01*
X118993612Y-66516329D01*
X118978067Y-66535270D01*
X118968478Y-66549621D01*
X118912622Y-66605477D01*
X118846944Y-66649362D01*
X118810933Y-66664278D01*
X118773967Y-66679590D01*
X118735231Y-66687295D01*
X118696496Y-66695000D01*
X118617504Y-66695000D01*
X118578769Y-66687295D01*
X118540033Y-66679590D01*
X118503067Y-66664278D01*
X118467056Y-66649362D01*
X118401378Y-66605477D01*
X118345522Y-66549621D01*
X118335933Y-66535270D01*
X118320387Y-66516328D01*
X118301445Y-66500783D01*
X118279835Y-66489232D01*
X118256386Y-66482119D01*
X118231999Y-66479717D01*
X118207613Y-66482119D01*
X118184164Y-66489232D01*
X118162554Y-66500783D01*
X118143612Y-66516329D01*
X118128067Y-66535270D01*
X118118478Y-66549621D01*
X118062622Y-66605477D01*
X117996944Y-66649362D01*
X117960933Y-66664278D01*
X117923967Y-66679590D01*
X117885231Y-66687295D01*
X117846496Y-66695000D01*
X117767504Y-66695000D01*
X117728769Y-66687295D01*
X117690033Y-66679590D01*
X117653067Y-66664278D01*
X117617056Y-66649362D01*
X117551378Y-66605477D01*
X117495522Y-66549621D01*
X117485933Y-66535270D01*
X117470387Y-66516328D01*
X117451445Y-66500783D01*
X117429835Y-66489232D01*
X117406386Y-66482119D01*
X117381999Y-66479717D01*
X117357613Y-66482119D01*
X117334164Y-66489232D01*
X117312554Y-66500783D01*
X117293612Y-66516329D01*
X117278067Y-66535270D01*
X117268478Y-66549621D01*
X117212622Y-66605477D01*
X117146944Y-66649362D01*
X117110933Y-66664278D01*
X117073967Y-66679590D01*
X117035231Y-66687295D01*
X116996496Y-66695000D01*
X116917504Y-66695000D01*
X116878769Y-66687295D01*
X116840033Y-66679590D01*
X116803067Y-66664278D01*
X116767056Y-66649362D01*
X116701378Y-66605477D01*
X116645522Y-66549621D01*
X116635933Y-66535270D01*
X116620387Y-66516328D01*
X116601445Y-66500783D01*
X116579835Y-66489232D01*
X116556386Y-66482119D01*
X116531999Y-66479717D01*
X116507613Y-66482119D01*
X116484164Y-66489232D01*
X116462554Y-66500783D01*
X116443612Y-66516329D01*
X116428067Y-66535270D01*
X116418478Y-66549621D01*
X116362622Y-66605477D01*
X116296944Y-66649362D01*
X116260933Y-66664278D01*
X116223967Y-66679590D01*
X116185231Y-66687295D01*
X116146496Y-66695000D01*
X116067504Y-66695000D01*
X116028769Y-66687295D01*
X115990033Y-66679590D01*
X115953067Y-66664278D01*
X115917056Y-66649362D01*
X115851378Y-66605477D01*
X115795522Y-66549621D01*
X115785933Y-66535270D01*
X115770387Y-66516328D01*
X115751445Y-66500783D01*
X115729835Y-66489232D01*
X115706386Y-66482119D01*
X115681999Y-66479717D01*
X115657613Y-66482119D01*
X115634164Y-66489232D01*
X115612554Y-66500783D01*
X115593612Y-66516329D01*
X115578067Y-66535270D01*
X115568478Y-66549621D01*
X115512622Y-66605477D01*
X115446944Y-66649362D01*
X115410933Y-66664278D01*
X115373967Y-66679590D01*
X115335231Y-66687295D01*
X115296496Y-66695000D01*
X115217504Y-66695000D01*
X115178769Y-66687295D01*
X115140033Y-66679590D01*
X115103067Y-66664278D01*
X115067056Y-66649362D01*
X115001378Y-66605477D01*
X114945522Y-66549621D01*
X114935933Y-66535270D01*
X114920387Y-66516328D01*
X114901445Y-66500783D01*
X114879835Y-66489232D01*
X114856386Y-66482119D01*
X114831999Y-66479717D01*
X114807613Y-66482119D01*
X114784164Y-66489232D01*
X114762554Y-66500783D01*
X114743612Y-66516329D01*
X114728067Y-66535270D01*
X114718478Y-66549621D01*
X114662622Y-66605477D01*
X114596944Y-66649362D01*
X114560933Y-66664278D01*
X114523967Y-66679590D01*
X114485231Y-66687295D01*
X114446496Y-66695000D01*
X114367504Y-66695000D01*
X114328769Y-66687295D01*
X114290033Y-66679590D01*
X114253067Y-66664278D01*
X114217056Y-66649362D01*
X114151378Y-66605477D01*
X114095522Y-66549621D01*
X114085933Y-66535270D01*
X114070387Y-66516328D01*
X114051445Y-66500783D01*
X114029835Y-66489232D01*
X114006386Y-66482119D01*
X113981999Y-66479717D01*
X113957613Y-66482119D01*
X113934164Y-66489232D01*
X113912554Y-66500783D01*
X113893612Y-66516329D01*
X113878067Y-66535270D01*
X113868478Y-66549621D01*
X113812622Y-66605477D01*
X113746944Y-66649362D01*
X113710933Y-66664278D01*
X113673967Y-66679590D01*
X113635231Y-66687295D01*
X113596496Y-66695000D01*
X113517504Y-66695000D01*
X113478769Y-66687295D01*
X113440033Y-66679590D01*
X113403067Y-66664278D01*
X113367056Y-66649362D01*
X113301378Y-66605477D01*
X113245523Y-66549622D01*
X113201638Y-66483944D01*
X113183931Y-66441195D01*
X113171410Y-66410967D01*
X113156000Y-66333495D01*
X113156000Y-66254505D01*
X113171410Y-66177033D01*
X113183931Y-66146805D01*
X113201638Y-66104056D01*
X113245523Y-66038378D01*
X113301378Y-65982523D01*
X113367056Y-65938638D01*
X113409805Y-65920931D01*
X113440033Y-65908410D01*
X113478769Y-65900705D01*
X113517504Y-65893000D01*
X113596496Y-65893000D01*
X113635231Y-65900705D01*
G37*
G36*
X120955213Y-64070249D02*
G01*
X121049652Y-64098897D01*
X121136687Y-64145418D01*
X121212975Y-64208025D01*
X121275582Y-64284313D01*
X121322103Y-64371348D01*
X121350751Y-64465787D01*
X121358000Y-64539388D01*
X121358000Y-66088612D01*
X121350751Y-66162213D01*
X121322103Y-66256652D01*
X121275582Y-66343687D01*
X121212975Y-66419975D01*
X121136687Y-66482582D01*
X121049651Y-66529103D01*
X120955212Y-66557751D01*
X120857000Y-66567424D01*
X120758787Y-66557751D01*
X120664348Y-66529103D01*
X120577313Y-66482582D01*
X120501025Y-66419975D01*
X120438418Y-66343687D01*
X120391897Y-66256651D01*
X120363249Y-66162212D01*
X120356000Y-66088611D01*
X120356001Y-64539388D01*
X120363250Y-64465787D01*
X120391898Y-64371348D01*
X120438419Y-64284313D01*
X120501026Y-64208025D01*
X120577314Y-64145418D01*
X120664349Y-64098897D01*
X120758788Y-64070249D01*
X120857000Y-64060576D01*
X120955213Y-64070249D01*
G37*
G36*
X112305213Y-64070249D02*
G01*
X112399652Y-64098897D01*
X112486687Y-64145418D01*
X112562975Y-64208025D01*
X112625582Y-64284313D01*
X112672103Y-64371348D01*
X112700751Y-64465787D01*
X112708000Y-64539388D01*
X112708000Y-66088612D01*
X112700751Y-66162213D01*
X112672103Y-66256652D01*
X112625582Y-66343687D01*
X112562975Y-66419975D01*
X112486687Y-66482582D01*
X112399651Y-66529103D01*
X112305212Y-66557751D01*
X112207000Y-66567424D01*
X112108787Y-66557751D01*
X112014348Y-66529103D01*
X111927313Y-66482582D01*
X111851025Y-66419975D01*
X111788418Y-66343687D01*
X111741897Y-66256651D01*
X111713249Y-66162212D01*
X111706000Y-66088611D01*
X111706001Y-64539388D01*
X111713250Y-64465787D01*
X111741898Y-64371348D01*
X111788419Y-64284313D01*
X111851026Y-64208025D01*
X111927314Y-64145418D01*
X112014349Y-64098897D01*
X112108788Y-64070249D01*
X112207000Y-64060576D01*
X112305213Y-64070249D01*
G37*
G36*
X113635231Y-64550705D02*
G01*
X113673967Y-64558410D01*
X113704195Y-64570931D01*
X113746944Y-64588638D01*
X113812622Y-64632523D01*
X113868478Y-64688379D01*
X113878067Y-64702730D01*
X113893613Y-64721672D01*
X113912555Y-64737217D01*
X113934165Y-64748768D01*
X113957614Y-64755881D01*
X113982001Y-64758283D01*
X114006387Y-64755881D01*
X114029836Y-64748768D01*
X114051446Y-64737217D01*
X114070388Y-64721671D01*
X114085933Y-64702730D01*
X114095522Y-64688379D01*
X114151378Y-64632523D01*
X114217056Y-64588638D01*
X114259805Y-64570931D01*
X114290033Y-64558410D01*
X114328769Y-64550705D01*
X114367504Y-64543000D01*
X114446496Y-64543000D01*
X114485231Y-64550705D01*
X114523967Y-64558410D01*
X114554195Y-64570931D01*
X114596944Y-64588638D01*
X114662622Y-64632523D01*
X114718478Y-64688379D01*
X114728067Y-64702730D01*
X114743613Y-64721672D01*
X114762555Y-64737217D01*
X114784165Y-64748768D01*
X114807614Y-64755881D01*
X114832001Y-64758283D01*
X114856387Y-64755881D01*
X114879836Y-64748768D01*
X114901446Y-64737217D01*
X114920388Y-64721671D01*
X114935933Y-64702730D01*
X114945522Y-64688379D01*
X115001378Y-64632523D01*
X115067056Y-64588638D01*
X115109805Y-64570931D01*
X115140033Y-64558410D01*
X115178769Y-64550705D01*
X115217504Y-64543000D01*
X115296496Y-64543000D01*
X115335231Y-64550705D01*
X115373967Y-64558410D01*
X115404195Y-64570931D01*
X115446944Y-64588638D01*
X115512622Y-64632523D01*
X115568478Y-64688379D01*
X115578067Y-64702730D01*
X115593613Y-64721672D01*
X115612555Y-64737217D01*
X115634165Y-64748768D01*
X115657614Y-64755881D01*
X115682001Y-64758283D01*
X115706387Y-64755881D01*
X115729836Y-64748768D01*
X115751446Y-64737217D01*
X115770388Y-64721671D01*
X115785933Y-64702730D01*
X115795522Y-64688379D01*
X115851378Y-64632523D01*
X115917056Y-64588638D01*
X115959805Y-64570931D01*
X115990033Y-64558410D01*
X116028769Y-64550705D01*
X116067504Y-64543000D01*
X116146496Y-64543000D01*
X116185231Y-64550705D01*
X116223967Y-64558410D01*
X116254195Y-64570931D01*
X116296944Y-64588638D01*
X116362622Y-64632523D01*
X116418478Y-64688379D01*
X116428067Y-64702730D01*
X116443613Y-64721672D01*
X116462555Y-64737217D01*
X116484165Y-64748768D01*
X116507614Y-64755881D01*
X116532001Y-64758283D01*
X116556387Y-64755881D01*
X116579836Y-64748768D01*
X116601446Y-64737217D01*
X116620388Y-64721671D01*
X116635933Y-64702730D01*
X116645522Y-64688379D01*
X116701378Y-64632523D01*
X116767056Y-64588638D01*
X116809805Y-64570931D01*
X116840033Y-64558410D01*
X116878769Y-64550705D01*
X116917504Y-64543000D01*
X116996496Y-64543000D01*
X117035231Y-64550705D01*
X117073967Y-64558410D01*
X117104195Y-64570931D01*
X117146944Y-64588638D01*
X117212622Y-64632523D01*
X117268478Y-64688379D01*
X117278067Y-64702730D01*
X117293613Y-64721672D01*
X117312555Y-64737217D01*
X117334165Y-64748768D01*
X117357614Y-64755881D01*
X117382001Y-64758283D01*
X117406387Y-64755881D01*
X117429836Y-64748768D01*
X117451446Y-64737217D01*
X117470388Y-64721671D01*
X117485933Y-64702730D01*
X117495522Y-64688379D01*
X117551378Y-64632523D01*
X117617056Y-64588638D01*
X117659805Y-64570931D01*
X117690033Y-64558410D01*
X117728769Y-64550705D01*
X117767504Y-64543000D01*
X117846496Y-64543000D01*
X117885231Y-64550705D01*
X117923967Y-64558410D01*
X117954195Y-64570931D01*
X117996944Y-64588638D01*
X118062622Y-64632523D01*
X118118478Y-64688379D01*
X118128067Y-64702730D01*
X118143613Y-64721672D01*
X118162555Y-64737217D01*
X118184165Y-64748768D01*
X118207614Y-64755881D01*
X118232001Y-64758283D01*
X118256387Y-64755881D01*
X118279836Y-64748768D01*
X118301446Y-64737217D01*
X118320388Y-64721671D01*
X118335933Y-64702730D01*
X118345522Y-64688379D01*
X118401378Y-64632523D01*
X118467056Y-64588638D01*
X118509805Y-64570931D01*
X118540033Y-64558410D01*
X118578769Y-64550705D01*
X118617504Y-64543000D01*
X118696496Y-64543000D01*
X118735231Y-64550705D01*
X118773967Y-64558410D01*
X118804195Y-64570931D01*
X118846944Y-64588638D01*
X118912622Y-64632523D01*
X118968478Y-64688379D01*
X118978067Y-64702730D01*
X118993613Y-64721672D01*
X119012555Y-64737217D01*
X119034165Y-64748768D01*
X119057614Y-64755881D01*
X119082001Y-64758283D01*
X119106387Y-64755881D01*
X119129836Y-64748768D01*
X119151446Y-64737217D01*
X119170388Y-64721671D01*
X119185933Y-64702730D01*
X119195522Y-64688379D01*
X119251378Y-64632523D01*
X119317056Y-64588638D01*
X119359805Y-64570931D01*
X119390033Y-64558410D01*
X119428769Y-64550705D01*
X119467504Y-64543000D01*
X119546496Y-64543000D01*
X119585231Y-64550705D01*
X119623967Y-64558410D01*
X119654195Y-64570931D01*
X119696944Y-64588638D01*
X119762622Y-64632523D01*
X119818477Y-64688378D01*
X119862362Y-64754056D01*
X119892590Y-64827034D01*
X119908000Y-64904504D01*
X119908000Y-64983496D01*
X119892590Y-65060966D01*
X119862362Y-65133944D01*
X119818477Y-65199622D01*
X119762622Y-65255477D01*
X119696944Y-65299362D01*
X119654195Y-65317069D01*
X119623967Y-65329590D01*
X119585231Y-65337295D01*
X119546496Y-65345000D01*
X119467504Y-65345000D01*
X119428769Y-65337295D01*
X119390033Y-65329590D01*
X119359805Y-65317069D01*
X119317056Y-65299362D01*
X119251378Y-65255477D01*
X119195522Y-65199621D01*
X119185933Y-65185270D01*
X119170387Y-65166328D01*
X119151445Y-65150783D01*
X119129835Y-65139232D01*
X119106386Y-65132119D01*
X119081999Y-65129717D01*
X119057613Y-65132119D01*
X119034164Y-65139232D01*
X119012554Y-65150783D01*
X118993612Y-65166329D01*
X118978067Y-65185270D01*
X118968478Y-65199621D01*
X118912622Y-65255477D01*
X118846944Y-65299362D01*
X118804195Y-65317069D01*
X118773967Y-65329590D01*
X118735231Y-65337295D01*
X118696496Y-65345000D01*
X118617504Y-65345000D01*
X118578769Y-65337295D01*
X118540033Y-65329590D01*
X118509805Y-65317069D01*
X118467056Y-65299362D01*
X118401378Y-65255477D01*
X118345522Y-65199621D01*
X118335933Y-65185270D01*
X118320387Y-65166328D01*
X118301445Y-65150783D01*
X118279835Y-65139232D01*
X118256386Y-65132119D01*
X118231999Y-65129717D01*
X118207613Y-65132119D01*
X118184164Y-65139232D01*
X118162554Y-65150783D01*
X118143612Y-65166329D01*
X118128067Y-65185270D01*
X118118478Y-65199621D01*
X118062622Y-65255477D01*
X117996944Y-65299362D01*
X117954195Y-65317069D01*
X117923967Y-65329590D01*
X117885231Y-65337295D01*
X117846496Y-65345000D01*
X117767504Y-65345000D01*
X117728769Y-65337295D01*
X117690033Y-65329590D01*
X117659805Y-65317069D01*
X117617056Y-65299362D01*
X117551378Y-65255477D01*
X117495522Y-65199621D01*
X117485933Y-65185270D01*
X117470387Y-65166328D01*
X117451445Y-65150783D01*
X117429835Y-65139232D01*
X117406386Y-65132119D01*
X117381999Y-65129717D01*
X117357613Y-65132119D01*
X117334164Y-65139232D01*
X117312554Y-65150783D01*
X117293612Y-65166329D01*
X117278067Y-65185270D01*
X117268478Y-65199621D01*
X117212622Y-65255477D01*
X117146944Y-65299362D01*
X117104195Y-65317069D01*
X117073967Y-65329590D01*
X117035231Y-65337295D01*
X116996496Y-65345000D01*
X116917504Y-65345000D01*
X116878769Y-65337295D01*
X116840033Y-65329590D01*
X116809805Y-65317069D01*
X116767056Y-65299362D01*
X116701378Y-65255477D01*
X116645522Y-65199621D01*
X116635933Y-65185270D01*
X116620387Y-65166328D01*
X116601445Y-65150783D01*
X116579835Y-65139232D01*
X116556386Y-65132119D01*
X116531999Y-65129717D01*
X116507613Y-65132119D01*
X116484164Y-65139232D01*
X116462554Y-65150783D01*
X116443612Y-65166329D01*
X116428067Y-65185270D01*
X116418478Y-65199621D01*
X116362622Y-65255477D01*
X116296944Y-65299362D01*
X116254195Y-65317069D01*
X116223967Y-65329590D01*
X116185231Y-65337295D01*
X116146496Y-65345000D01*
X116067504Y-65345000D01*
X116028769Y-65337295D01*
X115990033Y-65329590D01*
X115959805Y-65317069D01*
X115917056Y-65299362D01*
X115851378Y-65255477D01*
X115795522Y-65199621D01*
X115785933Y-65185270D01*
X115770387Y-65166328D01*
X115751445Y-65150783D01*
X115729835Y-65139232D01*
X115706386Y-65132119D01*
X115681999Y-65129717D01*
X115657613Y-65132119D01*
X115634164Y-65139232D01*
X115612554Y-65150783D01*
X115593612Y-65166329D01*
X115578067Y-65185270D01*
X115568478Y-65199621D01*
X115512622Y-65255477D01*
X115446944Y-65299362D01*
X115404195Y-65317069D01*
X115373967Y-65329590D01*
X115335231Y-65337295D01*
X115296496Y-65345000D01*
X115217504Y-65345000D01*
X115178769Y-65337295D01*
X115140033Y-65329590D01*
X115109805Y-65317069D01*
X115067056Y-65299362D01*
X115001378Y-65255477D01*
X114945522Y-65199621D01*
X114935933Y-65185270D01*
X114920387Y-65166328D01*
X114901445Y-65150783D01*
X114879835Y-65139232D01*
X114856386Y-65132119D01*
X114831999Y-65129717D01*
X114807613Y-65132119D01*
X114784164Y-65139232D01*
X114762554Y-65150783D01*
X114743612Y-65166329D01*
X114728067Y-65185270D01*
X114718478Y-65199621D01*
X114662622Y-65255477D01*
X114596944Y-65299362D01*
X114554195Y-65317069D01*
X114523967Y-65329590D01*
X114485231Y-65337295D01*
X114446496Y-65345000D01*
X114367504Y-65345000D01*
X114328769Y-65337295D01*
X114290033Y-65329590D01*
X114259805Y-65317069D01*
X114217056Y-65299362D01*
X114151378Y-65255477D01*
X114095522Y-65199621D01*
X114085933Y-65185270D01*
X114070387Y-65166328D01*
X114051445Y-65150783D01*
X114029835Y-65139232D01*
X114006386Y-65132119D01*
X113981999Y-65129717D01*
X113957613Y-65132119D01*
X113934164Y-65139232D01*
X113912554Y-65150783D01*
X113893612Y-65166329D01*
X113878067Y-65185270D01*
X113868478Y-65199621D01*
X113812622Y-65255477D01*
X113746944Y-65299362D01*
X113704195Y-65317069D01*
X113673967Y-65329590D01*
X113635231Y-65337295D01*
X113596496Y-65345000D01*
X113517504Y-65345000D01*
X113478769Y-65337295D01*
X113440033Y-65329590D01*
X113409805Y-65317069D01*
X113367056Y-65299362D01*
X113301378Y-65255477D01*
X113245523Y-65199622D01*
X113201638Y-65133944D01*
X113171410Y-65060966D01*
X113156000Y-64983496D01*
X113156000Y-64904504D01*
X113171410Y-64827034D01*
X113201638Y-64754056D01*
X113245523Y-64688378D01*
X113301378Y-64632523D01*
X113367056Y-64588638D01*
X113409805Y-64570931D01*
X113440033Y-64558410D01*
X113478769Y-64550705D01*
X113517504Y-64543000D01*
X113596496Y-64543000D01*
X113635231Y-64550705D01*
G37*
G36*
X124663468Y-63933565D02*
G01*
X124702138Y-63945296D01*
X124737777Y-63964346D01*
X124769017Y-63989983D01*
X124794654Y-64021223D01*
X124813704Y-64056862D01*
X124825435Y-64095532D01*
X124830000Y-64141888D01*
X124830000Y-64793112D01*
X124825435Y-64839468D01*
X124813704Y-64878138D01*
X124794654Y-64913777D01*
X124769017Y-64945017D01*
X124737777Y-64970654D01*
X124702138Y-64989704D01*
X124663468Y-65001435D01*
X124617112Y-65006000D01*
X123540888Y-65006000D01*
X123494532Y-65001435D01*
X123455862Y-64989704D01*
X123420223Y-64970654D01*
X123388983Y-64945017D01*
X123363346Y-64913777D01*
X123344296Y-64878138D01*
X123332565Y-64839468D01*
X123328000Y-64793112D01*
X123328000Y-64141888D01*
X123332565Y-64095532D01*
X123344296Y-64056862D01*
X123363346Y-64021223D01*
X123388983Y-63989983D01*
X123420223Y-63964346D01*
X123455862Y-63945296D01*
X123494532Y-63933565D01*
X123540888Y-63929000D01*
X124617112Y-63929000D01*
X124663468Y-63933565D01*
G37*
G36*
X129743468Y-63885065D02*
G01*
X129782138Y-63896796D01*
X129817777Y-63915846D01*
X129849017Y-63941483D01*
X129874654Y-63972723D01*
X129893704Y-64008362D01*
X129905435Y-64047032D01*
X129910000Y-64093388D01*
X129910000Y-64744612D01*
X129905435Y-64790968D01*
X129893704Y-64829638D01*
X129874654Y-64865277D01*
X129849017Y-64896517D01*
X129817777Y-64922154D01*
X129782138Y-64941204D01*
X129743468Y-64952935D01*
X129697112Y-64957500D01*
X128620888Y-64957500D01*
X128574532Y-64952935D01*
X128535862Y-64941204D01*
X128500223Y-64922154D01*
X128468983Y-64896517D01*
X128443346Y-64865277D01*
X128424296Y-64829638D01*
X128412565Y-64790968D01*
X128408000Y-64744612D01*
X128408000Y-64093388D01*
X128412565Y-64047032D01*
X128424296Y-64008362D01*
X128443346Y-63972723D01*
X128468983Y-63941483D01*
X128500223Y-63915846D01*
X128535862Y-63896796D01*
X128574532Y-63885065D01*
X128620888Y-63880500D01*
X129697112Y-63880500D01*
X129743468Y-63885065D01*
G37*
G36*
X142219000Y-64278000D02*
G01*
X139617000Y-64278000D01*
X139617000Y-62976000D01*
X142219000Y-62976000D01*
X142219000Y-64278000D01*
G37*
G36*
X130136091Y-62241585D02*
G01*
X130170069Y-62251893D01*
X130201390Y-62268634D01*
X130228839Y-62291161D01*
X130251366Y-62318610D01*
X130268107Y-62349931D01*
X130278415Y-62383909D01*
X130282500Y-62425390D01*
X130282500Y-63101610D01*
X130278415Y-63143091D01*
X130268107Y-63177069D01*
X130251366Y-63208390D01*
X130228839Y-63235839D01*
X130201390Y-63258366D01*
X130170069Y-63275107D01*
X130136091Y-63285415D01*
X130094610Y-63289500D01*
X129493390Y-63289500D01*
X129451909Y-63285415D01*
X129417931Y-63275107D01*
X129386610Y-63258366D01*
X129359161Y-63235839D01*
X129336634Y-63208390D01*
X129319893Y-63177069D01*
X129309585Y-63143091D01*
X129305500Y-63101610D01*
X129305500Y-62425390D01*
X129309585Y-62383909D01*
X129319893Y-62349931D01*
X129336634Y-62318610D01*
X129359161Y-62291161D01*
X129386610Y-62268634D01*
X129417931Y-62251893D01*
X129451909Y-62241585D01*
X129493390Y-62237500D01*
X130094610Y-62237500D01*
X130136091Y-62241585D01*
G37*
G36*
X128561091Y-62241585D02*
G01*
X128595069Y-62251893D01*
X128626390Y-62268634D01*
X128653839Y-62291161D01*
X128676366Y-62318610D01*
X128693107Y-62349931D01*
X128703415Y-62383909D01*
X128707500Y-62425390D01*
X128707500Y-63101610D01*
X128703415Y-63143091D01*
X128693107Y-63177069D01*
X128676366Y-63208390D01*
X128653839Y-63235839D01*
X128626390Y-63258366D01*
X128595069Y-63275107D01*
X128561091Y-63285415D01*
X128519610Y-63289500D01*
X127918390Y-63289500D01*
X127876909Y-63285415D01*
X127842931Y-63275107D01*
X127811610Y-63258366D01*
X127784161Y-63235839D01*
X127761634Y-63208390D01*
X127744893Y-63177069D01*
X127734585Y-63143091D01*
X127730500Y-63101610D01*
X127730500Y-62425390D01*
X127734585Y-62383909D01*
X127744893Y-62349931D01*
X127761634Y-62318610D01*
X127784161Y-62291161D01*
X127811610Y-62268634D01*
X127842931Y-62251893D01*
X127876909Y-62241585D01*
X127918390Y-62237500D01*
X128519610Y-62237500D01*
X128561091Y-62241585D01*
G37*
G36*
X125107091Y-62216085D02*
G01*
X125141069Y-62226393D01*
X125172390Y-62243134D01*
X125199839Y-62265661D01*
X125222366Y-62293110D01*
X125239107Y-62324431D01*
X125249415Y-62358409D01*
X125253500Y-62399890D01*
X125253500Y-63076110D01*
X125249415Y-63117591D01*
X125239107Y-63151569D01*
X125222366Y-63182890D01*
X125199839Y-63210339D01*
X125172390Y-63232866D01*
X125141069Y-63249607D01*
X125107091Y-63259915D01*
X125065610Y-63264000D01*
X124464390Y-63264000D01*
X124422909Y-63259915D01*
X124388931Y-63249607D01*
X124357610Y-63232866D01*
X124330161Y-63210339D01*
X124307634Y-63182890D01*
X124290893Y-63151569D01*
X124280585Y-63117591D01*
X124276500Y-63076110D01*
X124276500Y-62399890D01*
X124280585Y-62358409D01*
X124290893Y-62324431D01*
X124307634Y-62293110D01*
X124330161Y-62265661D01*
X124357610Y-62243134D01*
X124388931Y-62226393D01*
X124422909Y-62216085D01*
X124464390Y-62212000D01*
X125065610Y-62212000D01*
X125107091Y-62216085D01*
G37*
G36*
X123532091Y-62216085D02*
G01*
X123566069Y-62226393D01*
X123597390Y-62243134D01*
X123624839Y-62265661D01*
X123647366Y-62293110D01*
X123664107Y-62324431D01*
X123674415Y-62358409D01*
X123678500Y-62399890D01*
X123678500Y-63076110D01*
X123674415Y-63117591D01*
X123664107Y-63151569D01*
X123647366Y-63182890D01*
X123624839Y-63210339D01*
X123597390Y-63232866D01*
X123566069Y-63249607D01*
X123532091Y-63259915D01*
X123490610Y-63264000D01*
X122889390Y-63264000D01*
X122847909Y-63259915D01*
X122813931Y-63249607D01*
X122782610Y-63232866D01*
X122755161Y-63210339D01*
X122732634Y-63182890D01*
X122715893Y-63151569D01*
X122705585Y-63117591D01*
X122701500Y-63076110D01*
X122701500Y-62399890D01*
X122705585Y-62358409D01*
X122715893Y-62324431D01*
X122732634Y-62293110D01*
X122755161Y-62265661D01*
X122782610Y-62243134D01*
X122813931Y-62226393D01*
X122847909Y-62216085D01*
X122889390Y-62212000D01*
X123490610Y-62212000D01*
X123532091Y-62216085D01*
G37*
G36*
X120955213Y-61040249D02*
G01*
X121049652Y-61068897D01*
X121136687Y-61115418D01*
X121212975Y-61178025D01*
X121275582Y-61254313D01*
X121322103Y-61341348D01*
X121350751Y-61435787D01*
X121358000Y-61509388D01*
X121358000Y-62358612D01*
X121350751Y-62432213D01*
X121322103Y-62526652D01*
X121275582Y-62613687D01*
X121212975Y-62689975D01*
X121136687Y-62752582D01*
X121049651Y-62799103D01*
X120955212Y-62827751D01*
X120857000Y-62837424D01*
X120758787Y-62827751D01*
X120664348Y-62799103D01*
X120577313Y-62752582D01*
X120501025Y-62689975D01*
X120438418Y-62613687D01*
X120391897Y-62526651D01*
X120363249Y-62432212D01*
X120356000Y-62358611D01*
X120356000Y-61509398D01*
X120363250Y-61435786D01*
X120373846Y-61400856D01*
X120391898Y-61341348D01*
X120438419Y-61254313D01*
X120501026Y-61178025D01*
X120577314Y-61115418D01*
X120664349Y-61068897D01*
X120758788Y-61040249D01*
X120857000Y-61030576D01*
X120955213Y-61040249D01*
G37*
G36*
X112305213Y-61040249D02*
G01*
X112399652Y-61068897D01*
X112486687Y-61115418D01*
X112562975Y-61178025D01*
X112625582Y-61254313D01*
X112672103Y-61341348D01*
X112700751Y-61435787D01*
X112708000Y-61509388D01*
X112708000Y-62358612D01*
X112700751Y-62432213D01*
X112672103Y-62526652D01*
X112625582Y-62613687D01*
X112562975Y-62689975D01*
X112486687Y-62752582D01*
X112399651Y-62799103D01*
X112305212Y-62827751D01*
X112207000Y-62837424D01*
X112108787Y-62827751D01*
X112014348Y-62799103D01*
X111927313Y-62752582D01*
X111851025Y-62689975D01*
X111788418Y-62613687D01*
X111741897Y-62526651D01*
X111713249Y-62432212D01*
X111706000Y-62358611D01*
X111706000Y-61509398D01*
X111713250Y-61435786D01*
X111723846Y-61400856D01*
X111741898Y-61341348D01*
X111788419Y-61254313D01*
X111851026Y-61178025D01*
X111927314Y-61115418D01*
X112014349Y-61068897D01*
X112108788Y-61040249D01*
X112207000Y-61030576D01*
X112305213Y-61040249D01*
G37*
G36*
X137901642Y-61256781D02*
G01*
X138047414Y-61317162D01*
X138047416Y-61317163D01*
X138178608Y-61404822D01*
X138290178Y-61516392D01*
X138377837Y-61647584D01*
X138377838Y-61647586D01*
X138438219Y-61793358D01*
X138469000Y-61948107D01*
X138469000Y-62105893D01*
X138438219Y-62260642D01*
X138397638Y-62358612D01*
X138377837Y-62406416D01*
X138290178Y-62537608D01*
X138178608Y-62649178D01*
X138047416Y-62736837D01*
X138047415Y-62736838D01*
X138047414Y-62736838D01*
X137901642Y-62797219D01*
X137746893Y-62828000D01*
X137589107Y-62828000D01*
X137434358Y-62797219D01*
X137288586Y-62736838D01*
X137288585Y-62736838D01*
X137288584Y-62736837D01*
X137157392Y-62649178D01*
X137045822Y-62537608D01*
X136958163Y-62406416D01*
X136938362Y-62358612D01*
X136897781Y-62260642D01*
X136867000Y-62105893D01*
X136867000Y-61948107D01*
X136897781Y-61793358D01*
X136958162Y-61647586D01*
X136958163Y-61647584D01*
X137045822Y-61516392D01*
X137157392Y-61404822D01*
X137288584Y-61317163D01*
X137288586Y-61317162D01*
X137434358Y-61256781D01*
X137589107Y-61226000D01*
X137746893Y-61226000D01*
X137901642Y-61256781D01*
G37*
M02*
